<svg width="54" height="54" viewBox="0 0 54 54" fill="none" xmlns="http://www.w3.org/2000/svg">
<path d="M35.5796 18.7999V0.205452C35.5796 -0.0260119 35.256 -0.0804239 35.1802 0.138261L31.2503 11.4781C31.1835 11.6709 30.9851 11.7854 30.7847 11.7469L18.9949 9.47888C18.7676 9.43514 18.653 9.74246 18.8535 9.85818L34.9636 19.1554C35.2374 19.3134 35.5796 19.116 35.5796 18.7999Z" fill="#032638"/>
<path d="M24.2988 15.0531L8.18873 5.75584C7.98819 5.64013 7.77927 5.893 7.93085 6.06795L15.7906 15.1398C15.9243 15.2941 15.9243 15.5231 15.7906 15.6773L7.93085 24.7492C7.77927 24.9242 7.98822 25.177 8.18873 25.0613L24.2988 15.764C24.5726 15.6061 24.5726 15.2111 24.2988 15.0531Z" fill="#032638"/>
<path d="M17.7969 34.5849V53.1794C17.7969 53.4109 18.1205 53.4653 18.1962 53.2466L22.1261 41.9067C22.193 41.7139 22.3913 41.5994 22.5918 41.638L34.3815 43.906C34.6089 43.9497 34.7235 43.6424 34.523 43.5267L18.4129 34.2294C18.1391 34.0714 17.7969 34.2689 17.7969 34.5849Z" fill="#032638"/>
<path d="M29.095 38.3344L45.2051 47.6316C45.4056 47.7473 45.6145 47.4945 45.4629 47.3195L37.6032 38.2476C37.4695 38.0934 37.4695 37.8644 37.6032 37.7102L45.4629 28.6383C45.6145 28.4633 45.4056 28.2104 45.2051 28.3262L29.095 37.6234C28.8212 37.7814 28.8212 38.1764 29.095 38.3344Z" fill="#032638"/>
<path d="M37.9823 30.4426L53.282 21.613C53.4799 21.4988 53.3714 21.1955 53.146 21.2327L42.1535 23.0449C41.9561 23.0774 41.764 22.9631 41.6986 22.7742L37.7656 11.4254C37.6898 11.2067 37.3662 11.2611 37.3662 11.4926V30.0871C37.3662 30.4031 37.7085 30.6006 37.9823 30.4426Z" fill="#032638"/>
<path d="M15.4032 22.9462L0.103393 31.7759C-0.0944298 31.89 0.0140891 32.1933 0.239484 32.1561L11.232 30.3439C11.4293 30.3114 11.6214 30.4257 11.6869 30.6146L15.6199 41.9634C15.6957 42.1821 16.0192 42.1277 16.0192 41.8962V23.3017C16.0192 22.9857 15.677 22.7882 15.4032 22.9462Z" fill="#032638"/>
<path fill-rule="evenodd" clip-rule="evenodd" d="M22.41 24.0294C22.3064 24.0891 22.2426 24.1996 22.2426 24.3192V29.0662C22.2426 29.1858 22.3064 29.2963 22.41 29.3561C23.1124 29.7616 25.8186 31.3241 26.521 31.7296C26.6246 31.7894 26.7522 31.7894 26.8557 31.7296C27.5581 31.3241 30.2644 29.7616 30.9668 29.3561C31.0703 29.2963 31.1341 29.1858 31.1341 29.0662V24.3192C31.1341 24.1996 31.0703 24.0891 30.9668 24.0294C30.2644 23.6238 27.5581 22.0614 26.8557 21.6558C26.7522 21.596 26.6246 21.596 26.521 21.6558C25.8186 22.0614 23.1124 23.6238 22.41 24.0294ZM17.7969 22.3322C17.7969 21.8539 18.052 21.4119 18.4663 21.1728C20.117 20.2197 24.3682 17.7652 26.019 16.8122C26.4332 16.573 26.9435 16.573 27.3577 16.8122C29.0085 17.7652 33.2597 20.2197 34.9105 21.1728C35.3247 21.4119 35.5799 21.8539 35.5799 22.3322V31.0533C35.5799 31.5316 35.3247 31.9736 34.9105 32.2127C33.2597 33.1658 29.0085 35.6202 27.3577 36.5733C26.9435 36.8124 26.4332 36.8124 26.019 36.5733C24.3682 35.6202 20.117 33.1658 18.4663 32.2127C18.052 31.9735 17.7969 31.5316 17.7969 31.0533V22.3322Z" fill="#F99235"/>
</svg>
