<svg width="75" height="53" viewBox="0 0 75 53" fill="none" xmlns="http://www.w3.org/2000/svg">
<path d="M58.3823 9.59502C57.1478 9.59502 55.9565 9.73581 54.8086 9.99572C53.3249 4.2452 48.1159 0 41.8997 0C35.6835 0 29.2724 5.29567 28.6335 12.0533C26.9657 11.3061 25.1138 10.8837 23.1753 10.8837C15.8112 10.8837 9.8441 16.8508 9.8441 24.215C9.8441 31.5791 9.87659 25.2221 9.93074 25.7203C9.38926 25.612 8.82612 25.547 8.24132 25.547C3.69289 25.547 0 29.2399 0 33.7883C0 38.3368 3.69289 42.0297 8.24132 42.0297H58.3823C67.3384 42.0297 74.6051 34.763 74.6051 25.8069C74.6051 16.8508 67.3384 9.58419 58.3823 9.58419V9.59502Z" fill="#0097F2"/>
<path d="M62.4218 23.7598H13.1797V37.091H62.4218V23.7598Z" fill="#032638"/>
<path d="M19.3739 31.7399C20.0976 31.7399 20.6842 31.1532 20.6842 30.4295C20.6842 29.7058 20.0976 29.1191 19.3739 29.1191C18.6502 29.1191 18.0635 29.7058 18.0635 30.4295C18.0635 31.1532 18.6502 31.7399 19.3739 31.7399Z" fill="#0097F2"/>
<path d="M24.4754 31.7399C25.1991 31.7399 25.7858 31.1532 25.7858 30.4295C25.7858 29.7058 25.1991 29.1191 24.4754 29.1191C23.7517 29.1191 23.165 29.7058 23.165 30.4295C23.165 31.1532 23.7517 31.7399 24.4754 31.7399Z" fill="white"/>
<path d="M29.576 31.7399C30.2997 31.7399 30.8864 31.1532 30.8864 30.4295C30.8864 29.7058 30.2997 29.1191 29.576 29.1191C28.8523 29.1191 28.2656 29.7058 28.2656 30.4295C28.2656 31.1532 28.8523 31.7399 29.576 31.7399Z" fill="white"/>
<path d="M62.4218 39.668H13.1797V52.9992H62.4218V39.668Z" fill="#032638"/>
<path d="M19.3739 47.6383C20.0976 47.6383 20.6842 47.0517 20.6842 46.328C20.6842 45.6043 20.0976 45.0176 19.3739 45.0176C18.6502 45.0176 18.0635 45.6043 18.0635 46.328C18.0635 47.0517 18.6502 47.6383 19.3739 47.6383Z" fill="#0097F2"/>
<path d="M24.4754 47.6383C25.1991 47.6383 25.7858 47.0517 25.7858 46.328C25.7858 45.6043 25.1991 45.0176 24.4754 45.0176C23.7517 45.0176 23.165 45.6043 23.165 46.328C23.165 47.0517 23.7517 47.6383 24.4754 47.6383Z" fill="white"/>
<path d="M29.576 47.6383C30.2997 47.6383 30.8864 47.0517 30.8864 46.328C30.8864 45.6043 30.2997 45.0176 29.576 45.0176C28.8523 45.0176 28.2656 45.6043 28.2656 46.328C28.2656 47.0517 28.8523 47.6383 29.576 47.6383Z" fill="white"/>
</svg>
