<svg width="61" height="53" viewBox="0 0 61 53" fill="none" xmlns="http://www.w3.org/2000/svg">
<path d="M60.0469 0H0V6.97222H60.0469V0Z" fill="#0097F2"/>
<path fill-rule="evenodd" clip-rule="evenodd" d="M2.58715 42.6456C10.2322 35.0237 22.6569 35.0237 30.302 42.6456C30.3368 42.6804 30.3716 42.7152 30.3948 42.7384C22.0421 39.3973 12.1116 41.091 5.34819 47.8312C4.3505 48.8289 3.46883 49.8846 2.69156 50.9983H7.49438C10.8239 48.3765 15.035 46.8219 19.6059 46.8219C24.1767 46.8219 19.6987 46.8219 19.7451 46.8219C17.3321 47.8428 15.1395 49.2698 13.2253 50.9983H46.5666C47.0307 44.5481 44.7801 37.9472 39.838 33.0167C35.244 28.4343 29.1883 26.1837 23.1558 26.2533C30.3716 23.0282 39.142 24.3624 45.0585 30.2557C50.685 35.859 52.1699 44.0261 49.5249 50.9867H54.0957C54.3045 49.7222 54.4205 48.4345 54.4205 47.112C54.4205 40.6386 51.7407 34.7801 47.4135 30.5805C54.8034 33.3764 60.0586 40.4994 60.0586 48.8405C60.0586 57.1817 60.0122 50.2791 59.9426 50.9867H60.0586V6.94922H0.0117188V45.8011C0.742583 44.6758 1.61266 43.6085 2.59875 42.6224L2.58715 42.6456ZM21.2416 27.7035C32.0537 27.7035 40.8473 36.4506 40.8473 47.228C40.8473 58.0053 40.8473 47.3208 40.8473 47.3672C37.309 39.1189 29.0839 33.33 19.513 33.33C9.9422 33.33 7.12315 35.9982 2.91197 40.3022C5.71942 32.9471 12.8773 27.7035 21.2416 27.7035Z" fill="#032638"/>
</svg>
