<svg width="36" height="26" viewBox="0 0 36 26" fill="none" xmlns="http://www.w3.org/2000/svg">
<path d="M28.1719 4.62999C27.5762 4.62999 27.0013 4.69793 26.4474 4.82335C25.7315 2.04849 23.2179 0 20.2183 0C17.2188 0 14.1251 2.55538 13.8168 5.81623C13.0121 5.45566 12.1185 5.25186 11.1831 5.25186C7.62956 5.25186 4.75019 8.13123 4.75019 11.6847C4.75019 15.2382 4.76586 12.1707 4.79199 12.4111C4.53071 12.3588 4.25897 12.3275 3.97678 12.3275C1.78197 12.3275 0 14.1095 0 16.3043C0 18.4991 1.78197 20.281 3.97678 20.281H28.1719C32.4936 20.281 36 16.7746 36 12.4529C36 8.13123 32.4936 4.62477 28.1719 4.62477V4.62999Z" fill="#0097F2"/>
<path d="M30.1208 11.4648H6.35938V17.8977H30.1208V11.4648Z" fill="#032638"/>
<path d="M9.34813 15.3154C9.69735 15.3154 9.98045 15.0323 9.98045 14.6831C9.98045 14.3339 9.69735 14.0508 9.34813 14.0508C8.99892 14.0508 8.71582 14.3339 8.71582 14.6831C8.71582 15.0323 8.99892 15.3154 9.34813 15.3154Z" fill="#0097F2"/>
<path d="M11.81 15.3154C12.1593 15.3154 12.4424 15.0323 12.4424 14.6831C12.4424 14.3339 12.1593 14.0508 11.81 14.0508C11.4608 14.0508 11.1777 14.3339 11.1777 14.6831C11.1777 15.0323 11.4608 15.3154 11.81 15.3154Z" fill="white"/>
<path d="M14.271 15.3154C14.6202 15.3154 14.9033 15.0323 14.9033 14.6831C14.9033 14.3339 14.6202 14.0508 14.271 14.0508C13.9218 14.0508 13.6387 14.3339 13.6387 14.6831C13.6387 15.0323 13.9218 15.3154 14.271 15.3154Z" fill="white"/>
<path d="M30.1208 19.1406H6.35938V25.5735H30.1208V19.1406Z" fill="#032638"/>
<path d="M9.34813 22.9873C9.69735 22.9873 9.98045 22.7042 9.98045 22.355C9.98045 22.0058 9.69735 21.7227 9.34813 21.7227C8.99892 21.7227 8.71582 22.0058 8.71582 22.355C8.71582 22.7042 8.99892 22.9873 9.34813 22.9873Z" fill="#0097F2"/>
<path d="M11.81 22.9873C12.1593 22.9873 12.4424 22.7042 12.4424 22.355C12.4424 22.0058 12.1593 21.7227 11.81 21.7227C11.4608 21.7227 11.1777 22.0058 11.1777 22.355C11.1777 22.7042 11.4608 22.9873 11.81 22.9873Z" fill="white"/>
<path d="M14.271 22.9873C14.6202 22.9873 14.9033 22.7042 14.9033 22.355C14.9033 22.0058 14.6202 21.7227 14.271 21.7227C13.9218 21.7227 13.6387 22.0058 13.6387 22.355C13.6387 22.7042 13.9218 22.9873 14.271 22.9873Z" fill="white"/>
</svg>
