<svg width="36" height="22" viewBox="0 0 36 22" fill="none" xmlns="http://www.w3.org/2000/svg">
<path fill-rule="evenodd" clip-rule="evenodd" d="M5.1748 18.0009C5.1748 10.9168 10.9158 5.17578 18 5.17578C25.0841 5.17578 30.8251 10.9168 30.8251 18.0009" fill="#032638"/>
<path d="M18.0003 21.3307C19.8402 21.3307 21.3317 19.8392 21.3317 17.9993C21.3317 16.1595 19.8402 14.668 18.0003 14.668C16.1605 14.668 14.6689 16.1595 14.6689 17.9993C14.6689 19.8392 16.1605 21.3307 18.0003 21.3307Z" fill="#0097F2"/>
<path d="M27.6913 6.08339L29.7454 4.37161C26.5852 1.64594 22.4901 0 18 0C8.07169 0 0 8.07169 0 18H2.6335C2.6335 9.53328 9.52012 2.6335 18 2.6335C22.8456 2.6335 25.0446 3.92392 27.6913 6.08339Z" fill="#0097F2"/>
<path d="M31.1416 5.71484L29.5088 7.83482C31.9053 10.5473 33.3669 14.1026 33.3669 18.0001H36.0004C36.0004 13.2467 34.1569 8.92772 31.1416 5.71484Z" fill="#0097F2"/>
<path fill-rule="evenodd" clip-rule="evenodd" d="M16.5381 16.4456L31.5227 3.91016L19.6193 19.4083L17.2228 19.145L16.5381 16.4456Z" fill="#0097F2"/>
</svg>
