<svg width="36" height="25" viewBox="0 0 36 25" fill="none" xmlns="http://www.w3.org/2000/svg">
<path d="M24.3108 22.9869C27.7754 20.9454 30.0229 17.3042 30.3173 13.3391L36 13.3195L27.952 5.27149L19.904 13.3195L25.4787 13.3391C25.1941 15.5179 23.9378 17.5201 22.0731 18.7175C19.7274 20.2093 16.94 20.3271 14.4275 19.0316L13.7895 18.6979L10.3544 22.1722L11.4046 22.82C13.3577 24.0272 15.5758 24.6946 17.8233 24.724C20.0807 24.7535 22.3282 24.1548 24.3108 22.9869Z" fill="#0097F2"/>
<path d="M10.5017 11.3762C10.7863 9.19733 12.0426 7.19515 13.9074 5.99776C16.2236 4.52557 19.0699 4.4078 21.5431 5.6837L22.1811 6.01739L25.6162 2.55284L24.566 1.90507C22.6129 0.688057 20.3948 0.0304811 18.1473 0.00103715C15.8899 -0.0284068 13.6424 0.57028 11.6598 1.73822C8.19527 3.77966 5.95754 7.41107 5.65328 11.386L6.77483e-05 11.4154L8.01861 19.4536L16.0568 11.4056L10.4821 11.386L10.5017 11.3762Z" fill="#032638"/>
</svg>
