<svg width="53" height="53" viewBox="0 0 53 53" fill="none" xmlns="http://www.w3.org/2000/svg">
<path d="M40.0816 25.5055H38.0941C38.0941 23.518 37.4316 21.8617 36.4379 20.5367L38.0941 18.8805C39.4191 20.868 40.0816 23.1867 40.4129 25.5055H40.0816ZM34.1191 15.2367C32.1316 13.9117 29.8129 13.2492 27.4941 12.918V14.9055C29.4816 14.9055 31.1379 15.568 32.4629 16.5617L34.1191 14.9055V15.2367ZM37.7629 27.493C37.4316 33.1242 32.7941 37.4305 27.1629 38.093V40.0805C33.7879 39.7492 39.4191 34.118 39.7504 27.493H37.7629ZM25.5066 38.093C19.8754 37.7617 15.2379 33.1242 14.9066 27.493H12.9191C13.2504 34.4492 18.8816 39.7492 25.8379 40.0805V38.093H25.5066ZM14.9066 25.5055C15.2379 19.8742 19.8754 15.2367 25.5066 14.9055V12.918C18.5504 13.2492 13.2504 18.8805 12.5879 25.5055H14.5754H14.9066Z" fill="#081C2E"/>
<path opacity="0.6" d="M7.28711 25.5059C7.61836 15.5684 15.5684 7.61836 25.5059 7.28711V10.9309C17.5559 11.2621 11.2621 17.5559 10.9309 25.5059H7.28711ZM38.0934 11.2621C35.1121 8.94336 31.4684 7.61836 27.4934 7.28711V10.9309C30.4746 10.9309 33.1246 12.2559 35.4434 13.5809L38.0934 10.9309V11.2621ZM41.7371 14.9059L39.0871 17.5559C40.7434 19.8746 41.7371 22.5246 41.7371 25.5059H45.3809C45.3809 21.5309 43.7246 17.8871 41.4059 14.9059H41.7371ZM25.5059 42.0684C17.5559 41.7371 11.2621 35.4434 10.9309 27.4934H7.28711C7.61836 37.4309 15.5684 45.3809 25.5059 45.7121V42.0684ZM42.0684 27.4934C41.7371 35.4434 35.4434 41.7371 27.4934 42.0684V45.7121C37.4309 45.3809 45.3809 37.4309 45.7121 27.4934H42.0684Z" fill="#081C2E"/>
<path d="M45.7127 8.28203L44.3877 6.95703L29.1502 22.1945C28.4877 21.532 27.4939 21.2008 26.1689 21.2008C23.5189 21.2008 21.2002 23.5195 21.2002 26.1695C21.2002 28.8195 23.5189 31.1383 26.1689 31.1383C28.8189 31.1383 31.1377 28.8195 31.1377 26.1695C31.1377 23.5195 30.8064 24.182 30.1439 23.1883L45.3814 7.95078L45.7127 8.28203Z" fill="#359CF3"/>
<path opacity="0.4" d="M27.4938 0V5.3C32.1313 5.3 36.1062 6.95625 39.4187 9.60625L43.3938 5.63125C38.7563 2.31875 33.4563 0 27.4938 0ZM47.0375 9.60625L43.0625 13.5812C45.7125 16.8937 47.3688 21.2 47.3688 25.5062H52.6687C52.6687 19.5437 50.35 13.9125 46.7063 9.60625H47.0375ZM47.3688 27.4938C47.0375 38.425 38.0937 47.0375 27.1625 47.7V53C41.075 52.6687 52.3375 41.4062 52.6687 27.4938H47.3688ZM5.63125 25.5062C5.9625 14.575 14.9063 5.9625 25.8375 5.3V0C11.5938 0.33125 0.33125 11.5938 0 25.5062H5.3H5.63125ZM25.5062 47.3688C14.575 47.0375 5.9625 38.0937 5.3 27.1625H0C0.33125 41.075 11.5938 52.3375 25.5062 52.6687V47.3688Z" fill="#081C2E"/>
</svg>
