<svg width="27" height="31" viewBox="0 0 27 31" fill="none" xmlns="http://www.w3.org/2000/svg">
<path d="M24.8382 18.5103H1.45508V11.6916C1.45508 5.24895 6.70403 0 13.1467 0C19.5893 0 24.8382 5.24895 24.8382 11.6916V18.5103ZM4.39841 15.567H21.8949V11.6916C21.8949 6.86778 17.9705 2.94334 13.1467 2.94334C8.32286 2.94334 4.39841 6.86778 4.39841 11.6916V15.567Z" fill="#0097F2"/>
<path d="M26.3102 9.25586H0V30.3007H26.3102V9.25586Z" fill="#032638"/>
<path d="M13.1464 20.7674C14.4559 20.7674 15.5174 19.7059 15.5174 18.3964C15.5174 17.0869 14.4559 16.0254 13.1464 16.0254C11.8369 16.0254 10.7754 17.0869 10.7754 18.3964C10.7754 19.7059 11.8369 20.7674 13.1464 20.7674Z" fill="#0097F2"/>
<path d="M14.1448 19.9323C14.1448 19.3904 13.7056 18.9512 13.1637 18.9512C12.6219 18.9512 12.1826 19.3904 12.1826 19.9323V22.7775C12.1826 23.3194 12.6219 23.7586 13.1637 23.7586C13.7056 23.7586 14.1448 23.3194 14.1448 22.7775V19.9323Z" fill="#0097F2"/>
</svg>
