<svg width="78" height="55" viewBox="0 0 78 55" fill="none" xmlns="http://www.w3.org/2000/svg">
<path d="M32.7282 26.1628L28.8093 22.2673C28.4466 21.9105 27.7038 21.232 27.2651 20.9922C27.1598 21.0858 27.0838 21.1619 27.0078 21.273V32.8717L26.9844 34.7902C26.9844 35.2231 26.961 35.6384 26.9785 36.0712V36.2525C26.9902 36.2935 26.8674 36.3461 26.8264 36.3461L22.5507 36.3227L20.7492 36.2818C20.369 36.2701 19.983 36.2818 19.6087 36.2291C19.2343 36.1765 19.2577 36.0887 19.0705 36.118C18.8892 35.9835 18.2166 35.7144 18.1347 35.6442L17.6141 35.2406C17.3685 35.0476 17.1286 34.8136 16.9298 34.5738L16.4911 34.0416C16.3273 33.8427 15.9588 33.2227 15.8418 32.9829L15.526 32.3219C15.4792 32.2225 15.5201 32.0002 15.4909 31.8774C15.4149 31.5732 15.3447 31.2866 15.3447 30.9649L15.3096 27.4204V6.86666L15.3388 4.86627C15.3388 4.77269 15.3681 4.56797 15.3915 4.48023C15.4909 4.31646 15.4792 4.12929 15.5318 3.95966C15.5845 3.79004 15.8711 3.18173 15.9881 2.98286L16.2571 2.54418C16.3332 2.42135 16.4852 2.29267 16.573 2.16984C16.8245 1.83644 17.1052 1.56738 17.4328 1.31002C17.7603 1.05266 18.0352 0.818698 18.5266 0.596432L18.8541 0.444356C19.3688 0.204543 18.8892 0.508696 19.3922 0.245487C19.8953 -0.0177225 19.7549 0.245487 19.8719 0.198694C20.0532 0.116807 20.1819 0.0934102 20.369 0.0758629C20.9656 0.0115228 21.5272 0.00567374 22.1179 0.0758629C22.7087 0.146052 22.3753 0.0992594 22.4981 0.198694L22.9251 0.245487L23.2292 0.391714L23.5334 0.532093C23.627 0.578885 23.8025 0.637376 23.8843 0.690018C24.1651 0.877189 24.4459 1.05266 24.6915 1.29247L28.704 5.24061L29.1953 5.72024L29.441 5.96005L30.02 6.53326L30.5348 7.04798L31.4414 7.9429L32.2369 8.73252L32.465 8.93724L35.0152 11.4699L38.2205 14.6635L43.0226 19.4539L43.5724 20.0037L43.8941 20.343L45.6196 22.0802C45.7073 22.1679 45.6196 22.3492 45.5435 22.4253L44.789 23.2207L41.8879 26.1394L41.6656 26.3617L38.3667 29.6723C38.2088 29.8302 38.0275 29.9238 37.8754 30.0642L37.3958 30.5146C37.191 30.7076 36.7757 30.2046 36.6646 30.0817C36.5535 29.9589 36.4014 29.8536 36.2844 29.7366C36.0095 29.4676 35.7463 29.1985 35.4889 28.9119C35.3193 28.8242 35.2082 28.6721 35.0678 28.5376L34.7578 28.2334L34.3191 27.8006C33.9857 27.473 34.0442 27.4964 33.6699 27.1279L32.6814 26.1628H32.7282Z" fill="white"/>
<path d="M47.7781 20.5541L47.281 19.9692L46.8072 19.4427L46.1696 18.7584L45.7777 18.3607L45.2864 17.7933L44.3213 16.7873L43.7657 16.2023L42.5198 14.8629L41.3968 13.7048L40.9698 13.2603L40.1802 12.4063C40.0339 12.2484 39.876 12.108 39.759 11.915C39.642 11.7219 39.759 11.5874 39.8526 11.488L40.1977 11.1195L42.8181 8.48154L45.3391 5.96643L45.6959 5.61549L47.4096 3.9134L48.3981 2.96584C48.6321 2.73773 48.8544 2.53301 49.0766 2.2815C49.2463 2.08848 49.4627 1.9364 49.6557 1.76093C49.954 1.50357 50.1997 1.19942 50.5155 0.953756C50.8314 0.708094 51.1297 0.579414 51.2583 0.526772L52.0246 0.240166C52.8259 -0.0639868 54.2414 -0.0464396 55.0895 0.111486L55.768 0.240166C55.8557 0.257713 56.0195 0.351299 56.1189 0.386394L56.4933 0.520923C56.7156 0.596961 57.2946 0.918661 57.5052 1.06489C57.9439 1.36904 58.2422 1.58546 58.5814 2.00659C59.1546 2.70848 59.3067 2.90735 59.7103 3.72623C59.6342 3.57415 59.9852 4.52755 59.9676 4.42812L60.1022 5.00718C60.1314 5.14171 60.1607 5.31718 60.1607 5.48681V36.3525C59.9794 36.487 59.8039 36.4051 59.6226 36.3993L57.5871 36.3642L48.983 36.3466C48.8602 36.3466 47.9595 36.4812 47.9302 36.37L47.8951 35.6155L47.8542 34.1649L47.8132 32.147C47.7898 31.0181 47.784 29.9126 47.8132 28.7721C47.8483 27.4151 47.8191 26.099 47.8132 24.742L47.784 20.5424L47.7781 20.5541Z" fill="white"/>
<path d="M8.17343 48.8175C8.24947 48.3846 8.3723 48.2852 8.29626 48.0512C8.22022 47.8173 8.19683 48.1039 8.18513 48.139C8.0506 48.4665 7.86343 48.835 7.6938 49.1626L7.14399 50.2388L5.98002 52.5375L5.54134 53.409C5.50039 53.4909 5.38341 53.6956 5.29567 53.6956L3.89774 53.7073C3.8451 53.7073 3.74566 53.6137 3.73397 53.5669L3.59944 52.5609L3.5351 51.8999L3.34793 50.4377L3.19585 49.0105C3.17245 48.8058 3.14321 48.2092 3.12566 48.1799C3.10811 48.1507 3.09641 48.1682 3.02622 48.1624L2.85075 49.0807L2.71037 49.7124L2.51735 50.6892L2.37697 51.4788L2.07282 52.9352L1.95584 53.4733L1.68678 54.8011L0.166017 54.8128C0.130923 54.8128 0.0431867 54.7718 0.0256395 54.7426C-0.0503988 54.6198 0.060733 54.5554 0.125073 54.2454L0.370736 52.9645L0.727531 51.163L0.873758 50.4728L1.11942 49.2269L1.32414 48.1565L1.48791 47.3669L1.73357 46.2029C1.79791 45.8988 1.85641 45.5888 1.8915 45.2788C1.9266 44.9688 1.94999 44.9922 2.03773 44.9922H4.32472C4.41831 44.9922 4.4534 45.1735 4.45925 45.2437L4.54699 46.3491L4.69322 48.1799C4.72246 48.525 4.74001 48.8467 4.7751 49.1977L4.90378 50.6424L4.95058 51.2975C4.95058 51.3326 4.99152 51.4028 5.00907 51.4262C5.02662 51.4496 5.1085 51.3735 5.12605 51.3384L6.01511 49.4784L6.70531 48.0571L7.31946 46.782L7.92192 45.542L8.19683 44.9746H10.6359C10.6359 45.2203 10.5774 45.3957 10.5306 45.6063L10.3259 46.589L10.1914 47.2441L9.99835 48.2735L9.72344 49.6129L9.6357 50.0107L9.39004 51.2858L9.24381 52.0579L9.06834 52.9001L8.89872 53.7015C8.84023 53.9881 8.78173 54.2571 8.74664 54.5437C8.71155 54.8303 8.66475 54.7952 8.51268 54.7952H7.0621C6.99776 54.6724 7.04455 54.5379 7.06795 54.4092L7.25512 53.5026L7.60607 51.6718L7.76984 50.9231C7.85758 50.5313 7.95116 50.1511 8.0155 49.7592L8.17928 48.8058L8.17343 48.8175Z" fill="white"/>
<path d="M74.2853 54.3678C73.9227 54.5257 73.0629 54.7831 72.7178 54.789H68.8223L69.1498 53.1805L69.3955 51.882L69.6353 50.7706L69.7815 50.0336L69.8985 49.4253L70.1149 48.3257L70.2202 47.7993L70.4542 46.7114L70.6179 45.834C70.6706 45.5474 70.7291 45.2666 70.7993 44.9859C71.0917 44.98 71.3315 44.9859 71.5947 44.9683C71.8579 44.9508 72.2966 44.9508 72.6651 44.9566L74.6012 44.9976C75.2153 45.0093 76.081 45.3076 76.508 45.6702C77.5374 46.5534 77.4321 47.7349 77.1689 48.9282L77.0461 49.4721L76.777 50.8233C76.5957 51.7357 76.625 51.8176 76.1687 52.6657C75.7125 53.5139 75.075 54.0169 74.2853 54.362V54.3678ZM74.7708 51.2386L75.1042 49.5365L75.3557 48.3315C75.4727 47.77 75.2621 47.1676 74.6948 46.9278C74.5719 46.8751 74.3555 46.7815 74.2268 46.7815L72.6593 46.764C72.5657 46.764 72.32 46.688 72.2966 46.7932L72.1679 47.3898L72.0802 47.8227L71.741 49.5891L71.3783 51.3263L71.1619 52.4259L71.0332 52.9933C71.7117 52.9874 72.32 53.0284 72.9459 52.9757C73.911 52.9055 74.5953 52.1569 74.7766 51.2327L74.7708 51.2386Z" fill="white"/>
<path d="M53.5971 54.7879C53.0941 54.6943 52.6671 54.4604 52.3044 54.1328C51.971 53.8345 51.8073 53.4368 51.6727 53.0098C51.5382 52.5828 51.5499 51.7054 51.6727 51.0913L52.0997 48.892C52.2401 48.1843 52.4331 47.4941 52.8133 46.8916C53.2871 46.1371 53.9305 45.599 54.7435 45.2597C56.0888 44.7041 57.8845 44.6748 58.9022 45.8271C59.1947 46.1605 59.335 46.5407 59.4403 46.9677C59.5807 47.535 59.4813 48.0966 59.3701 48.6581L59.1186 49.9332L58.9724 50.5883C58.873 51.0328 58.8086 51.4715 58.6624 51.916C58.4226 52.6472 57.9898 53.3023 57.4107 53.8111C56.8316 54.32 56.4164 54.4838 55.8373 54.6885C55.2582 54.8932 54.3633 54.94 53.5912 54.7879H53.5971ZM54.5914 53.0624C54.9307 53.0917 55.3343 53.0917 55.6326 52.9572C56.1941 52.6998 56.6328 52.2494 56.8024 51.6704C56.972 51.0913 57.0013 50.8573 57.0831 50.442L57.2937 49.4185C57.4165 48.816 57.5569 48.2311 57.4633 47.6111C57.3464 46.8332 56.4281 46.6284 55.7496 46.7513C55.0711 46.8741 54.375 47.5233 54.1703 48.2779C54.1177 48.4651 54.0826 48.6347 54.0475 48.8218L53.8369 49.9215L53.6965 50.6468C53.6497 50.8924 53.6088 51.1381 53.5386 51.372C53.3514 52.0271 53.6965 52.9806 54.5914 53.0624Z" fill="white"/>
<path d="M68.6826 45.9046L68.5715 46.4486L68.396 47.4195L68.1796 48.4841L68.0684 48.9929L67.7818 50.3616L67.5596 51.4963C67.4835 51.8707 67.3315 52.2099 67.1735 52.555C67.0156 52.9001 66.7056 53.3505 66.3722 53.6898C65.7171 54.3507 64.9392 54.7016 64.015 54.8537C63.0499 55.0116 61.7456 54.8771 61.0203 54.1869C60.1195 53.333 60.178 52.0169 60.4588 50.8939C60.7395 49.7709 60.5757 50.3792 60.6225 50.1218L60.7805 49.3263L61.0671 47.8524L61.1841 47.2791L61.4297 46.1093L61.6227 45.0799C61.6344 45.0214 61.7514 44.9688 61.8099 44.9688H63.436C63.4769 45.0623 63.4828 45.1969 63.4652 45.2905L63.1611 46.7586L62.7692 48.7356L62.6288 49.4375L62.3363 50.8062C62.2486 51.2273 62.1784 51.625 62.2135 52.0813C62.2486 52.5375 62.5235 52.7948 62.8686 52.9469C63.2137 53.099 63.6641 53.1399 63.9975 53.0756C64.7286 52.9352 65.3311 52.479 65.6001 51.7771C65.8692 51.0752 65.7347 51.2682 65.7873 50.9992L66.0037 49.9112L66.1148 49.4082L66.3605 48.2092L66.5711 47.1037L66.729 46.3257L66.8986 45.5186L67.0215 44.9688H68.8405C68.8113 45.3021 68.7411 45.5829 68.6768 45.8988L68.6826 45.9046Z" fill="white"/>
<path d="M18.462 54.7953H16.7014C16.5435 54.8011 16.5143 54.7075 16.4967 54.5788L16.2862 53.216H12.6831L11.8116 54.7953L10.0393 54.807C9.99253 54.807 9.88725 54.766 9.87555 54.7251C9.86385 54.6841 9.92234 54.5905 9.95159 54.532L10.5365 53.5435L11.525 51.8532L12.8469 49.5896L13.4786 48.5133L15.0637 45.8052L15.5609 44.9805H16.7131C16.7716 45.2027 16.8301 45.4192 16.8652 45.6414L17.0933 46.9926L17.2337 47.7471L17.3975 48.6069L17.5086 49.1392L17.8362 51.0109L17.959 51.6835L18.1813 52.8007L18.2807 53.3622L18.462 54.4151C18.4854 54.5379 18.5147 54.6607 18.462 54.807V54.7953ZM15.9645 51.4613C16.0054 51.3384 15.9996 51.239 15.9762 51.1396C15.906 50.8822 15.8884 50.6307 15.8533 50.3733L15.6252 48.7648L15.5433 48.2092C15.4731 48.1741 15.3795 48.2911 15.3328 48.3788L14.7537 49.4667L14.3326 50.2271C14.1337 50.5898 13.9465 50.929 13.7243 51.2799C13.502 51.6309 13.6833 51.3852 13.7009 51.4145C13.7184 51.4437 13.7886 51.4554 13.812 51.4554H15.9703L15.9645 51.4613Z" fill="white"/>
<path d="M37.98 52.953C38.3778 53.1284 38.9276 53.1167 39.2902 52.9647C39.6529 52.8126 40.1734 52.292 40.4308 51.8358C40.6882 51.3796 40.5887 51.5199 40.6823 51.5141L42.2674 51.5024C42.3084 51.5024 42.3844 51.5316 42.4136 51.5492C42.4429 51.5667 42.4487 51.6896 42.4312 51.7247L42.0101 52.5611C41.8404 52.8945 41.6182 53.146 41.3842 53.4268C40.3723 54.6317 38.8398 55.1171 37.3074 54.7896C36.2253 54.5556 35.5585 53.8947 35.3713 52.7834C35.1842 51.672 35.2953 52.0405 35.3713 51.7013L35.6287 50.432L35.7632 49.7594L35.8568 49.2563C35.9562 48.7241 36.0498 48.2094 36.2311 47.7063C36.8044 46.1037 38.0444 45.1035 39.7348 44.8988C40.0974 44.8578 40.4542 44.8871 40.8285 44.8871C41.2029 44.8871 41.1561 44.9631 41.3082 45.0099C41.8112 45.1678 42.2616 45.4661 42.5774 45.8931C42.8816 46.3084 43.0219 46.7822 43.1272 47.2794C43.1799 47.525 43.2559 48.028 43.1565 48.1918C43.057 48.3556 43.0336 48.2562 42.981 48.2562H41.4017C41.0683 48.2562 41.4193 47.759 40.8344 47.0688C40.3314 46.478 38.9802 46.6243 38.4012 47.4431C37.8221 48.262 38.0268 48.0631 37.9625 48.4199L37.7636 49.4552L37.5998 50.2507C37.4419 51.0286 37.2898 51.2684 37.3776 52.1224C37.4127 52.4558 37.6759 52.8009 37.9976 52.9413L37.98 52.953Z" fill="white"/>
<path d="M20.5737 54.8014H18.7956C18.6961 54.7488 18.8365 54.585 18.8833 54.5265L19.6612 53.538L22.4396 50.0168C22.5858 49.8297 22.6267 49.7361 22.5156 49.5021C22.2641 48.9582 22.0652 48.3908 21.8371 47.8234L21.299 46.4723L20.8077 45.2206C20.7901 45.1796 20.7492 45.1153 20.7375 45.0861C20.7258 45.0568 20.796 44.9749 20.8369 44.9749H22.6618L23.2058 46.3202L23.9252 48.1334L26.4052 44.9808L28.0547 44.9691C28.1132 44.9691 28.236 44.934 28.2594 44.9749C28.2945 45.0393 28.2477 45.1329 28.1951 45.203L24.7207 49.6016C24.6447 49.701 24.5569 49.7829 24.6096 49.9116L25.1711 51.2803L25.6507 52.5144L26.1713 53.8422L26.5456 54.7897L24.6388 54.8014C24.5277 54.6142 24.4399 54.4388 24.3581 54.2399L23.3871 51.754C23.3462 51.6546 23.3345 51.5435 23.2233 51.4908L20.9071 54.4329C20.8135 54.5557 20.7024 54.6669 20.5795 54.7956L20.5737 54.8014Z" fill="white"/>
<path d="M50.0823 54.6139C50.0589 54.7309 49.9595 54.7952 49.8484 54.7952H43.5138C43.4495 54.7075 43.4495 54.5964 43.467 54.5028L43.7887 52.8943L43.9115 52.3035L44.0578 51.5899L44.2215 50.7477L44.438 49.6539L44.6895 48.4958L44.8181 47.8407L44.9819 46.9399L45.21 45.8461C45.251 45.659 45.2919 45.4952 45.3153 45.2963C45.3387 45.0974 45.3621 45.0565 45.4381 44.9746H47.0525C47.0876 44.9746 47.1519 44.9805 47.1812 44.9922C47.2104 45.0039 47.2338 45.1091 47.228 45.1501L46.9648 46.3725L46.8068 47.2558L46.684 47.8816L46.4091 49.145L46.2512 49.9522L45.9646 51.4203L45.8593 51.9292L45.6195 52.9937H50.1993C50.2344 52.9937 50.3221 53.0288 50.3397 53.0581C50.3572 53.0873 50.3689 53.1692 50.3572 53.2218L50.0823 54.6139Z" fill="white"/>
<path d="M28.3646 54.7999C28.3178 54.7999 28.2242 54.7414 28.2067 54.7063C28.1891 54.6712 28.2418 54.566 28.2535 54.5016L28.5108 53.2265L29.0314 50.6354L29.2771 49.4421L29.3823 48.9391L29.6222 47.7752L29.7099 47.3248C29.7684 47.0323 29.4935 47.237 29.1016 47.3774L28.5518 47.5704C28.3704 47.5002 28.4933 47.3248 28.5167 47.2195L28.8442 45.7046C28.8618 45.6168 29.0314 45.535 29.1308 45.5116C29.5929 45.4004 29.9731 45.0729 30.441 45.0027C30.909 44.9325 31.4529 44.9968 31.9501 44.9734C32.0203 45.0729 31.9969 45.2133 31.9735 45.3244L31.8214 46.0087L31.5991 47.1844L31.3652 48.3952L31.1078 49.5884L30.9967 50.1382L30.792 51.2144L30.5931 52.162L30.4293 52.9224L30.2539 53.829C30.1895 54.1565 30.1427 54.4431 30.0433 54.7882H28.3587L28.3646 54.7999Z" fill="white"/>
<path d="M33.793 54.0625C33.7404 54.3257 33.6936 54.5363 33.6176 54.7936H31.8336C31.7517 54.7117 31.816 54.548 31.8336 54.4544C31.9389 53.9455 32.0325 53.46 32.1728 52.9512H33.8925C33.9334 52.9512 33.9802 53.074 33.9685 53.1208L33.7872 54.0567L33.793 54.0625Z" fill="white"/>
</svg>
