<svg width="27" height="27" viewBox="0 0 27 27" fill="none" xmlns="http://www.w3.org/2000/svg">
<path d="M20.0147 0C20.0668 0.0283708 20.1648 0.0345608 20.2705 0.0474566C23.4832 0.436394 26.0026 2.9779 26.3688 6.19102C26.3791 6.27974 26.3895 6.36021 26.4111 6.39632V20.0143C26.3895 20.0504 26.3786 20.1309 26.3688 20.2196C26.0026 23.4322 23.4832 25.9737 20.2705 26.3632C20.1648 26.3761 20.0668 26.3828 20.0147 26.4111H6.39645C6.36034 26.3895 6.27986 26.3786 6.19166 26.3688C2.97847 26.001 0.43795 23.4838 0.0479733 20.2707C0.0350773 20.1649 0.0283713 20.0669 0 20.0148V6.39632C0 2.95572 3.14148 0.360567 6.39645 0H20.0147ZM17.2059 21.7578C19.7562 21.7568 21.7675 19.6274 21.7675 17.122V9.29169C21.7675 6.72026 19.6887 4.64404 17.1198 4.64301L9.33984 4.63836C6.81325 4.63682 4.65445 6.6269 4.65445 9.18955V17.2247C4.65445 19.7213 6.75083 21.7624 9.23616 21.7614L17.2064 21.7578H17.2059ZM17.1033 20.2196L9.33881 20.2232C7.64014 20.2237 6.19785 18.9027 6.19785 17.1715V9.23856C6.19785 7.50949 7.63911 6.18483 9.33881 6.18689L17.1776 6.19669C18.837 6.19876 20.2128 7.5719 20.2138 9.23443L20.219 17.1205C20.22 18.8366 18.8427 20.2186 17.1033 20.2191V20.2196ZM17.436 8.02841C16.9836 8.15686 16.7767 8.61904 16.9103 9.01211C17.0429 9.40208 17.4546 9.62388 17.8492 9.51143C18.2438 9.39898 18.5017 8.97084 18.3841 8.56075C18.2737 8.17543 17.8714 7.90461 17.436 8.02841ZM12.7408 9.36751C10.5712 9.63162 9.09327 11.6119 9.36976 13.7103C9.64574 15.803 11.5709 17.2974 13.6616 17.0467C15.7765 16.7929 17.3014 14.8616 17.046 12.7478C16.7938 10.6576 14.8991 9.10496 12.7403 9.36751H12.7408ZM10.9132 13.5576C11.1025 14.8064 12.2672 15.672 13.5171 15.5044C14.767 15.3367 15.678 14.1617 15.5036 12.8943C15.3329 11.6532 14.2032 10.7314 12.895 10.9099C11.5714 11.0904 10.7228 12.3016 10.9132 13.5576Z" fill="url(#paint0_linear_2730_866)"/>
<defs>
<linearGradient id="paint0_linear_2730_866" x1="32.4111" y1="30" x2="-3.08887" y2="-10" gradientUnits="userSpaceOnUse">
<stop stop-color="#0097F2"/>
<stop offset="1" stop-color="white"/>
</linearGradient>
</defs>
</svg>
