<svg width="27" height="27" viewBox="0 0 27 27" fill="none" xmlns="http://www.w3.org/2000/svg">
<path d="M26.4111 6.10418V20.3294C26.0613 23.5961 23.5962 26.0619 20.3295 26.4111H6.10453C2.94429 26.4111 0.160643 23.3585 0.0855861 20.2837C-0.0305896 15.5002 -0.0260209 10.921 0.0842807 6.16814C0.158033 2.98174 2.97627 0.151708 6.17241 0.0818705C10.888 -0.0212535 15.5585 -0.0343072 20.2414 0.0851339C23.5851 0.170635 26.0652 2.94454 26.4111 6.10418ZM14.2629 21.3763V13.2178L16.7575 13.2145L17.0492 9.86756L14.4718 9.86429L14.4764 8.46624C14.524 8.0668 14.7779 7.76853 15.1878 7.77375L16.9872 7.76657L16.9852 4.98548L14.3504 4.98875C13.8792 4.98875 13.4327 5.07359 12.9876 5.20674C11.6222 5.68581 10.931 6.98661 10.9199 8.37422L10.9082 9.8656L9.44687 9.86821V13.2152L11.1223 13.2191V21.3822L14.2629 21.3763Z" fill="url(#paint0_linear_2730_865)"/>
<defs>
<linearGradient id="paint0_linear_2730_865" x1="31.7056" y1="26" x2="-9.29443" y2="-10.5" gradientUnits="userSpaceOnUse">
<stop stop-color="#0097F2"/>
<stop offset="1" stop-color="white"/>
</linearGradient>
</defs>
</svg>
