<svg width="27" height="27" viewBox="0 0 27 27" fill="none" xmlns="http://www.w3.org/2000/svg">
<path d="M20.2183 0.0853249C15.5406 -0.0343505 10.8753 -0.0212825 6.16535 0.0818859C2.97332 0.151353 0.158195 2.97886 0.0839135 6.16126C-0.0261329 10.9091 -0.0302596 15.4829 0.0852891 20.2603C0.160258 23.3312 2.9403 26.3809 6.09726 26.3809H20.3056C23.5685 26.0322 26.0315 23.5692 26.3802 20.3063V6.0973C26.0349 2.94172 23.5575 0.170611 20.2176 0.0853249H20.2183ZM8.9736 20.8635C8.9736 21.2087 8.71705 21.3992 8.43162 21.4295L6.05599 21.4281C5.73755 21.4281 5.48581 21.1895 5.4865 20.8545V10.9125C5.48719 10.5913 5.76093 10.3671 6.05462 10.3678L8.43299 10.3698C8.73287 10.3698 8.97497 10.6264 8.97497 10.9331V20.8641L8.9736 20.8635ZM7.57326 9.39525C6.36412 9.58301 5.21345 8.76386 5.01055 7.54165C4.81178 6.3449 5.60549 5.15227 6.88065 4.95281C8.1455 4.75473 9.25628 5.62135 9.44955 6.81397C9.64969 8.04787 8.80371 9.20404 7.57394 9.39525H7.57326ZM20.8641 21.4213L18.3324 21.4226C18.0455 21.4226 17.8 21.2149 17.8 20.9102L17.7973 15.4602C17.7973 15.0276 17.7016 14.6059 17.5565 14.2194C17.3206 13.5915 16.7731 13.2386 16.1163 13.2029C15.4326 13.1657 14.804 13.4381 14.4553 14.0763C14.2125 14.52 14.0344 15.0214 14.033 15.5317L14.024 20.9123C14.024 21.1847 13.8067 21.4261 13.5336 21.4268L11.059 21.4281C10.7784 21.4281 10.5452 21.2025 10.5452 20.9061V10.8644C10.5452 10.5755 10.7962 10.3705 11.0576 10.3705L13.4876 10.3685C13.753 10.3685 14.011 10.539 14.022 10.8231L14.0564 11.6966C14.5523 11.0067 15.1699 10.5425 15.9849 10.3527C16.855 10.1504 17.7512 10.1415 18.6198 10.3602C21.0388 10.9682 21.3689 13.5399 21.371 15.6548L21.3751 20.9109C21.3751 21.1957 21.1385 21.4206 20.8641 21.4206V21.4213Z" fill="url(#paint0_linear_2730_864)"/>
<defs>
<linearGradient id="paint0_linear_2730_864" x1="30" y1="26" x2="-2.5" y2="-8" gradientUnits="userSpaceOnUse">
<stop stop-color="#0097F2"/>
<stop offset="1" stop-color="white"/>
</linearGradient>
</defs>
</svg>
