<svg width="76" height="53" viewBox="0 0 76 53" fill="none" xmlns="http://www.w3.org/2000/svg">
<path fill-rule="evenodd" clip-rule="evenodd" d="M40.6957 32.4634L46.2875 42.1381L66.7241 6.72346L62.841 4.4823L73.7139 0L75.2671 11.6717L71.384 9.43058C63.0185 23.9204 54.653 38.4102 46.2875 52.9L37.6114 37.8555L40.7179 32.4856L40.6957 32.4634ZM3.10655 12.1821L0 6.79003H25.8731L35.2593 23.055L32.1527 28.4249L22.7665 12.1821H3.08435H3.10655Z" fill="#00BDD6"/>
<path fill-rule="evenodd" clip-rule="evenodd" d="M26.605 42.1158C30.9763 34.5492 35.3477 26.9603 39.719 19.3937L43.4913 12.8699L39.6081 10.6288L50.481 6.14648L52.0343 17.8182L48.1511 15.5771C40.9616 28.0254 33.7944 40.4516 26.605 52.9L4.28223 14.2457H10.4731L26.605 42.1602V42.1158Z" fill="#032638"/>
</svg>
