<svg width="55" height="53" viewBox="0 0 55 53" fill="none" xmlns="http://www.w3.org/2000/svg">
<path d="M37.6926 10.0824C37.6371 10.0407 37.5816 9.99909 37.5122 9.95745C33.89 7.86188 24.5779 2.4911 20.9558 0.395523C20.0537 -0.131841 18.9296 -0.131841 18.0275 0.395523C14.4053 2.4911 5.09322 7.86188 1.47106 9.95745C0.568994 10.4848 0 11.4563 0 12.4971V31.621C0 32.6757 0.555116 33.6333 1.47106 34.1607C4.13564 35.7011 9.86725 39.0041 14.1555 41.4882C14.0862 41.169 14.0445 40.8499 14.0445 40.5168V30.1638C12.3792 29.2062 10.8109 28.3041 10.1309 27.9017C9.90888 27.7768 9.77009 27.527 9.77009 27.2633V16.8548C9.77009 16.5911 9.90888 16.3552 10.1309 16.2164C11.6714 15.3282 17.5973 11.9004 19.1377 11.0122C19.3598 10.8873 19.6512 10.8873 19.8733 11.0122C20.7476 11.5118 23.0375 12.8441 25.1469 14.0515C26.7429 14.9674 28.2278 15.8278 28.894 16.2164C29.116 16.3413 29.2548 16.5911 29.2548 16.8548V27.2633C29.2548 27.527 29.116 27.7629 28.894 27.9017C28.4221 28.1792 27.52 28.6927 26.4792 29.3034V35.8121L30.5871 38.1853C33.3627 36.5893 35.9856 35.0766 37.5399 34.1745C38.442 33.6472 39.011 32.6757 39.011 31.6349V12.511C39.011 11.5395 38.5253 10.6375 37.7204 10.0962L37.6926 10.0824Z" fill="#00B67D"/>
<path d="M52.8749 18.853C50.2103 17.3125 44.4787 14.0095 40.1904 11.5254C40.2598 11.8446 40.3014 12.1638 40.3014 12.4968V22.8498C41.9668 23.8074 43.535 24.7095 44.215 25.1119C44.4371 25.2368 44.5759 25.4866 44.5759 25.7503V36.1588C44.5759 36.4225 44.4371 36.6584 44.215 36.7972C42.6746 37.6854 36.7487 41.1133 35.2082 42.0014C34.9862 42.1263 34.6947 42.1263 34.4727 42.0014C33.5984 41.5018 31.3085 40.1696 29.1991 38.9622C27.6031 38.0462 26.1181 37.1858 25.452 36.7972C25.23 36.6723 25.0912 36.4225 25.0912 36.1588V25.7503C25.0912 25.4866 25.23 25.2507 25.452 25.1119C25.9239 24.8344 26.8259 24.3209 27.8668 23.7103V17.2015L23.7589 14.8284C20.9833 16.4243 18.3604 17.937 16.806 18.8391C15.904 19.3665 15.335 20.3379 15.335 21.3788V40.5026C15.335 41.4741 15.8207 42.3761 16.6256 42.9174C16.6811 42.959 16.7366 43.0007 16.806 43.0423C20.4282 45.1379 29.7403 50.5086 33.3625 52.6042C34.2645 53.1316 35.3886 53.1316 36.2907 52.6042C39.9129 50.5086 49.225 45.1379 52.8471 43.0423C53.7492 42.5149 54.3182 41.5435 54.3182 40.5026V21.3788C54.3182 20.324 53.7631 19.3665 52.8471 18.8391L52.8749 18.853Z" fill="#032638"/>
</svg>
