<svg width="53" height="53" viewBox="0 0 53 53" fill="none" xmlns="http://www.w3.org/2000/svg">
<path d="M45.8506 46.0502C44.7089 45.3938 40.2851 42.8394 39.1435 42.1687C38.9723 42.0688 38.7725 42.0688 38.6012 42.1687C37.4596 42.8251 33.0358 45.3795 31.8942 46.0502C31.7229 46.1501 31.623 46.3213 31.623 46.5211V52.9856H46.136V46.5211C46.136 46.3213 46.0361 46.1501 45.8648 46.0502H45.8506Z" fill="#00B67D"/>
<path d="M25.444 41.384C28.1411 39.8285 35.0765 35.8185 37.7736 34.2631C38.4443 33.8778 39.2862 33.8778 39.9569 34.2631C42.654 35.8185 49.5894 39.8285 52.2865 41.384C52.5005 41.5124 52.6861 41.6551 52.843 41.8406V38.1731C52.6861 38.2017 52.5291 38.1731 52.3864 38.1018L26.0862 22.9182C25.7579 22.7326 25.9435 22.2332 26.3145 22.3045L45.5652 26.0148C45.8934 26.0719 46.2216 25.8864 46.3215 25.5724L52.7431 7.04954C52.7717 6.97819 52.8002 6.93538 52.8573 6.89257V4.10986C52.8573 1.84088 51.0164 0 48.7475 0H4.10985C1.84087 0 0 1.84088 0 4.10986V48.8759C0 51.1449 1.84087 52.9857 4.10985 52.9857H5.37992L20.4494 44.2808C20.8918 44.024 21.4483 44.3522 21.4483 44.8659V52.9857H24.3452V43.2819C24.3452 42.497 24.759 41.7835 25.444 41.384ZM8.66209 47.7343C8.33388 47.9198 7.99139 47.5059 8.23398 47.2205L21.063 32.4079C21.2771 32.1511 21.2771 31.78 21.063 31.5374L8.23398 16.7248C7.99139 16.4394 8.33388 16.0256 8.66209 16.2111L34.9623 31.3947C35.4047 31.6516 35.4047 32.2938 34.9623 32.5506L8.66209 47.7343Z" fill="#00B67D"/>
<path d="M31.6085 46.5212C31.6085 46.3214 31.7084 46.1502 31.8797 46.0503C33.0213 45.3938 37.4451 42.8395 38.5867 42.1688C38.758 42.0689 38.9578 42.0689 39.129 42.1688C40.2706 42.8252 44.6944 45.3796 45.8361 46.0503C46.0073 46.1502 46.1072 46.3214 46.1072 46.5212V52.9857H48.7044C50.9734 52.9857 52.8143 51.1448 52.8143 48.8758V41.8548C52.6573 41.6836 52.4718 41.5266 52.2577 41.3982C49.5606 39.8427 42.6252 35.8327 39.9281 34.2773C39.2574 33.892 38.4155 33.892 37.7448 34.2773C35.0477 35.8327 28.1123 39.8427 25.4152 41.3982C24.7445 41.7835 24.3164 42.5112 24.3164 43.2961V52.9999H31.58V46.5355L31.6085 46.5212Z" fill="#2C3340"/>
<path d="M5.8793 7.6922C6.99056 7.6922 7.89141 6.79135 7.89141 5.68009C7.89141 4.56882 6.99056 3.66797 5.8793 3.66797C4.76804 3.66797 3.86719 4.56882 3.86719 5.68009C3.86719 6.79135 4.76804 7.6922 5.8793 7.6922Z" fill="#2C3340"/>
<path d="M11.9018 7.6922C13.013 7.6922 13.9139 6.79135 13.9139 5.68009C13.9139 4.56882 13.013 3.66797 11.9018 3.66797C10.7905 3.66797 9.88965 4.56882 9.88965 5.68009C9.88965 6.79135 10.7905 7.6922 11.9018 7.6922Z" fill="white"/>
<path d="M17.9233 7.6922C19.0345 7.6922 19.9354 6.79135 19.9354 5.68009C19.9354 4.56882 19.0345 3.66797 17.9233 3.66797C16.812 3.66797 15.9111 4.56882 15.9111 5.68009C15.9111 6.79135 16.812 7.6922 17.9233 7.6922Z" fill="white"/>
</svg>
