<svg width="53" height="53" viewBox="0 0 53 53" fill="none" xmlns="http://www.w3.org/2000/svg">
<path fill-rule="evenodd" clip-rule="evenodd" d="M42.7 12.6933C35.2356 3.76031 21.7755 2.63155 12.6847 10.2537C3.77601 17.888 2.63511 31.2025 10.0995 40.2932C17.7216 49.2262 31.024 50.355 40.1147 42.8906C49.1934 35.2684 50.3221 21.784 42.7 12.6933Z" fill="white"/>
<path d="M30.2109 12.8633C30.0532 12.8633 30.0532 12.8633 30.2109 12.8633C30.2109 13.191 30.2109 13.5066 30.2109 13.6765C30.2109 14.162 30.2109 14.6474 30.2109 15.3029C35.2357 16.9292 38.6463 21.4685 38.6463 26.8332C38.6463 33.4844 33.2938 39.0068 26.4848 39.0068C19.8336 39.0068 14.3234 33.6543 14.3234 26.8332C14.3234 21.3108 17.8917 16.7715 22.9165 15.3029C22.9165 14.4897 22.9165 13.6765 22.9165 13.0332V12.8633C16.593 14.4897 11.8838 20.1699 11.8838 26.821C11.8838 34.7709 18.3772 41.2643 26.327 41.2643C34.2769 41.2643 40.7703 34.7709 40.7703 26.821C40.9159 20.3277 36.5344 14.4897 30.2109 12.8633Z" fill="#001B2F"/>
<path d="M26.642 9.125C26.1565 9.125 25.671 9.125 25.1855 9.28278V24.8791C25.1855 25.0369 25.3433 25.3646 25.5133 25.3646H27.6251C27.7829 25.3646 27.9528 25.2068 27.9528 24.8791V9.29492C27.4552 9.29492 26.9697 9.125 26.642 9.125Z" fill="#242424"/>
<path fill-rule="evenodd" clip-rule="evenodd" d="M46.754 9.45332C37.3477 -1.74931 20.647 -3.20577 9.44433 6.21269C-1.74615 15.6311 -3.20262 32.3441 6.2037 43.5467C15.61 54.7493 32.3229 56.2058 43.5134 46.7873C54.7039 37.3689 56.1725 20.6559 46.754 9.45332ZM11.2285 39.3229C4.90502 31.6887 5.06281 20.8137 11.3863 13.5071L15.7799 18.7019L32.3229 38.352L36.7045 43.5467C28.4269 48.5715 17.5641 46.9451 11.2285 39.3229ZM41.5715 39.4807L37.1899 34.286L20.647 14.648L16.2654 9.45332C24.543 4.5863 35.248 6.21269 41.7292 13.6771C48.0527 21.2992 47.8949 32.1741 41.5715 39.4807Z" fill="#359CF3"/>
</svg>
