<svg width="53" height="53" viewBox="0 0 53 53" fill="none" xmlns="http://www.w3.org/2000/svg">
<path d="M26.5 53C41.1355 53 53 41.1355 53 26.5C53 11.8645 41.1355 0 26.5 0C11.8645 0 0 11.8645 0 26.5C0 41.1355 11.8645 53 26.5 53Z" fill="#032638"/>
<path fill-rule="evenodd" clip-rule="evenodd" d="M11.9324 31.9386H4.19531L8.79117 30.6105L8.24305 30.1888L8.53819 28.9239L9.38146 28.7974L6.97813 27.9542L9.73986 27.7855L5.96619 26.6682L8.74901 26.4995L9.08632 26.0357H11.1945L6.55649 24.7075H10.0772L6.1981 23.4848H9.27605L9.4658 22.7469H11.3842L5.03859 20.7441H14.673L15.7271 26.1411L18.2148 20.7441H23.3588L21.862 31.9386L26.9849 20.7441H33.2462L35.249 31.9386H31.3488L31.0115 29.8305H26.8162L25.8465 31.9386H17.8142L18.7208 25.8249L16.0434 31.3273H13.9773L12.9022 25.5508L11.9324 31.9386Z" fill="white"/>
<path fill-rule="evenodd" clip-rule="evenodd" d="M35.7343 23.3789H40.6253L41.5529 24.7492L42.86 23.3789H47.8353L43.7243 27.7007L46.7391 31.9382H41.7848L40.7729 30.4203L39.4236 31.9382H34.5537L38.7069 27.4266L35.7343 23.3789Z" fill="#DCFC00"/>
<path fill-rule="evenodd" clip-rule="evenodd" d="M27.9336 27.1746H30.5688L29.8942 23.0215L27.9336 27.1746Z" fill="#032638"/>
</svg>
