<svg width="157" height="24" viewBox="0 0 157 24" fill="none" xmlns="http://www.w3.org/2000/svg">
<path d="M45.3406 22.3356C44.6393 22.8775 44.2355 22.495 44.1824 23.175H3.16651C3.16651 22.8137 2.9965 22.7287 2.72022 22.6119C1.78515 22.2293 0.998832 21.4324 0.584423 20.5186C0.170014 19.6047 0.403783 19.9979 0 20.0191V3.14526C0.340028 3.17714 0.43566 3.039 0.541919 2.77335C0.945702 1.75327 1.81702 0.903198 2.83711 0.510041C3.85719 0.116883 3.23027 0.329402 3.26214 0H44.2674C44.3524 0.711934 44.6499 0.233769 45.5425 1.00946C45.8294 1.25385 46.1375 1.50887 46.3607 1.81703C46.5838 2.12518 46.8176 2.40145 46.977 2.74147C47.2426 3.28339 47.5083 3.97408 47.5083 4.63288V18.5634C47.5083 19.3072 47.2001 20.0935 46.8601 20.6567C46.5201 21.2199 45.9782 21.8574 45.3406 22.3568V22.3356ZM12.5598 19.2328C13.4205 19.1903 13.6117 18.8291 14.7275 18.6378C15.8432 18.4465 15.2694 18.3296 15.4925 18.1065C15.9494 17.6496 16.0769 17.2033 16.162 16.5551C16.2788 15.6413 16.4276 14.6743 16.6507 13.7818C16.7783 13.2717 16.7358 12.9423 16.6826 12.4429C16.5445 11.2847 16.6826 10.1052 16.6189 8.92573C16.5764 8.26693 16.2895 7.40623 16.1832 6.3224C16.1088 5.45107 15.6732 4.77102 14.9825 4.28223C14.2918 3.79344 14.1643 3.88907 13.6542 3.82531L11.6885 3.57029C10.7959 3.45341 9.88206 3.45341 8.98949 3.57029L7.0237 3.82531C6.51366 3.88907 6.10988 3.97408 5.69547 4.28223C4.87728 4.90915 4.66476 5.06854 4.50537 6.08862L4.06971 8.8726L4.01658 10.6153C3.97408 12.0391 3.96345 12.9848 4.16534 14.4193L4.50537 16.8951C4.56913 17.3627 4.82415 17.6815 5.07917 18.0215C5.33419 18.3615 5.73797 18.574 6.24801 18.744C7.12996 19.0522 7.95878 19.2647 8.91511 19.2966C9.87144 19.3285 10.6684 19.3391 11.5397 19.2966L12.5704 19.2435L12.5598 19.2328ZM35.0441 19.2222L35.9155 19.286C36.8824 19.3603 37.8387 19.3285 38.8057 19.286L40.0277 19.2222C40.4633 19.201 40.899 18.9353 41.3134 18.8397C41.9297 18.7015 42.3972 18.5209 42.801 18.0427C43.2048 17.5646 43.1623 17.6177 43.2154 17.3414C43.4704 16.1407 43.8424 15.2588 43.8636 14.1112C43.9061 12.2835 43.9167 10.4771 43.8636 8.64946C43.8317 7.67188 43.5767 6.77931 43.3536 5.87611C43.1835 5.1748 42.886 4.70726 42.291 4.29285C41.6959 3.87844 41.3878 3.91032 40.814 3.83594L38.8694 3.57029C38.1894 3.47466 35.8623 3.51716 35.0973 3.70843C34.3322 3.8997 34.396 3.89969 34.0559 3.85719C33.5459 3.79344 33.2802 4.10159 32.9083 4.30348C32.4939 4.53725 32.292 4.78164 32.0583 5.1748C31.8245 5.56796 31.6332 6.19489 31.5907 6.82181L31.3888 9.32952L31.3251 10.3071C31.2719 11.189 31.2613 12.071 31.3251 12.9423L31.3888 13.8349L31.527 14.8868C31.7182 16.3638 31.4207 16.5657 32.1114 17.6815C32.5045 18.3084 32.9402 18.6697 33.6946 18.8078C34.1091 18.8822 34.566 19.1903 35.0441 19.2222ZM18.5209 15.7688L24.8114 15.79C25.5021 15.79 25.789 16.4595 25.704 17.0014C25.619 17.5433 25.6402 18.1384 25.704 18.6909C25.7677 19.2435 25.9696 19.2435 26.2884 19.2435H27.9142C28.8174 19.2435 28.5517 17.4796 28.5092 16.6932C28.4667 15.9069 28.9661 15.79 29.4443 15.8644C29.9012 15.9282 30.3369 15.6094 30.3369 15.1419V14.143C30.3369 13.9836 30.2094 13.718 30.0925 13.633C29.6143 13.3142 29.2105 13.973 28.5623 13.1123V4.59038C28.5623 4.21847 28.4455 3.97408 28.2011 3.77219C27.9567 3.57029 27.6591 3.67655 27.3297 3.68718L24.3758 3.72968C23.7276 3.72968 23.4301 4.34598 23.1113 4.78164L22.4206 5.7061L21.7937 6.52429L21.1774 7.36373C20.9755 7.64 20.763 7.91628 20.5504 8.18192L19.8173 9.06387C19.6047 9.31889 19.4241 9.58454 19.2328 9.85019L18.6378 10.7003L17.9577 11.5397C17.4477 12.1666 17.097 12.8998 17.2564 13.718C17.4158 14.5362 17.0439 14.5681 17.3839 15.3438C17.724 16.1195 18.0427 15.9601 18.5422 15.7688H18.5209Z" fill="white"/>
<path d="M137.775 20.4343C137.084 20.4343 136.532 20.4768 135.947 20.4024C135.108 20.2962 134.406 18.596 134.173 18.2454L133.726 17.5972C133.503 17.2678 133.376 16.9384 133.163 16.6196L132.441 15.4933L131.845 14.5582L130.794 12.8262L130.209 11.8911L129.476 10.6904L128.86 9.69156L128.36 8.90524C127.691 7.84265 127.691 7.03509 127.032 7.23698C126.373 7.43887 126.883 7.63014 126.883 7.91703V18.9679C127.043 19.4567 126.989 20.0305 126.522 20.3068C126.054 20.5831 125.651 20.4874 125.342 20.3706C125.034 20.2537 124.79 19.988 124.79 19.7649V6.02563C124.673 5.55809 124.662 5.10118 124.949 4.68677C125.236 4.27236 125.502 4.38924 125.746 4.38924H127.595C127.776 4.50613 128.105 4.7399 128.211 4.89929L128.891 5.92999L129.572 7.02446L130.177 8.02329L130.794 9.02213L131.559 10.276L132.111 11.1685L132.791 12.2736L133.322 13.0918L134.034 14.3244L134.746 15.4614L135.341 16.4709C135.565 16.8428 136.043 17.7672 136.446 17.9054C136.85 18.0435 136.733 17.7353 136.733 17.6397V5.51559C136.638 5.16493 136.627 4.66552 136.978 4.46362C137.328 4.26173 137.753 4.35737 138.051 4.42112C138.349 4.48488 138.593 4.81428 138.593 5.18618V19.733C138.593 20.0837 138.051 20.3918 137.764 20.3918L137.775 20.4343Z" fill="white"/>
<path d="M154.022 17.6815C154.277 16.7145 154.383 15.7582 154.404 14.8125C154.425 13.8455 153.182 14.0262 152.619 14.058C152.056 14.0899 149.708 14.2174 149.346 13.8455C148.985 13.4736 149.155 13.4205 149.144 13.1973C149.123 12.7404 149.399 12.3154 149.899 12.3154H155.605C155.754 12.3154 155.987 12.3791 156.179 12.411V18.1809C155.392 18.2021 156.019 18.6803 155.148 19.4879C154.277 20.2954 154.394 19.9129 153.926 20.0723C153.459 20.2317 152.662 20.4973 151.95 20.5079C150.728 20.5398 149.516 20.5929 148.284 20.5079L147.306 20.4442C146.775 20.4123 146.286 20.1785 145.787 20.051C144.724 19.7641 144.15 19.286 143.704 18.3084C143.385 17.6177 143.162 16.9589 143.183 16.1726C143.247 14.0155 143.024 12.6448 143.151 10.4984C143.194 9.76518 143.205 9.03199 143.183 8.29881C143.162 7.64 143.364 7.14059 143.651 6.58804C143.938 6.03549 144.012 5.8336 144.384 5.54671C144.756 5.25981 145.447 4.89853 146.095 4.73914C146.743 4.57975 147.221 4.39911 147.806 4.37786C149.293 4.33536 151.397 4.32473 152.863 4.46287C154.33 4.601 154.064 4.76039 154.606 4.94103C155.711 5.29168 155.52 6.19488 156.168 6.13113V9.08512C155.647 9.10637 155.106 9.12763 154.585 9.05324C153.777 8.93636 154.585 7.0237 153.554 6.57741C152.077 5.93986 149.293 5.7486 147.795 6.1205C146.552 6.42865 145.925 6.30114 145.34 7.33185C145.16 8.20317 145.022 9.09575 144.979 9.96707L144.915 11.2634C144.852 12.411 144.862 13.548 144.926 14.685C144.99 15.8219 145.085 16.0451 145.192 16.7464C145.351 17.8833 145.563 18.064 146.924 18.489C148.284 18.9141 148.22 18.7547 148.921 18.7547H149.739L150.94 18.7865C151.801 18.7972 153.522 18.574 154.022 17.6708V17.6815Z" fill="white"/>
<path d="M90.9466 20.5085C90.6597 20.5085 90.2028 20.4766 89.9797 20.3916L88.5664 19.8816C87.6738 19.5628 87.2276 18.7871 87.0575 17.9158C86.8875 17.0445 86.6962 16.6194 86.8238 15.9713C86.9513 15.3231 87.3019 15.1425 87.8545 15.1956C88.407 15.2487 88.5452 15.27 88.7471 15.5144C89.2358 16.12 88.7789 17.2783 89.0977 17.7352C89.5546 18.394 90.3622 18.7127 91.1485 18.734L92.3492 18.7659L93.4968 18.7871C94.4531 18.7978 95.877 18.6809 96.5464 17.9371C97.1096 17.3101 97.0034 16.3963 97.0459 15.61C97.0884 14.7387 96.8121 13.8886 95.9726 13.5167C95.6645 13.3786 95.2076 13.4529 94.8569 13.4211L93.7306 13.3254L91.5523 13.1448C90.8297 13.081 90.139 12.7729 89.3846 12.8685C88.492 12.231 87.7907 12.0184 87.3232 10.9134C86.76 9.56387 86.845 7.74684 87.3232 6.38673C87.6526 5.47291 88.5027 4.92036 89.3952 4.69722C90.2878 4.47407 90.4472 4.37844 90.9997 4.36782C92.2855 4.32531 93.5393 4.32531 94.825 4.36782C95.3988 4.38907 95.9408 4.58033 96.4721 4.70784C97.3646 4.93098 98.0659 5.52604 98.2147 6.45049C98.6822 6.9074 98.7991 8.55441 98.4804 8.77755C98.0447 9.0857 97.3221 9.14946 96.8971 8.82006C96.0895 8.20375 97.269 6.9074 95.367 6.31235C93.4649 5.7173 94.5063 5.99357 94.0175 5.97232C91.8392 5.87669 92.0942 5.94044 90.1072 6.38673C89.544 6.51424 89.0233 6.96053 88.9808 7.58745C88.9277 8.38439 88.9383 9.14946 88.9808 9.9889C89.0233 10.8283 89.3527 10.669 89.5865 10.7752C90.2984 11.0727 91.021 11.3171 91.7861 11.3384L94.2406 11.3915C94.9844 11.4021 95.6645 11.5722 96.387 11.7209C97.1096 11.8697 97.0565 11.8059 97.3434 11.9759C97.8003 12.2522 98.1191 12.571 98.4591 12.996C98.7991 13.4211 98.6504 13.7186 98.7247 14.0905C98.9479 15.2593 98.8841 16.3963 98.746 17.5545C98.6822 18.1283 98.5654 18.5002 98.2572 18.9571C97.8216 19.6159 97.3328 19.956 96.5146 20.0941C96.1427 20.1579 95.7495 20.4873 95.3138 20.4554C94.8782 20.4235 94.6975 20.5085 94.4106 20.5085H90.9041H90.9466Z" fill="white"/>
<path d="M81.2562 19.8916C80.3212 20.1254 79.9811 20.391 79.2267 20.4336L78.2491 20.4973C77.0165 20.5823 75.8052 20.5292 74.5832 20.4973C73.3612 20.4654 73.3718 20.1998 72.7555 20.051L71.9692 19.8598C70.4179 19.4772 69.9609 16.5764 69.9609 15.2162V7.81001L70.5347 6.52428C70.9279 5.65296 71.7248 5.14292 72.5962 4.8879C73.1168 4.73913 73.6162 4.50536 74.1475 4.44161C75.2739 4.30347 78.3554 4.29285 79.4711 4.44161C80.5868 4.59037 80.6293 4.78164 81.2031 4.94103C82.4782 5.31293 82.8926 6.27989 83.137 7.53374C83.2433 8.07566 83.4027 8.6282 83.4027 9.202V15.1844C83.4027 15.4606 83.3814 15.8113 83.3283 16.0769L83.0308 17.7665C82.9033 18.5103 82.4676 19.0841 81.8832 19.5304C81.2987 19.9766 81.5006 19.8173 81.2669 19.8704L81.2562 19.8916ZM79.9705 18.4465C80.5762 18.3296 81.3519 17.5964 81.3731 16.7676L81.4475 14.4299C81.5006 12.6448 81.5963 10.8809 81.4688 9.09574L81.3944 8.12879C81.3519 7.61875 81.1606 7.25747 80.8525 6.90681C80.5443 6.55616 80.4274 6.4499 80.0555 6.4074C79.6836 6.36489 79.1417 6.21613 78.6635 6.1205C77.314 5.85485 75.9221 5.8761 74.5726 6.1205C73.2231 6.36489 73.8394 6.30114 73.51 6.34364C72.5537 6.46053 72.2349 7.15121 72.1286 8.05441L71.8311 10.4559L71.8098 12.3366C71.8098 13.1017 71.7673 13.8668 71.8523 14.6212L72.1392 17.0651C72.2242 17.7558 72.6068 18.2234 73.3187 18.4146C74.5832 18.7759 74.9338 18.7547 76.2515 18.7759L77.399 18.7972C78.3979 18.8078 79.0248 18.6484 80.0024 18.4571L79.9705 18.4465Z" fill="white"/>
<path d="M65.6568 19.7426C65.6568 20.3058 65.0405 20.4971 64.658 20.5077C64.2754 20.5183 63.6698 20.1995 63.6698 19.7214L63.6273 13.7071C63.6273 12.9421 62.8303 12.9846 62.3097 12.9952L55.9129 13.0377C55.541 12.8358 54.7972 13.0377 54.7972 13.5265L54.7653 19.7107C54.7653 20.2739 54.2871 20.4758 53.7877 20.4758C53.3733 20.4758 52.6826 20.2952 52.6826 19.7107V5.23829C52.6826 5.00453 52.7889 4.71763 52.9164 4.622C53.4158 4.23946 54.744 4.38823 54.7547 5.01515L54.7865 10.785C54.7865 11.295 55.4135 11.5607 55.8385 11.3588H63.0003C63.2979 11.3588 63.6485 10.9975 63.6485 10.7106V5.15329C63.6591 4.63262 64.2754 4.38823 64.6899 4.40948C65.1043 4.43073 65.5293 4.46261 65.6674 4.86639V19.7532L65.6568 19.7426Z" fill="white"/>
<path d="M108.075 20.465C107.449 20.4969 107.066 20.2844 106.896 19.6787V6.84262C106.896 6.2582 105.345 6.40696 105.355 6.40696L102.529 6.43884C101.753 6.43884 101.87 5.44 101.923 4.91934C101.944 4.67494 102.189 4.41992 102.465 4.41992H113.346C113.824 4.41992 114.005 4.91934 114.026 5.30187C114.047 5.6844 113.835 6.40696 113.282 6.40696L110.137 6.42821C109.882 6.26882 109.032 6.32195 109.032 6.77886L109.011 19.6893C109.011 20.2312 108.564 20.4331 108.097 20.4544L108.075 20.465Z" fill="white"/>
<path d="M119.796 19.6576C119.796 20.2951 119.106 20.4651 118.681 20.4651C118.075 20.4651 117.735 20.1995 117.618 19.5938V5.34452C117.618 5.10012 117.778 4.78135 117.905 4.64321C118.213 4.30318 119.467 4.20755 119.807 4.99386V19.6576H119.796Z" fill="white"/>
<path d="M9.66979 16.7571C8.76659 16.6296 8.05465 17.0971 7.15145 15.8008C6.24825 14.5044 7.03457 15.1526 7.02394 14.8869L6.96019 13.7606L6.87518 12.2305C6.8433 11.5823 6.8433 10.9341 6.87518 10.2859L6.96019 8.67079L7.04519 7.58695C7.0877 7.05566 7.34272 6.64125 7.82089 6.4181C8.90472 5.91869 8.37343 5.96119 9.98856 5.86556C11.6037 5.76993 12.0287 5.96119 12.9213 6.47123C13.8139 6.98127 13.5695 7.2363 13.5482 7.81009C13.527 8.38389 13.6651 8.69204 13.6757 9.11707C13.7076 10.5622 13.7076 11.9648 13.6757 13.4099C13.6439 14.8551 13.5164 14.3556 13.5482 14.7913C13.5907 15.4501 13.4313 15.907 12.8788 16.2683C12.3263 16.6296 12.39 16.7252 12.1031 16.7358L10.9661 16.7783C10.5092 16.7996 10.1054 16.8315 9.65916 16.7783L9.66979 16.7571Z" fill="white"/>
<path d="M40.0704 16.3744C39.7198 16.6613 39.4116 16.7357 38.9547 16.7463L37.3608 16.7782C36.9783 16.7782 36.5214 16.7144 36.1495 16.7463C35.5226 16.8101 35.1613 16.555 34.7788 16.1619C34.3962 15.7687 34.1943 15.5031 34.1943 14.9612L34.2156 7.72494C34.2156 7.2574 34.6406 6.66235 34.9913 6.47108C36.3833 5.69539 37.0952 5.84415 38.636 5.93979C39.061 5.96104 39.4329 6.14168 39.8367 6.29044C40.2405 6.4392 40.4105 6.49233 40.6017 6.66235C40.9949 8.09684 41.218 11.8372 41.0374 13.1123L40.7292 15.2693C40.6549 15.7687 40.453 16.0556 40.0704 16.3744Z" fill="white"/>
<path d="M20.2001 12.635C20.4764 12.38 20.6357 12.1568 20.827 11.9018L21.4752 11.0305L22.1021 10.2123L22.729 9.36221C22.9203 9.10719 23.1222 8.84154 23.3241 8.59715L24.0892 7.6727C24.2485 7.4708 24.3973 7.29016 24.5142 7.02452C24.6311 6.75887 25.0667 6.1957 25.4493 6.32321C25.8318 6.45072 25.683 7.12015 25.683 7.49206V12.4543C25.683 12.805 25.8849 13.1875 25.4493 13.4213C25.0136 13.6551 24.3123 13.6232 23.8129 13.5382C23.3135 13.4532 23.4941 13.5913 23.3878 13.5913C22.3678 13.5913 21.2945 13.6232 20.2745 13.5701C19.2544 13.5169 19.9876 12.8581 20.2001 12.6456V12.635Z" fill="white"/>
</svg>
