<svg width="128" height="32" viewBox="0 0 128 32" fill="none" xmlns="http://www.w3.org/2000/svg">
<path fill-rule="evenodd" clip-rule="evenodd" d="M110.027 19.8869C110.515 20.1149 112.741 20.7112 115.198 20.7112C117.427 20.7112 119.427 20.2271 120.683 18.9204C121.684 17.868 122.112 16.4455 122.112 15.0529C122.112 13.8023 121.77 12.9761 121.199 12.4377C120.458 11.6975 119.315 11.4151 118.171 11.2432C116.857 10.9871 115.572 10.9292 115.544 9.73653V9.70671C115.544 9.22611 115.714 8.79814 116.086 8.48593C116.628 8.05971 117.487 7.97376 118.199 7.97376C119.713 7.97376 121.341 8.3421 121.628 8.37192C121.905 8.40875 122.09 8.39121 122.197 8.0334L122.742 6.24082C122.798 6.06367 122.758 5.80759 122.482 5.72866C121.94 5.55852 120.199 5.07617 117.913 5.07617C116.086 5.07617 113.658 5.3305 112.23 7.03713C111.429 8.00358 111.089 9.34188 111.089 10.5907C111.089 11.7852 111.431 12.5517 111.973 13.1217C112.914 14.0303 114.372 14.2285 115.43 14.4285C116.087 14.5425 116.629 14.6284 117.029 14.8266C117.431 15.0266 117.627 15.3388 117.627 15.9369C117.627 16.4192 117.457 16.9033 117.029 17.2436C116.543 17.6698 115.803 17.8119 115.002 17.8119C113.23 17.8119 111.26 17.2436 110.889 17.1594C110.831 17.1314 110.803 17.1314 110.745 17.1314C110.575 17.1314 110.459 17.2173 110.375 17.4734L109.801 19.2923C109.775 19.4063 109.775 19.4624 109.775 19.5484C109.775 19.8044 109.945 19.8325 110.031 19.8886L110.027 19.8869ZM95.8042 19.8869C96.2901 20.1149 98.5194 20.7112 100.975 20.7112C103.203 20.7112 105.202 20.2271 106.461 18.9204C107.46 17.868 107.889 16.4455 107.889 15.0529C107.889 13.8023 107.545 12.9761 106.974 12.4377C106.232 11.6975 105.088 11.4151 103.946 11.2432C102.631 10.9871 101.345 10.9292 101.319 9.73653V9.70671C101.319 9.22611 101.491 8.79814 101.861 8.48593C102.403 8.05971 103.259 7.97376 103.976 7.97376C105.488 7.97376 107.117 8.3421 107.4 8.37192C107.458 8.37192 107.486 8.39998 107.516 8.39998C107.717 8.39998 107.889 8.31579 107.945 8.11584L108.519 6.24082V6.09699C108.519 5.92861 108.461 5.78654 108.261 5.72866C107.719 5.55852 105.976 5.07617 103.69 5.07617C101.863 5.07617 99.435 5.3305 98.0037 7.03713C97.2057 8.00358 96.8619 9.34188 96.8619 10.5907C96.8619 11.7852 97.2057 12.5517 97.7477 13.1217C98.6878 14.0303 100.147 14.2285 101.205 14.4285C101.863 14.5425 102.403 14.6284 102.806 14.8266C103.204 15.0266 103.403 15.3388 103.403 15.9369C103.403 16.4192 103.232 16.9033 102.806 17.2436C102.317 17.6698 101.577 17.8119 100.775 17.8119C99.0053 17.8119 97.0338 17.2436 96.6619 17.1594C96.6041 17.1314 96.576 17.1314 96.5199 17.1314C96.348 17.1314 96.234 17.2173 96.1463 17.4734L95.5762 19.2923C95.5446 19.4063 95.5446 19.4624 95.5446 19.5484C95.5446 19.8044 95.7183 19.8325 95.8025 19.8886L95.8042 19.8869ZM87.3605 7.94745C88.876 7.94745 89.8459 8.60345 89.8459 10.1663C89.8459 12.5534 87.3044 12.2974 84.0209 12.4657C84.1314 10.2224 84.733 7.94745 87.3588 7.94745H87.3605ZM92.419 19.2625V19.1467L92.2173 17.5541C92.1612 17.2717 92.0191 17.1278 91.8174 17.1278H91.7034C90.9632 17.3278 89.3338 17.8101 87.6762 17.8101C86.5344 17.8101 85.6188 17.6681 84.9348 17.3559C84.1332 16.9595 83.7613 16.3035 83.7613 15.337V14.8827H84.1069C90.0459 14.7968 94.0187 14.5986 94.0187 9.90842C94.0187 6.04087 91.3894 5.07793 87.6482 5.07793C85.2487 5.07793 82.9615 5.64447 81.6215 7.29322C80.5357 8.63151 79.5062 11.473 79.5062 14.5986C79.5062 18.5784 81.3619 20.7393 86.2783 20.7393C88.2182 20.7393 90.1915 20.485 92.0489 19.8009C92.2471 19.715 92.419 19.5448 92.419 19.2625ZM78.0679 19.943C78.0679 19.9167 78.0679 19.8571 78.0398 19.8307L73.8408 12.7797L79.1817 6.12681C79.2659 6.04087 79.2659 5.93037 79.2659 5.84442C79.2659 5.64446 79.1238 5.44451 78.9835 5.44451H75.5807C75.1545 5.44451 74.9265 5.44451 74.6686 5.84442L71.4395 10.5907L68.9559 5.8146C68.784 5.44451 68.5841 5.44451 68.1263 5.44451H64.7849C64.6428 5.44451 64.385 5.70059 64.385 5.95668C64.385 6.01456 64.385 6.07068 64.4148 6.09699L68.0982 12.8078L62.1855 19.829C62.1294 19.8851 62.0978 19.9711 62.0978 20.0553C62.0978 20.1991 62.1855 20.3692 62.3556 20.3692H66.2688C66.4687 20.3692 66.6687 20.2271 66.7809 20.0851L70.5818 14.9126L73.4672 20.0851C73.525 20.2271 73.6671 20.3692 73.8653 20.3692H77.7241C77.9241 20.3692 78.0679 20.1412 78.0679 19.943ZM61.1875 5.44451H57.7882C57.3603 5.44451 57.1322 5.44451 56.8762 5.84442L53.6453 10.5925L51.1599 5.81636C50.988 5.44626 50.7898 5.44626 50.332 5.44626H46.9889C46.8451 5.44626 46.5908 5.7041 46.5908 5.95843C46.5908 6.01631 46.5908 6.07419 46.6153 6.1005L50.3022 12.8095L44.3877 19.8307C44.3299 19.8886 44.3036 19.9746 44.3036 20.057C44.3036 20.2008 44.3877 20.371 44.5596 20.371H48.4745C48.6745 20.371 48.8744 20.2271 48.9867 20.0868L52.7859 14.9143L55.6729 20.0868C55.7291 20.2289 55.8729 20.371 56.0711 20.371H59.9281C60.1263 20.371 60.2701 20.1447 60.2701 19.9448C60.2701 19.9184 60.2701 19.8588 60.2403 19.8307L56.0395 12.7797L61.3822 6.12857C61.4664 6.04262 61.4664 5.93037 61.4664 5.84617C61.4664 5.64622 61.3243 5.44626 61.1805 5.44626L61.1875 5.44451ZM33.8989 14.4863C34.3269 13.9742 34.9864 13.8619 35.6985 13.7461L38.8118 13.2638L38.2698 17.6698C37.8682 17.7821 36.9263 17.982 35.8686 17.982C35.1846 17.982 34.2988 17.9259 33.8112 17.4137C33.527 17.1296 33.3832 16.7595 33.3832 16.1895C33.3832 15.6229 33.527 14.9389 33.8971 14.4863H33.8989ZM30.3278 19.6869C31.5854 20.5972 33.5568 20.7411 35.4143 20.7411C37.0999 20.7411 38.4417 20.599 39.5274 20.3412C41.5568 19.9167 42.3847 19.5466 42.6706 17.3857L43.4704 11.0169C43.5862 10.3066 43.6704 9.51026 43.6704 8.77183C43.6704 7.5493 43.3283 6.55479 42.2426 5.90055C41.3586 5.36032 40.015 5.07617 38.0155 5.07617C34.96 5.07617 32.187 5.84442 31.531 6.09699C31.331 6.15488 31.1013 6.29695 31.1311 6.61091V6.66704L31.3012 8.62976C31.331 8.79989 31.445 8.88409 31.6169 8.88409C31.6748 8.88409 31.7327 8.85602 31.8151 8.82796C32.5869 8.65782 34.8443 8.06146 36.7035 8.06146C37.6436 8.06146 38.3031 8.14566 38.7013 8.34561C39.1012 8.54557 39.2468 8.82971 39.2468 9.25769C39.2468 9.68215 39.103 10.6486 39.103 10.6486L34.048 11.4449C32.6185 11.6449 31.0767 11.9553 30.0489 13.2077C29.3034 14.1461 28.9912 15.4528 28.9912 16.6753C28.9912 18.1539 29.5069 19.0923 30.333 19.6887L30.3278 19.6869Z" fill="white"/>
<path d="M30.242 23.89H31.14L29.8824 30.1798H28.9844L30.242 23.89ZM35.5566 25.3722C36.1021 25.3722 36.5248 25.5107 36.8282 25.7861C37.1299 26.0615 37.2825 26.4509 37.2825 26.9543C37.2825 27.1279 37.265 27.3138 37.2281 27.512L36.6984 30.1816H35.8355L36.3652 27.512C36.395 27.3507 36.4108 27.2191 36.4108 27.1174C36.4108 26.8052 36.3178 26.5666 36.1319 26.3982C35.946 26.2299 35.6706 26.1474 35.3058 26.1474C34.8392 26.1474 34.4533 26.2755 34.1516 26.5298C33.8499 26.7841 33.6465 27.163 33.5448 27.6664L33.0414 30.1816H32.1784L33.122 25.4195H33.9482L33.8307 26.0299C34.2621 25.5932 34.8374 25.3739 35.5566 25.3739V25.3722ZM40.0994 28.6609C40.0819 28.7503 40.0731 28.8345 40.0731 28.9117C40.0731 29.1029 40.1257 29.2502 40.231 29.352C40.3362 29.4537 40.4923 29.5046 40.7028 29.5046C40.9536 29.5046 41.1816 29.4291 41.3851 29.2801L41.564 29.936C41.2763 30.1342 40.908 30.2325 40.459 30.2325C40.0819 30.2325 39.7784 30.1255 39.5469 29.9132C39.3171 29.701 39.2014 29.4081 39.2014 29.038C39.2014 28.9117 39.2137 28.7924 39.2365 28.6784L39.7486 26.1264H38.94L39.0751 25.416H39.8924L40.0994 24.3741H40.9624L40.7554 25.416H42.1218L41.9779 26.1264H40.6116L40.0994 28.6609ZM43.7425 28.068V28.1224C43.7425 28.5662 43.8687 28.9029 44.1196 29.1327C44.3704 29.3625 44.7492 29.4783 45.2509 29.4783C45.5438 29.4783 45.8192 29.4291 46.077 29.3309C46.3349 29.2327 46.5506 29.0994 46.7242 28.931L47.0926 29.5502C46.8593 29.7659 46.5752 29.9343 46.2384 30.0536C45.9034 30.1728 45.5491 30.2325 45.1772 30.2325C44.7107 30.2325 44.3055 30.1483 43.9635 29.9816C43.6214 29.8133 43.3583 29.5747 43.1724 29.2625C42.9865 28.9503 42.8935 28.5855 42.8935 28.1663C42.8935 27.6331 43.0093 27.1542 43.2391 26.728C43.4688 26.3035 43.7898 25.9703 44.2002 25.73C44.6107 25.4897 45.0702 25.3704 45.5789 25.3704C46.2261 25.3704 46.7418 25.5546 47.1294 25.9229C47.5153 26.2912 47.7082 26.7929 47.7082 27.4278C47.7082 27.619 47.6872 27.8313 47.6451 28.0663H43.7354L43.7425 28.068ZM45.5491 26.0913C45.1246 26.0913 44.758 26.2106 44.4528 26.4509C44.1476 26.6912 43.9407 27.0192 43.8337 27.4384H46.9067C46.9312 27.0139 46.819 26.6824 46.5699 26.4456C46.3208 26.2088 45.9805 26.0913 45.5508 26.0913H45.5491ZM50.5585 26.1264C50.7672 25.8633 51.025 25.6703 51.332 25.5511C51.6372 25.4318 52.009 25.3722 52.4458 25.3722L52.2844 26.2088C52.23 26.2035 52.1564 26.2 52.0599 26.2C51.0706 26.2 50.4725 26.7333 50.262 27.7997L49.785 30.1816H48.922L49.8656 25.4195H50.6918L50.5567 26.1299L50.5585 26.1264ZM56.4484 25.3722C56.9939 25.3722 57.4166 25.5107 57.72 25.7861C58.0217 26.0615 58.1743 26.4509 58.1743 26.9543C58.1743 27.1279 58.1568 27.3138 58.1199 27.512L57.5902 30.1816H56.7273L57.257 27.512C57.2868 27.3507 57.3026 27.2191 57.3026 27.1174C57.3026 26.8052 57.2096 26.5666 57.0237 26.3982C56.8378 26.2299 56.5624 26.1474 56.1975 26.1474C55.731 26.1474 55.3451 26.2755 55.0434 26.5298C54.7417 26.7841 54.5383 27.163 54.4365 27.6664L53.9331 30.1816H53.0702L54.0138 25.4195H54.84L54.7224 26.0299C55.1539 25.5932 55.7292 25.3739 56.4484 25.3739V25.3722ZM60.5773 28.068V28.1224C60.5773 28.5662 60.7036 28.9029 60.9544 29.1327C61.2052 29.3625 61.5841 29.4783 62.0857 29.4783C62.3786 29.4783 62.654 29.4291 62.9118 29.3309C63.1697 29.2327 63.3854 29.0994 63.559 28.931L63.9274 29.5502C63.6941 29.7659 63.41 29.9343 63.0732 30.0536C62.7382 30.1728 62.3839 30.2325 62.0138 30.2325C61.5472 30.2325 61.142 30.1483 60.8 29.9816C60.458 29.8133 60.1949 29.5747 60.009 29.2625C59.8231 28.9503 59.7301 28.5855 59.7301 28.1663C59.7301 27.6331 59.8458 27.1542 60.0756 26.728C60.3071 26.3035 60.6264 25.9703 61.0368 25.73C61.4472 25.4897 61.9068 25.3704 62.4154 25.3704C63.0627 25.3704 63.5783 25.5546 63.966 25.9229C64.3519 26.2912 64.5448 26.7929 64.5448 27.4278C64.5448 27.619 64.5237 27.8313 64.4817 28.0663H60.5738L60.5773 28.068ZM62.3839 26.0913C61.9594 26.0913 61.5928 26.2106 61.2876 26.4509C60.9824 26.6912 60.7755 27.0192 60.6685 27.4384H63.7415C63.766 27.0139 63.6538 26.6824 63.4047 26.4456C63.1556 26.2088 62.8171 26.0913 62.3856 26.0913H62.3839ZM67.0337 28.6609C67.0162 28.7503 67.0074 28.8345 67.0074 28.9117C67.0074 29.1029 67.06 29.2502 67.1653 29.352C67.2705 29.4537 67.4266 29.5046 67.6371 29.5046C67.8879 29.5046 68.1159 29.4291 68.3194 29.2801L68.4983 29.936C68.2106 30.1342 67.8423 30.2325 67.3933 30.2325C67.0162 30.2325 66.7127 30.1255 66.4812 29.9132C66.2514 29.701 66.1357 29.4081 66.1357 29.038C66.1357 28.9117 66.1479 28.7924 66.1707 28.6784L66.6829 26.1264H65.8743L66.0094 25.416H66.8267L67.0337 24.3741H67.8967L67.6897 25.416H69.0561L68.9122 26.1264H67.5459L67.0337 28.6609ZM79.9062 25.4178L76.5281 30.7008C76.2229 31.1796 75.9317 31.5129 75.6563 31.6988C75.381 31.8847 75.0547 31.9777 74.6776 31.9777C74.4443 31.9777 74.2163 31.9409 73.9953 31.8654C73.7743 31.79 73.6024 31.6865 73.4831 31.555L73.9322 30.9165C74.1479 31.1323 74.418 31.2393 74.7407 31.2393C74.9442 31.2393 75.1249 31.1849 75.2792 31.0779C75.4353 30.9709 75.5967 30.7867 75.7651 30.5306L76.0071 30.1535L74.8565 25.4178H75.7195L76.6368 29.2274L79.0363 25.4178H79.908H79.9062ZM82.3916 30.2342C81.9426 30.2342 81.5497 30.1483 81.2147 29.9781C80.8797 29.808 80.6184 29.566 80.4324 29.2555C80.2465 28.9433 80.1536 28.5837 80.1536 28.1768C80.1536 27.6436 80.2728 27.1647 80.5131 26.7385C80.7534 26.3123 81.0849 25.979 81.5112 25.737C81.9356 25.4949 82.4162 25.3722 82.9494 25.3722C83.3984 25.3722 83.7913 25.4564 84.1263 25.6247C84.4614 25.7931 84.7209 26.0299 84.9034 26.3386C85.0858 26.6473 85.177 27.0086 85.177 27.4208C85.177 27.954 85.0577 28.4346 84.8174 28.8626C84.5771 29.2906 84.2474 29.6273 83.8247 29.8694C83.402 30.1114 82.9249 30.2325 82.3916 30.2325V30.2342ZM82.446 29.48C82.7986 29.48 83.1178 29.3941 83.4037 29.2239C83.6879 29.0538 83.9089 28.8152 84.0685 28.51C84.2263 28.2049 84.307 27.8576 84.307 27.4682C84.307 27.0437 84.1842 26.714 83.9387 26.4807C83.6931 26.2474 83.3423 26.1299 82.888 26.1299C82.5355 26.1299 82.218 26.2158 81.9356 26.386C81.655 26.5561 81.4322 26.7946 81.2708 27.0998C81.1095 27.405 81.0288 27.7523 81.0288 28.1417C81.0288 28.5609 81.1533 28.8889 81.4024 29.1257C81.6515 29.3625 82.0005 29.48 82.4495 29.48H82.446ZM91.7773 25.4178L90.8336 30.1798H90.0075L90.125 29.5695C89.9093 29.7905 89.6567 29.9571 89.3655 30.0676C89.0744 30.1781 88.7586 30.2342 88.4184 30.2342C87.8922 30.2342 87.4747 30.0939 87.1695 29.8115C86.8643 29.5291 86.7117 29.138 86.7117 28.6346C86.7129 28.4509 86.7311 28.2677 86.7661 28.0873L87.2958 25.4178H88.1588L87.6291 28.0961C87.5992 28.2575 87.5835 28.3925 87.5835 28.4995C87.5835 28.8117 87.6747 29.0485 87.8571 29.2134C88.0395 29.3783 88.3114 29.4607 88.6709 29.4607C89.127 29.4607 89.5058 29.3327 89.8075 29.0748C90.1092 28.817 90.3127 28.4399 90.4144 27.9435L90.9178 25.4178H91.7808H91.7773ZM94.6398 26.1281C94.8485 25.865 95.1063 25.6721 95.4133 25.5528C95.7185 25.4335 96.0903 25.3739 96.5271 25.3739L96.3657 26.2106C96.3113 26.2053 96.2377 26.2018 96.1412 26.2018C95.1537 26.2018 94.5538 26.735 94.3451 27.8014L93.868 30.1834H93.0051L93.9487 25.4213H94.7748L94.6398 26.1316V26.1281ZM109.856 25.4178L107.188 30.1798H106.342L105.614 26.5771L103.548 30.1798H102.722L101.815 25.4178H102.598L103.299 29.1924L105.455 25.4178H106.192L106.911 29.1924L109.04 25.4178H109.857H109.856ZM115.575 25.4178L114.632 30.1798H113.806L113.923 29.5958C113.707 29.7992 113.458 29.9571 113.172 30.0676C112.888 30.1781 112.578 30.2342 112.243 30.2342C111.836 30.2342 111.473 30.1518 111.155 29.9869C110.838 29.822 110.589 29.5835 110.41 29.273C110.231 28.9608 110.14 28.596 110.14 28.1768C110.14 27.6383 110.257 27.156 110.491 26.7297C110.724 26.3053 111.047 25.972 111.457 25.7317C111.867 25.4914 112.327 25.3722 112.836 25.3722C113.243 25.3722 113.592 25.4441 113.883 25.5879C114.167 25.7254 114.402 25.9487 114.553 26.2264L114.714 25.4178H115.577H115.575ZM112.431 29.48C112.785 29.48 113.102 29.3941 113.388 29.2239C113.672 29.0538 113.895 28.8152 114.053 28.51C114.211 28.2049 114.291 27.8576 114.291 27.4682C114.291 27.0437 114.169 26.714 113.923 26.4807C113.678 26.2474 113.327 26.1299 112.873 26.1299C112.52 26.1299 112.201 26.2158 111.92 26.386C111.639 26.5561 111.417 26.7946 111.255 27.0998C111.094 27.405 111.013 27.7523 111.013 28.1417C111.013 28.5609 111.138 28.8889 111.387 29.1257C111.636 29.3625 111.985 29.48 112.434 29.48H112.431ZM121.96 25.4178L118.582 30.7008C118.277 31.1796 117.985 31.5129 117.71 31.6988C117.435 31.8847 117.108 31.9777 116.731 31.9777C116.498 31.9777 116.27 31.9409 116.049 31.8654C115.828 31.79 115.656 31.6865 115.537 31.555L115.986 30.9165C116.202 31.1323 116.472 31.2393 116.794 31.2393C116.998 31.2393 117.179 31.1849 117.333 31.0779C117.489 30.9709 117.65 30.7867 117.819 30.5306L118.061 30.1535L116.91 25.4178H117.773L118.689 29.2274L121.088 25.4178H121.96ZM126.405 5.66607C125.675 5.66607 125.082 6.26067 125.082 6.98858C125.083 7.33919 125.222 7.6753 125.47 7.92322C125.718 8.17114 126.054 8.31062 126.405 8.31109C126.755 8.31062 127.091 8.17114 127.339 7.92322C127.587 7.6753 127.727 7.33919 127.727 6.98858C127.727 6.25892 127.132 5.66607 126.405 5.66607ZM126.106 6.90614H126.412C126.512 6.90614 126.59 6.87983 126.647 6.83072C126.703 6.77985 126.731 6.71145 126.731 6.622C126.731 6.53079 126.704 6.45887 126.654 6.40976C126.601 6.3589 126.524 6.33259 126.42 6.33259H126.106V6.90614ZM126.438 7.14644H126.106V7.80594H125.808V6.09229H126.412C126.61 6.09229 126.762 6.13614 126.869 6.22559C126.976 6.31505 127.031 6.44309 127.031 6.60972C127.031 6.72373 127.004 6.8202 126.948 6.89737C126.892 6.97455 126.817 7.03418 126.717 7.07628L127.101 7.79015V7.80594H126.782L126.438 7.14644ZM126.403 8.46544C125.589 8.46544 124.926 7.80243 124.926 6.98858C124.926 6.17473 125.589 5.51172 126.403 5.51172C126.794 5.51218 127.17 5.66793 127.447 5.94479C127.723 6.22166 127.879 6.59703 127.88 6.98858C127.88 7.80243 127.217 8.46544 126.403 8.46544Z" fill="white"/>
<path d="M24.6184 15.7731C23.0959 18.1971 20.0299 20.5913 16.6482 22.3996C13.1315 24.2799 9.23412 25.5463 6.3488 25.5656C4.65269 25.6252 3.37228 24.9359 2.39881 23.8081C1.48498 22.7522 0.862318 21.3174 0.42382 19.7792L0.360677 19.5406C-0.232172 17.171 -0.114655 12.8053 0.865826 8.84656C1.87788 4.77028 3.82656 1.06936 6.90657 0.190612L7.06969 0.146762C7.95546 -0.0742408 9.00434 -0.030391 10.0988 0.17658C11.381 0.418631 12.7421 0.881684 13.9681 1.39385C15.6906 2.11123 17.7883 3.4162 19.723 4.88955C21.6717 6.37518 23.473 8.04849 24.5745 9.47975C25.2603 10.3708 25.5655 11.439 25.5655 12.5142C25.5655 13.6578 25.2182 14.8171 24.6184 15.7713V15.7731ZM8.95172 1.52014C10.0001 2.15133 11.0029 2.85524 11.9528 3.62668C12.7158 3.46005 13.5033 3.31447 14.3172 3.19871C14.0153 3.0464 13.7082 2.90482 13.3963 2.77424C12.2475 2.2954 10.9881 1.86392 9.82346 1.64467C9.52353 1.58854 9.23236 1.54645 8.95172 1.52014ZM16.5044 4.45456C15.4152 4.53876 14.368 4.67908 13.3648 4.86149C14.3277 5.7683 15.2152 6.74001 16.0361 7.76961C16.6254 8.50979 17.1797 9.28155 17.7024 10.0814C19.8107 10.2971 21.9102 10.7479 23.9466 11.5144C23.8378 11.1127 23.6554 10.7303 23.3941 10.3901C22.3733 9.06405 20.6719 7.48897 18.8162 6.07525C18.0567 5.49643 17.2744 4.94568 16.5027 4.45281L16.5044 4.45456ZM24.0308 13.1526C22.2996 12.437 20.5105 11.9757 18.7004 11.7091C19.7142 13.4718 20.593 15.3486 21.363 17.3201C22.1821 16.5553 22.8644 15.7661 23.359 14.9803C23.7028 14.433 23.9378 13.7998 24.0325 13.1526H24.0308ZM18.8425 19.3284L16.2238 19.7424C16.5237 19.9756 16.8254 20.2037 17.1306 20.4211C17.7142 20.077 18.2852 19.7119 18.8425 19.3267V19.3284ZM15.6976 21.2192C15.1942 20.8386 14.6996 20.4387 14.2119 20.0212C12.2983 20.2703 10.3865 20.472 8.62022 20.5983L8.08174 20.6351C9.12362 21.4455 10.2672 22.226 11.5371 23.0293C12.9105 22.554 14.3277 21.9366 15.6976 21.221V21.2192ZM9.66384 23.5941C8.25714 22.6627 7.00304 21.7349 5.86119 20.7334C4.458 20.7649 3.22319 20.7228 2.25674 20.5895C2.59 21.4595 3.00394 22.2365 3.52137 22.8364C4.21069 23.6345 5.11224 24.1221 6.29969 24.08H6.32074C7.317 24.0747 8.45534 23.9028 9.6656 23.5941H9.66384ZM1.75861 18.9916C2.36198 19.1513 3.24073 19.2354 4.31593 19.2547C3.28458 18.176 2.35146 16.9938 1.48148 15.6327C1.46745 16.9412 1.56216 18.1059 1.75861 18.9916ZM1.81123 11.7091C3.22845 11.3653 4.73688 11.025 6.30846 10.7374C5.67001 9.73934 5.09119 8.75184 4.57903 7.79943C3.83324 8.16292 3.09746 8.5466 2.3725 8.95004L2.30761 9.20437C2.10239 10.0305 1.93751 10.8724 1.80947 11.7073L1.81123 11.7091ZM2.99868 6.92418L3.90023 6.47165C3.76517 6.19628 3.63713 5.92441 3.51611 5.6578C3.33018 6.06297 3.15829 6.48569 2.99868 6.92418ZM4.42818 4.00028C4.66497 4.58436 4.94035 5.20176 5.25256 5.84197C6.09097 5.47013 6.98375 5.11056 7.92915 4.77554C8.64858 4.52097 9.3763 4.29049 10.1111 4.08447C9.02715 3.2829 7.85723 2.55675 6.59261 1.91479C5.76648 2.34276 5.04734 3.07067 4.42818 3.99853V4.00028ZM5.93486 7.1715C6.50841 8.23617 7.17142 9.34645 7.90985 10.4655C9.29726 10.2515 10.725 10.0849 12.1738 9.99542C13.3753 9.92175 14.5891 9.90071 15.8046 9.94982C15.5029 9.5236 15.1889 9.10615 14.8644 8.69922C13.8717 7.45214 12.7754 6.29801 11.5599 5.24737C10.4549 5.51748 9.40952 5.83496 8.42377 6.184C7.58169 6.48241 6.7509 6.8118 5.93311 7.1715H5.93486ZM1.80246 13.2473C3.02674 15.4907 4.36153 17.2412 5.93837 18.7777C6.09447 18.9303 6.25409 19.0793 6.41545 19.2284C7.11588 19.2005 7.81581 19.1613 8.51498 19.1109C9.8638 19.0144 11.3021 18.8724 12.7614 18.6987C11.388 17.3745 10.1041 15.9274 8.93769 14.44C8.33738 13.6754 7.76121 12.8922 7.21001 12.0914C5.31044 12.4194 3.4898 12.8316 1.80421 13.2473H1.80246ZM8.84999 11.8336C9.25166 12.3984 9.67261 12.9614 10.1094 13.5174C11.4862 15.2714 13.028 16.9658 14.6855 18.4514C16.4711 18.2094 18.2426 17.927 19.8791 17.627C19.0161 15.4503 18.0146 13.3964 16.8359 11.5003C15.3082 11.3828 13.7752 11.3881 12.2615 11.4811C11.1109 11.5512 9.96904 11.674 8.84824 11.8319L8.84999 11.8336Z" fill="white"/>
</svg>
