<svg width="162" height="22" viewBox="0 0 162 22" fill="none" xmlns="http://www.w3.org/2000/svg">
<path d="M70.3072 21.0137C66.6619 21.102 63.6221 18.8947 62.8149 15.426C62.4617 13.8998 62.4743 12.3484 62.8653 10.8348C63.6852 7.71932 66.3592 5.67597 69.5756 5.47416C71.4802 5.36064 73.2082 5.78949 74.6587 7.13911V0C74.6714 0 79.1238 0 79.1238 0V20.7741L74.9362 20.7867L74.8101 19.21C73.5992 20.4713 72.1109 20.9632 70.3072 21.0011V21.0137ZM67.7845 15.7666C68.781 17.318 70.6982 17.709 72.3001 17.154C73.8767 16.6117 74.7597 15.0098 74.7723 13.2692C74.7849 11.5285 73.902 9.90141 72.3127 9.34643C70.7234 8.79144 68.781 9.20768 67.7971 10.696C66.8133 12.2096 66.7628 14.2025 67.7845 15.7792V15.7666Z" fill="white"/>
<path d="M10.0155 17.1657C12.3363 17.4558 14.3923 16.6738 15.9185 14.8827L18.8826 17.6072C17.1672 19.701 14.8716 20.6974 12.2985 21.0506C9.85152 21.3786 7.39194 20.9497 5.19723 19.8019C1.67813 17.9478 -0.176022 14.3404 0.0131766 10.405C0.202376 6.35616 2.66196 2.93797 6.50901 1.53789C9.04428 0.617125 11.7814 0.579284 14.3797 1.32347C16.1455 1.91629 17.6465 2.7866 18.87 4.30019L15.9059 7.02466C14.4554 5.33449 12.5129 4.57769 10.3561 4.72905C6.93786 4.9687 4.59179 7.65532 4.64225 11.0483C4.68009 14.189 6.76128 16.7621 10.0029 17.1531L10.0155 17.1657Z" fill="white"/>
<path d="M93.4146 16.0179L95.7733 18.5658C93.5155 21.2777 89.0252 21.4669 86.0232 20.483C82.7438 19.3983 80.7509 16.5225 80.814 13.1169C80.877 9.95097 82.6807 7.20127 85.6827 6.06608C87.7639 5.28405 90.0216 5.25883 92.1281 6.04086C95.6345 7.35264 97.2743 10.8717 96.7445 14.4917H85.3673C85.5565 15.9549 86.7926 17.0018 88.2432 17.3297C90.0847 17.7334 91.8884 17.4559 93.4272 16.0306L93.4146 16.0179ZM92.6326 11.906C92.2794 9.76177 90.6523 8.79055 88.7982 8.81577C87.0197 8.89145 85.4935 10.0266 85.2664 11.9312H92.6326V11.906Z" fill="white"/>
<path d="M138.129 16.0063L140.5 18.5415C138.091 21.5183 132.592 21.594 129.438 19.9038C127.042 18.6172 125.667 16.2838 125.541 13.5845C125.364 9.39693 128.29 6.00396 132.491 5.53727C134.938 5.27239 137.397 5.80215 139.214 7.49233C141.143 9.2708 141.825 11.8817 141.459 14.4801H130.031C130.372 16.1324 131.709 17.1289 133.26 17.3811C134.812 17.6334 136.716 17.3433 138.129 16.0063ZM137.359 11.907C137.019 9.82578 135.329 8.71582 133.424 8.81672C131.658 8.91763 130.22 10.0654 129.981 11.907H137.359Z" fill="white"/>
<path d="M38.383 20.5344C36.3775 21.1777 34.3215 21.1525 32.3917 20.5849C28.9987 19.5758 26.8797 16.5991 26.9428 13.1052C26.9932 10.0024 28.7339 7.34097 31.6475 6.16794C33.9179 5.25978 36.4153 5.22194 38.711 6.06702C41.0066 6.91211 43.668 10.0024 43.6554 13.2692C43.6427 16.536 41.6751 19.4875 38.383 20.5471V20.5344ZM39.165 13.0169C39.0641 10.6078 37.3361 8.95546 35.0657 9.09421C32.871 9.22034 31.4331 11.024 31.4331 13.2692C31.4331 15.5144 33.0602 17.4568 35.3937 17.4064C37.7145 17.3685 39.2786 15.4765 39.1776 13.0169H39.165Z" fill="white"/>
<path d="M60.8595 5.68839V20.7865H56.7097L56.571 19.1846C54.1871 21.6568 49.2679 21.5811 47.111 19.172C44.9542 16.7628 45.5091 16.5484 45.4965 14.9844L45.4587 5.67578H49.9112L49.9742 14.4168C49.9742 16.1322 51.3239 17.2043 52.9384 17.2043C54.7168 17.2043 56.3313 16.006 56.3566 14.1014L56.4322 5.68839H60.8721H60.8595Z" fill="white"/>
<path d="M104.451 16.2205L101.02 20.7991L96.2021 20.7739L102.017 13.1933L96.404 5.72623L101.361 5.67577L104.628 9.96428L110.379 2.37109L115.097 2.38371L109.169 10.1661L104.83 10.2292L112.789 20.7739L107.756 20.7991L104.451 16.2205Z" fill="white"/>
<path d="M119.865 15.7168C119.865 16.6628 120.546 17.3944 121.391 17.4827C122.173 17.5584 122.816 17.3439 123.535 16.9655L124.721 20.081C122.564 21.4306 118.742 21.3297 116.951 19.6648C115.955 18.7314 115.425 17.3692 115.425 15.9439V2.35938C115.412 2.35938 119.852 2.35938 119.852 2.35938V5.99199C119.865 5.99199 123.623 6.04245 123.623 6.04245V9.39758C123.636 9.39758 119.877 9.43541 119.877 9.43541V15.7042L119.865 15.7168Z" fill="white"/>
<path d="M25.139 20.7858H20.6865V0.0117188H25.139V20.7858Z" fill="white"/>
<path d="M148.849 20.7863H144.46V5.68819H148.648L148.723 7.51711C150.048 5.99091 151.914 5.42332 153.907 5.47377V9.52263C152.57 9.42172 151.296 9.45956 150.249 10.2794C149.203 11.0993 148.887 12.184 148.887 13.3571L148.849 20.7863Z" fill="white"/>
<path d="M158.133 6.40838C156.544 6.3327 155.459 5.12183 155.472 3.70915C155.497 2.25862 156.645 1.13604 158.184 1.08559C159.722 1.03513 161.034 2.18294 161.059 3.70915C161.085 5.23535 159.849 6.49667 158.121 6.40838H158.133ZM157.566 1.80454C156.367 2.22078 155.964 3.49472 156.329 4.46594C156.695 5.43716 157.931 6.0426 158.966 5.70204C160 5.36148 160.555 4.15061 160.29 3.17939C160.025 2.20817 158.776 1.36308 157.566 1.79193V1.80454Z" fill="white"/>
<path d="M159.533 5.03266C159.508 5.12095 159.016 5.22185 158.965 5.12095L158.688 4.55335L158.511 4.18757C158.448 4.07405 157.969 3.97314 157.956 4.11189L157.88 4.78039C157.868 4.90653 157.754 5.14618 157.641 5.1714C157.477 5.20924 157.225 4.94437 157.225 4.78039L157.275 2.39648L158.94 2.42171C159.142 2.42171 159.533 2.7875 159.482 2.96408L159.217 3.8344L159.545 5.04527L159.533 5.03266ZM157.956 2.96408C157.893 3.15328 157.944 3.68304 158.082 3.6452C158.221 3.60736 158.549 3.49384 158.688 3.43077C158.826 3.36771 158.738 3.03976 158.625 2.93885C158.511 2.83795 158.007 2.82534 157.969 2.96408H157.956Z" fill="white"/>
</svg>
