<svg width="173" height="32" viewBox="0 0 173 32" fill="none" xmlns="http://www.w3.org/2000/svg">
<path d="M12.8538 31.0508H9.46107C9.39303 30.9633 9.18888 30.8661 9.03334 30.8564C5.55315 30.5648 2.31598 29.0871 0.857798 25.7528C0.449507 24.8195 0.0995434 23.4488 0.0801009 22.4281C0.0606585 21.4074 -0.143487 21.2518 0.187034 20.688C0.39118 21.3491 0.439786 22.0004 0.673095 22.5836C0.906404 23.1669 1.14943 23.8182 1.46051 24.3723C2.53957 26.2291 4.07552 27.4734 6.21419 27.8817C8.35286 28.29 6.47666 27.8817 6.51555 27.8039C6.55443 27.7262 6.45722 27.5415 6.36973 27.4929C4.85322 26.618 3.57002 25.1112 2.79232 23.4391C2.141 22.0295 1.99518 20.6102 2.25765 19.0354C2.52013 17.4606 3.5603 14.9525 5.32956 13.679C7.09882 12.4055 7.55572 12.3958 8.81947 12.2694C9.89853 12.1625 9.43191 11.4917 9.77215 10.2863C10.336 8.25458 10.5012 7.4866 11.6192 5.63957C12.1539 4.75494 12.776 4.04529 13.5343 3.34536C15.1869 1.79969 17.2089 0.740074 19.4448 0.283177C19.785 0.215128 20.1933 0.088754 20.5044 0.0693116C21.6223 -0.0181794 22.7111 -0.0279006 23.8193 0.0693116C24.9275 0.166524 24.6845 0.234573 25.1122 0.322064C29.5062 1.27474 32.9767 4.48274 34.3377 8.74063C34.3766 8.87673 34.4932 9.06144 34.5904 9.05171L34.9793 9.01283C36.9721 8.78924 39.3149 9.23642 40.7926 10.8015C41.0842 10.5391 41.3369 10.2863 41.6091 10.0044L42.3091 9.2753C43.3881 8.15736 44.4186 7.00054 45.3907 5.78539C46.3628 4.57023 45.7407 5.71734 45.692 5.77566L42.6979 9.95579C41.3564 11.8223 39.9274 13.5332 38.3623 15.215L36.9818 16.7023C36.175 17.5675 35.3584 18.3841 34.4932 19.1909L33.4239 20.1825L32.2768 21.2324L32.0726 20.62C31.7032 20.4547 31.4019 20.2408 31.0713 19.9978L29.8951 19.92V18.3063C31.4019 18.0244 31.0422 18.4424 32.0823 19.259L33.2392 19.327C33.3558 19.327 33.5697 19.5798 33.6766 19.5409C34.046 19.4243 34.2891 19.0257 34.2405 18.9187C34.1432 18.7438 33.8905 18.491 33.6863 18.423C33.4822 18.3549 33.3364 18.8701 32.3254 18.6563L31.2755 17.6453L30.002 17.6064L29.584 17.1689H16.0909L15.5563 17.6161L14.3411 17.6453L13.3301 18.6174C12.0469 18.9868 12.0955 18.0827 11.4442 18.734C10.7929 19.3854 11.4248 19.2007 11.6095 19.4048C11.8817 19.7159 12.0372 19.3368 12.3483 19.3173L13.5245 19.2395C14.4189 18.3355 14.3314 18.0341 15.7313 18.2869V19.9006C15.7215 19.9006 14.5453 19.9881 14.5453 19.9881L13.544 20.62C13.2718 20.7949 13.4273 21.2324 13.6898 21.3588C13.9523 21.4851 14.3022 21.3296 14.38 21.0088C14.6133 20.0464 16.2951 20.7755 16.0326 20.7755L29.5937 20.7949C29.9631 20.445 30.9255 20.338 31.2074 20.9408C31.4894 21.5435 31.4894 21.3296 31.8588 21.4949C31.6352 21.7185 31.3727 21.9712 31.0908 22.1948L30.352 22.7975C30.2839 22.8558 30.0603 22.8656 30.002 22.7975C29.8367 22.5836 29.9145 21.806 29.5062 21.806H16.3437C15.3132 21.806 16.0326 22.885 15.3813 22.8753L13.6023 22.8558C12.6788 22.8461 13.0774 21.631 12.0664 22.049C11.0554 22.467 11.7553 22.6323 12.0664 22.7586C12.3774 22.885 12.7274 23.0989 12.9996 23.3613L15.4202 23.41C15.6632 23.41 15.8188 23.7794 15.7021 23.9932C15.498 24.3724 15.1674 24.8195 14.7786 25.0334C14.3897 25.2473 14.0203 25.1306 13.7967 25.0334C13.5731 24.9362 13.2426 24.8292 12.9802 25.1695C12.7177 25.5097 12.9218 25.6167 13.126 25.8305C13.3301 26.0444 13.5926 25.8597 13.8745 25.7139L15.0508 25.6555L15.566 25.1695C15.6535 25.0917 15.9354 25.2861 16.0132 25.4125L26.6287 25.4514C23.2263 27.8914 17.9769 30.3023 13.9328 30.7689L13.0288 30.8758C12.9704 30.8758 12.8538 30.8758 12.8538 30.905V31.0314V31.0508ZM29.9534 15.3899C31.0227 15.4386 31.5866 15.0886 31.9754 15.9052C32.3643 16.7218 32.4712 16.2746 32.7239 16.119C32.9767 15.9635 33.0156 15.5455 32.8017 15.4386L31.6254 14.8358L30.002 14.7095C29.8465 14.4567 29.7784 13.7665 29.9631 13.504C30.245 13.1055 30.838 13.3971 31.1783 13.5624C31.5185 13.7276 31.8102 13.3582 31.8296 13.0569C31.849 12.7555 31.4505 12.5027 31.256 12.5514C30.6825 12.8819 30.0701 12.9499 29.5062 12.5514H16.0909C14.6911 13.4165 14.3995 12.0458 13.8453 12.7749C13.2912 13.504 13.7676 13.2416 13.9912 13.4651C14.2147 13.6887 14.3897 13.6012 14.6036 13.4651C14.8175 13.3291 15.4785 13.2318 15.634 13.4943C15.7896 13.7568 15.7701 14.447 15.5952 14.7192L13.9037 14.865L12.7857 15.4288C12.5135 15.5649 12.6594 15.9732 12.8343 16.0996C13.4954 16.5759 13.6995 15.4288 14.1273 15.3997C14.555 15.3705 15.216 15.3802 15.6729 15.4094C15.7313 15.6524 15.7799 16.1774 16.0909 16.1774H29.5937C29.8562 16.1093 29.8756 15.6719 29.9631 15.3899H29.9534Z" fill="white"/>
<path d="M156.368 10.666C156.484 10.666 156.737 10.5007 156.737 10.4035V6.59276C156.747 6.59276 158.701 6.55388 158.701 6.55388H158.915C158.973 6.54415 159.08 6.70942 159.08 6.80663V10.6465C159.09 10.6465 160.694 10.6757 160.694 10.6757C161.082 10.6757 161.462 10.3646 161.462 9.96602L161.481 5.03737L163.814 5.52343V9.80076C163.814 9.99519 163.941 10.4326 164.106 10.5299C164.417 10.7146 164.874 10.666 165.224 10.6854C165.758 10.7146 166.196 10.4326 166.196 9.87853V5.0082C166.206 5.0082 168.616 5.0082 168.616 5.0082V10.1993C168.616 11.6575 167.761 12.8046 166.244 12.9699C164.728 13.1351 164.874 13.0282 164.154 13.0088C163.435 12.9893 163.134 12.6005 162.638 12.4158C162.22 12.5227 161.773 13.0088 161.296 13.0088H152.926C152.353 13.0088 151.818 12.7171 151.293 12.4547C150.593 12.9504 149.864 13.0282 148.989 13.0282L126.844 12.9796C126.028 12.9796 125.143 12.2213 124.783 11.677C124.424 11.1326 124.424 10.7534 124.2 10.3063V1.25581L126.708 1.24609V10.1507C126.728 10.5201 127.223 10.6757 127.496 10.6757H130.636C130.908 10.6757 131.063 10.5104 131.063 10.2479V7.65237L133.367 7.64265C133.396 8.45924 133.396 9.21749 133.377 10.0341C133.358 10.8507 133.358 10.5687 133.523 10.6562C133.902 10.559 133.873 10.1896 133.97 9.92714C134.825 7.55516 134.903 5.18318 137.635 5.09569C138.879 5.05681 140.532 5.01793 141.776 5.17346C143.02 5.329 144.148 6.85523 144.168 8.01206L144.206 10.666H149.524C149.767 10.666 150.059 10.1896 150.059 9.96602V5.329C150.059 5.15402 150.243 4.96932 150.399 4.96932H152.217C152.372 4.96932 152.576 5.15402 152.576 5.329V9.96602C152.576 10.3646 152.878 10.666 153.267 10.666H156.368ZM141.776 10.3063V8.09955C141.766 7.78847 141.504 7.42879 141.135 7.42879C139.997 7.41906 138.831 7.36074 137.703 7.46767C136.575 7.57461 137.032 8.3523 136.906 8.74115L136.245 10.6757H141.426C141.572 10.6854 141.766 10.4812 141.766 10.316L141.776 10.3063Z" fill="white"/>
<path d="M49.4151 24.0039C48.8124 26.512 45.4974 28.5826 43.1838 28.6021L24.5579 28.6896C24.3246 28.6896 24.1594 28.8062 23.9844 28.5923C27.5132 26.6481 30.7989 24.3831 33.9097 21.8069C35.3874 20.5821 38.0996 18.1129 39.3245 16.7227L40.6563 15.216C40.9771 14.8465 41.2881 14.4771 41.5895 14.098L42.5325 12.8926L42.9894 14.6327C43.1157 14.8077 43.5532 14.8465 43.7962 14.8757C46.1779 15.1576 48.4818 16.5672 49.3568 18.8614C49.5123 19.2794 49.5609 19.7071 49.6581 20.096C49.9206 21.1459 49.9011 22.0402 49.6581 23.0901L49.4345 24.0137L49.4151 24.0039Z" fill="white"/>
<path d="M86.929 8.38087C87.0748 10.0821 86.5888 10.6848 87.3859 10.6751L91.2744 10.6556C91.3813 9.51825 91.1869 8.47808 91.3522 7.38931C91.5077 6.39774 92.3826 5.52283 93.3061 5.21176C94.2296 4.90068 95.4351 4.86179 96.4655 5.19231C97.3016 5.45478 98.0501 6.20332 98.3514 7.04906C98.7986 8.3031 98.7208 9.69323 98.3903 10.9764C98.157 11.8902 96.7183 12.9887 96.0184 12.9887L69.9363 13.0179C69.8197 13.0179 69.6641 13.0568 69.6252 13.1151C69.5864 13.1734 69.5669 13.329 69.5669 13.4553C69.5766 14.8552 68.7212 16.2453 67.2727 16.5856C65.8243 16.9258 65.6687 16.5856 64.7549 16.6342V14.4372C64.7452 14.4372 66.5339 14.3886 66.5339 14.3886C66.845 14.3886 67.1366 13.9317 67.1366 13.6206V5.00761L69.2656 4.97845C69.3725 4.97845 69.5669 5.18259 69.5669 5.30897L69.5864 10.6751H73.8151L73.8443 7.6615H76.2551L76.2648 10.432C76.2648 10.5001 76.3426 10.6362 76.3815 10.6751C76.4204 10.714 76.6829 10.5973 76.7023 10.5098L76.9356 9.61547L77.3633 8.19617L77.6258 7.37959C77.9563 6.33942 78.6563 5.37702 79.8228 5.18259C80.9894 4.98817 82.9725 5.06594 84.0321 5.10482C85.0917 5.14371 85.4125 5.30897 85.918 5.84363C86.2971 6.23248 86.7832 6.72827 86.8318 7.30182L86.9193 8.38087H86.929ZM84.314 10.6654C84.4404 10.6654 84.6251 10.4223 84.6251 10.3251L84.5959 7.9337C84.5959 7.73927 84.1779 7.40875 83.964 7.40875C82.9142 7.39903 81.6504 7.36986 80.5616 7.43791C79.4728 7.50596 79.745 8.65307 79.6089 9.05164C79.4534 9.51825 78.9771 10.539 79.1618 10.6556H84.314V10.6654ZM96.203 10.0432L96.1836 8.00175C96.1836 7.78788 95.8045 7.41847 95.5712 7.41847L94.4144 7.39903C94.0255 7.39903 93.5783 7.68094 93.5783 8.1184L93.5492 9.80017C93.5492 10.1112 93.8214 10.6168 94.1616 10.6362C95.0948 10.6945 96.0378 10.8598 96.203 10.0432Z" fill="white"/>
<path d="M122.801 5.07568V13.0082H106.489C105.565 12.8721 104.749 12.2402 104.292 11.5208L103.854 10.8404C103.981 9.65438 103.689 8.41006 103.952 7.2824C104.272 5.94087 105.536 5.00763 106.839 5.00763L111.729 4.96875C111.913 4.96875 112.079 5.15345 112.079 5.33816V10.6557H116.21L116.307 7.56432C116.336 6.57275 117.659 5.07568 119.574 5.07568H122.791H122.801ZM109.376 10.6654C109.493 10.6654 109.677 10.4224 109.677 10.3057L109.658 7.40878H106.606C106.45 7.56432 106.149 7.82679 106.139 8.02121C106.12 8.67253 106.12 9.3919 106.139 10.0432C106.149 10.4321 106.654 10.6654 106.985 10.6654H109.366H109.376ZM120.361 10.6265V7.58376C120.06 7.23379 118.757 7.30184 118.728 8.02121C118.699 8.69198 118.699 9.3433 118.708 10.0432C118.708 10.782 119.788 10.7043 120.361 10.6168V10.6265Z" fill="white"/>
<path d="M159.713 28.4349C159.295 28.6002 158.828 28.6002 158.381 28.5127L152.208 20.8038C152.13 20.7066 152.052 20.5802 151.984 20.5413C151.916 20.5024 151.78 20.7163 151.78 20.8038V28.4641C151.207 28.5905 150.721 28.5807 150.06 28.4933V17.1486C150.497 17.0319 150.954 16.9931 151.469 17.168L157.584 24.8672C157.7 25.0131 157.934 25.0325 157.943 24.9742C157.953 24.9158 157.982 24.8089 157.982 24.7311V17.1C158.605 17.0611 159.081 17.0611 159.703 17.1V28.4349H159.713Z" fill="white"/>
<path d="M120.098 27.609C118.358 28.9895 116.9 28.6395 114.888 28.6395C111.087 27.8715 109.784 23.6817 110.941 20.4931C111.806 18.1017 113.993 16.8477 116.462 16.8477C118.737 16.8477 120.691 17.9364 121.615 20.0654C122.626 22.3887 122.315 25.8495 120.098 27.5993V27.609ZM118.659 26.598C119.554 26.0342 120.186 24.994 120.322 24.0025C120.419 23.2637 120.409 22.5248 120.322 21.8055C120.186 20.5612 119.359 19.4627 118.241 18.8599C117.123 18.2572 115.306 18.267 114.081 19.0641C111.631 20.6681 111.728 24.8191 113.935 26.4328C115.276 27.4146 117.201 27.5118 118.65 26.5883L118.659 26.598Z" fill="white"/>
<path d="M72.7653 23.5855H66.7867C66.602 23.5855 66.3687 23.7313 66.3687 23.9354V26.4435C66.359 26.6088 66.5146 26.8518 66.7187 26.8518H73.0569C73.0569 26.8615 73.0278 28.5627 73.0278 28.5627H64.8522C64.7259 28.5627 64.5703 28.3392 64.5703 28.2031V17.0723C64.58 17.0723 73.0278 17.0723 73.0278 17.0723L73.0764 18.4332C73.0472 18.5888 72.882 18.7735 72.707 18.7735L67.0006 18.754C66.7381 18.754 66.3785 18.7151 66.3785 19.1234V21.6121C66.3785 21.8357 66.5826 22.0398 66.8062 22.0398H72.7653L72.775 23.5758L72.7653 23.5855Z" fill="white"/>
<path d="M83.624 23.6826H80.8729C80.6396 23.6729 80.4646 23.5465 80.416 23.3229L80.4549 22.1369H85.2669V26.8031C84.392 27.7655 83.2546 28.4265 81.9519 28.6696C81.0187 28.6404 80.1049 28.7473 79.2203 28.6112C78.1704 28.4557 77.208 27.9891 76.4497 27.2794C75.6915 26.5698 75.1082 25.3546 74.8652 24.2172C74.3111 21.6703 75.4193 18.5012 77.9662 17.3541C80.1341 16.3722 83.2254 16.6055 84.9461 18.4914L83.9739 19.483C83.6823 19.7746 82.788 18.0443 79.9105 18.4623C77.3732 18.822 76.0414 21.5147 76.5664 23.9645C76.858 25.3546 77.8593 26.5892 79.2592 26.9683C80.659 27.3475 82.4866 27.1919 83.6337 26.0546V23.6923L83.624 23.6826Z" fill="white"/>
<path d="M167.615 23.3905L167.645 22.1462H172.534V26.8805C172.291 27.0554 172.116 27.2013 171.902 27.4151C171.164 28.0178 170.24 28.5622 169.239 28.64C167.1 28.7955 165.146 28.7664 163.571 27.1235C162.862 26.3847 162.201 25.082 162.172 24.0321C162.142 22.9822 161.987 23.2253 162.026 22.8948C162.094 22.3212 162.152 21.7963 162.249 21.2422C162.453 20.1145 163.095 19.0743 163.912 18.2869C165.973 16.2941 170.114 16.2746 172.252 18.4813L171.212 19.5993C169.958 18.6174 168.724 18.2675 167.197 18.4813C164.427 18.8702 163.144 22.0685 164.019 24.5279C164.612 26.2194 166.079 27.1527 167.82 27.1721C168.986 27.1721 170.065 26.9193 170.93 26.0639V23.7113C170.921 23.7113 167.985 23.7113 167.985 23.7113C167.878 23.7113 167.615 23.5364 167.615 23.4294V23.3905Z" fill="white"/>
<path d="M108.19 28.5035C107.889 28.5618 106.479 28.7368 106.479 28.2994L106.46 23.779H100.588C100.365 23.779 100.248 24.0026 100.248 24.197V28.5424L98.9746 28.591C98.8385 28.591 98.5371 28.4549 98.5371 28.2896V17.1297C99.1495 17.0714 99.6356 17.0714 100.248 17.1297V21.8931C100.258 21.9806 100.511 22.1556 100.608 22.1556H106.042C106.149 22.1556 106.343 22.0875 106.47 22.0389V17.1102L108.19 17.1005V28.5229V28.5035Z" fill="white"/>
<path d="M132.755 26.9091C132.21 27.8229 131.18 28.5228 130.081 28.6103C128.973 28.6978 127.826 28.7367 126.757 28.5908C125.474 28.4159 124.453 27.5896 123.753 26.6174C123.568 26.3647 123.685 26.1314 123.879 26.005L124.832 25.3828C125.697 26.773 127.107 27.3271 128.662 27.2396C130.218 27.1521 130.47 27.0938 131.054 26.3258C131.637 25.5578 131.52 25.4898 131.404 24.9648C131.151 23.876 129.722 23.4969 128.72 23.3608C127.719 23.2247 126.601 23.0497 125.639 22.6123C124.832 22.2526 124.356 21.6304 124.103 20.8625C123.85 20.0945 123.86 19.7834 124.103 19.1515C124.346 18.5197 124.579 18.0336 125.153 17.6545C127.262 16.2643 131.112 16.3032 132.638 18.5877L131.705 19.2585C131.617 19.3265 131.394 19.4237 131.287 19.414C131.18 19.4043 131.073 19.2099 130.966 19.1126C129.8 18.1308 128.137 17.9558 126.757 18.5585C126.28 18.7627 126.008 19.1418 125.804 19.5695C125.6 19.9973 125.629 20.1237 125.804 20.4542C125.979 20.7847 126.115 21.0083 126.426 21.1541C128.225 21.9901 129.897 21.6013 131.822 22.6998C132.317 22.9817 132.716 23.4386 132.91 23.9344C133.105 24.4302 133.134 24.2649 133.134 24.3621L133.114 26.2577L132.745 26.8896L132.755 26.9091Z" fill="white"/>
<path d="M92.3155 23.7511V28.1062C92.3058 28.2325 92.228 28.5631 92.1114 28.5631L90.5171 28.5436L90.4976 23.7608L86.1328 17.1309C86.8716 17.0531 87.5327 17.0629 88.252 17.1017L91.4114 22.1568L94.668 17.1017C95.368 17.0726 95.9901 17.0434 96.797 17.1601L92.3155 23.7608V23.7511Z" fill="white"/>
<path d="M139.745 28.5238C139.132 28.5724 138.636 28.5724 138.024 28.5433C138.024 25.3255 138.024 21.8259 138.024 18.9873C138.024 16.1487 137.703 18.6082 137.587 18.6082L134.67 18.6276C134.563 18.6276 134.437 18.6568 134.379 18.6471C134.32 18.6373 134.184 18.404 134.194 18.3165L134.233 17.0625H143.487V18.5985H140.075C139.939 18.5985 139.754 18.7832 139.754 18.9387V28.5141L139.745 28.5238Z" fill="white"/>
<path d="M172.545 12.9893L170.124 12.999V1.25577L172.535 1.23633L172.545 12.9893Z" fill="white"/>
<path d="M146.754 28.5621H145.724C145.636 28.5621 145.422 28.4357 145.393 28.3579C145.364 28.2802 145.413 28.1344 145.413 27.9983V17.7229C145.413 17.5382 145.228 17.1397 145.559 17.1008C145.889 17.0619 146.492 17.0522 147.036 17.1202V28.1927C147.036 28.3288 146.871 28.5621 146.754 28.5621Z" fill="white"/>
<path d="M150.915 1.82974C150.973 2.6366 150.516 3.20043 149.709 3.22959C149.223 3.24904 148.64 3.1421 148.426 2.62688C148.212 2.11165 148.212 1.50894 148.494 1.10065C148.776 0.692357 149.515 0.565978 149.982 0.672912C150.448 0.779845 150.876 1.18814 150.915 1.82974Z" fill="white"/>
<path d="M154.171 2.51824C153.928 3.39315 152.558 3.38343 151.945 2.90709C151.566 2.31409 151.479 1.41974 152.062 0.923958C152.645 0.428176 153.549 0.515668 154.006 1.04061C154.327 1.41974 154.307 2.0419 154.171 2.51824Z" fill="white"/>
<path d="M120.477 0.768967C121.313 1.11893 121.235 2.42158 120.817 2.88819C120.399 3.35481 118.854 3.41314 118.62 2.52851C118.387 1.64388 118.504 1.59527 118.63 1.29391C118.922 0.564823 119.835 0.496775 120.477 0.759248V0.768967Z" fill="white"/>
<path d="M111.018 2.6647C110.61 3.44239 109.366 3.33546 108.948 2.92717C108.335 2.31473 108.491 1.08986 109.21 0.77878C109.93 0.467701 110.455 0.564912 110.843 1.01209C111.232 1.45926 111.32 2.08142 111.009 2.6647H111.018Z" fill="white"/>
<path d="M107.636 2.63583C107.237 3.40381 106.168 3.35521 105.546 2.9858C105.118 2.38308 105.001 1.50817 105.565 0.963784C106.129 0.419396 107.257 0.52633 107.636 1.26514C107.791 1.57622 107.82 2.30531 107.636 2.64556V2.63583Z" fill="white"/>
<path d="M140.503 2.8977C140.231 3.28655 139.035 3.4032 138.559 2.8977C138.083 2.39219 138.297 2.3047 138.267 1.96446C138.219 1.2937 138.53 0.778471 139.249 0.642373C139.969 0.506276 140.192 0.671538 140.445 0.943732C140.931 1.48812 140.931 2.26582 140.494 2.8977H140.503Z" fill="white"/>
<path d="M18.2001 24.1489C18.0057 24.4016 17.3544 24.3628 17.1405 24.178C16.9849 23.9642 16.9947 23.4295 17.0724 23.1379C17.3544 22.9726 17.9279 22.9046 18.2293 23.1087C18.3459 23.342 18.3751 23.9156 18.2001 24.1586V24.1489Z" fill="white"/>
<path d="M18.2196 19.5017C18.0933 19.7739 17.3253 19.7642 17.1503 19.5601C16.9267 19.2879 17.0336 18.8212 17.0725 18.4421C17.4905 18.4032 17.8502 18.4032 18.2585 18.4518C18.3168 18.7629 18.3655 19.1906 18.2196 19.5114V19.5017Z" fill="white"/>
<path d="M28.7287 19.4629C28.7287 19.5115 28.6412 19.6476 28.6121 19.6962C28.5829 19.7448 28.3496 19.6962 28.3496 19.6379V18.4616C28.3496 18.413 28.5149 18.3158 28.544 18.3547C28.5732 18.3936 28.7093 18.5005 28.7093 18.5491V19.4629H28.7287Z" fill="white"/>
<path d="M27.844 24.1488C27.844 24.2169 27.6301 24.3627 27.601 24.3238C27.5718 24.2849 27.4746 24.1488 27.4746 24.0905V23.2448C27.4746 23.1864 27.5718 23.0601 27.6107 23.0212C27.6496 22.9823 27.844 23.1573 27.844 23.2351V24.1391V24.1488Z" fill="white"/>
<path d="M27.844 19.4636C27.844 19.5219 27.7565 19.6483 27.7079 19.6872C27.6593 19.726 27.4648 19.5413 27.4648 19.4636V18.6178C27.4648 18.5595 27.5718 18.4331 27.6009 18.3942C27.6301 18.3553 27.8342 18.5303 27.8342 18.6081V19.4636H27.844Z" fill="white"/>
<path d="M27.0367 24.0513C27.0367 24.1194 26.9395 24.2749 26.9006 24.3138C26.8618 24.3527 26.6576 24.168 26.6673 24.0902V23.2348C26.6673 23.1764 26.7645 23.05 26.8034 23.0112C26.8423 22.9723 27.0367 23.157 27.0367 23.2445V24.0513Z" fill="white"/>
<path d="M27.0374 19.4341C27.0374 19.4924 26.9402 19.648 26.9013 19.6869C26.8624 19.7257 26.668 19.541 26.668 19.4633V18.6078C26.668 18.5495 26.7652 18.4231 26.8041 18.3842C26.843 18.3453 27.0374 18.53 27.0374 18.6078V19.4244V19.4341Z" fill="white"/>
<path d="M28.7193 23.3514C28.7679 23.7013 28.7874 24.0805 28.3888 24.2263C28.3402 23.9055 28.3305 23.3222 28.3888 23.0111C28.4471 22.7001 28.6513 22.9431 28.661 22.9917L28.7096 23.3514H28.7193Z" fill="white"/>
<path d="M18.2198 14.8744C18.0934 15.1466 17.3254 15.1369 17.1504 14.9327C16.9755 14.7286 17.0241 14.1939 17.0727 13.8148C17.4907 13.7759 17.8601 13.7662 18.2489 13.8245C18.317 14.1259 18.3656 14.5633 18.2198 14.8744Z" fill="white"/>
<path d="M28.7288 14.8651C28.7288 14.9137 28.583 15.0692 28.5538 15.1081C28.5246 15.147 28.3594 15.0498 28.3594 15.0012V13.8347C28.3594 13.786 28.5246 13.6888 28.5538 13.7277C28.583 13.7666 28.7191 13.8735 28.7191 13.9221V14.8651H28.7288Z" fill="white"/>
<path d="M27.0374 14.7973C27.0374 14.8653 26.9402 15.0208 26.9013 15.0597C26.8624 15.0986 26.668 14.9139 26.668 14.8361V13.9904C26.668 13.9321 26.7749 13.8057 26.8138 13.7668C26.8527 13.7279 27.0374 13.9223 27.0374 13.9904V14.7973Z" fill="white"/>
<path d="M27.844 14.8461C27.844 14.9045 27.7468 15.0308 27.7079 15.0697C27.669 15.1086 27.4648 14.9239 27.4648 14.8461V14.0004C27.4648 13.9421 27.5621 13.8157 27.6009 13.7768C27.6398 13.7379 27.844 13.9226 27.8342 13.9907V14.8461H27.844Z" fill="white"/>
</svg>
