<svg width="154" height="22" viewBox="0 0 154 22" fill="none" xmlns="http://www.w3.org/2000/svg">
<path d="M105.156 18.9269C104.924 18.9269 104.809 18.6954 104.751 18.5314L103.42 15.1654C103.207 14.6252 102.995 14.1333 102.754 13.5932L101.346 13.6415V18.9269L97.4688 18.9172V3.25391L104.635 3.30213C105.783 3.30213 106.747 3.90976 107.596 4.59455C108.994 6.05093 109.399 8.10529 108.85 10.0536C108.512 11.2302 107.76 12.1754 106.689 12.7734C106.516 12.8699 106.535 13.0628 106.612 13.2267L109.149 18.9076L105.156 18.9365V18.9269ZM104.712 9.64847C105.3 8.90581 105.3 7.87381 104.712 7.13116C104.124 6.3885 104.027 6.59104 103.661 6.5814C102.851 6.56211 102.127 6.57175 101.327 6.59104V10.1982H103.661C104.066 10.1982 104.423 9.98604 104.702 9.63883L104.712 9.64847Z" fill="white"/>
<path d="M41.9721 3.24402V18.9073H38.2105C38.1141 18.7434 38.1141 18.5312 38.172 18.3576V12.4163H33.4653V18.4251C33.5231 18.5505 33.5038 18.7723 33.417 18.9073H29.5977V3.23438H33.4749L33.4556 8.72232C33.4653 8.87664 33.6003 9.03096 33.7546 9.03096H37.873C38.008 9.03096 38.172 8.87664 38.172 8.71268V3.6491C38.172 3.54301 38.1141 3.23438 38.2491 3.23438H41.9624L41.9721 3.24402Z" fill="white"/>
<path d="M56.468 16.3888C54.1821 19.7067 49.2922 20.0732 46.5241 17.4498C43.756 14.8264 45.251 16.0127 44.8748 15.0964C44.0743 13.1771 43.9103 11.0745 44.2961 9.04908C44.4794 7.99778 44.7784 7.03329 45.3667 6.15561C46.6013 4.01444 48.8775 2.89563 51.3465 2.99208C53.4395 3.07889 55.3395 4.08195 56.5066 5.81803C57.6736 7.55412 57.5 7.75666 57.7315 8.84653C58.0497 10.3608 58.0497 11.7979 57.7315 13.3121C57.5 14.4213 57.1238 15.434 56.468 16.3888ZM50.6714 15.7523C52.6583 16.0223 53.5938 14.267 53.8928 12.6563C54.1918 11.0456 54.0953 9.57954 53.4877 8.14246C52.8801 6.70537 52.6968 6.87897 52.041 6.57998C50.3724 5.83732 48.9257 6.98507 48.4241 8.50896C47.8744 10.1872 47.8647 11.9522 48.4241 13.6111C48.9835 15.27 49.5044 15.5787 50.6714 15.7426V15.7523Z" fill="white"/>
<path d="M92.5115 13.2361C92.0004 13.4097 91.412 13.5544 90.8816 13.5641L88.017 13.6026V18.9073H84.2266C84.1205 18.9073 84.0915 18.5987 84.1494 18.4926V3.6491C84.1494 3.55266 84.0916 3.23438 84.2362 3.23438L91.3252 3.2826C92.5405 3.2826 93.6979 3.96739 94.4695 4.79685C95.241 5.62631 95.3857 6.25323 95.6076 7.11162C95.9162 8.32688 95.7619 9.52285 95.2796 10.6995C94.7781 11.8955 93.804 12.7828 92.5212 13.2168L92.5115 13.2361ZM91.7496 8.94415C92.1354 7.68067 91.1516 6.5908 90.3607 6.58115H88.0267V10.1883C88.8368 10.198 89.6181 10.2173 90.4379 10.1883C91.2577 10.1594 91.5663 9.56142 91.7592 8.94415H91.7496Z" fill="white"/>
<path d="M121.176 12.1561L121.195 12.5034C121.195 12.5709 121.002 12.6577 120.925 12.6577H115.601L115.581 15.3004C115.581 15.4258 115.745 15.5994 115.88 15.5994H120.925C121.002 15.5994 121.176 15.6187 121.204 15.6669C121.233 15.7151 121.291 15.8694 121.32 15.9852L121.291 18.9269H111.714V3.25391H121.291L121.311 6.28241C121.291 6.41743 121.137 6.58139 120.992 6.58139H115.601L115.572 8.97333C115.572 9.08907 115.697 9.35912 115.813 9.35912H120.722C120.828 9.35912 121.137 9.3109 121.137 9.42664L121.166 12.1754L121.176 12.1561Z" fill="white"/>
<path d="M134.524 14.3637C134.321 17.5176 132.074 19.0897 129.055 19.1668C126.866 19.2247 124.918 18.6653 123.249 17.2089C123.249 16.9678 123.365 16.7363 123.49 16.5338C123.963 15.7429 124.416 14.9906 124.975 14.1708C126.133 15.3667 127.975 16.0226 129.537 15.7043C130.135 15.5789 130.637 15.1063 130.647 14.5084C130.666 12.3865 124.609 13.1195 123.731 8.87573C123.124 5.94368 125.149 3.48424 128.1 3.07915C130.184 2.78981 132.595 3.32992 134.215 4.7863L133.193 6.52238C132.971 6.90818 132.759 7.26504 132.46 7.64119C131.418 6.73457 129.152 5.85688 127.975 6.68634C127.734 6.85995 127.483 7.30362 127.531 7.61225C127.628 8.15237 128.12 8.51887 128.602 8.70213L130.386 9.4062C131.023 9.65697 131.621 9.93667 132.238 10.2646C133.704 11.0362 134.63 12.6855 134.524 14.3637Z" fill="white"/>
<path d="M145.201 17.9044C142.896 19.9298 137.736 19.4572 135.537 17.1039L136.241 15.879L137.254 14.2586C137.505 14.2972 137.688 14.4612 137.862 14.6155C138.826 15.4546 140.08 15.8018 141.363 15.7825C142.645 15.7632 142.723 15.4932 142.964 14.8084C143.388 13.5835 141.324 13.0144 140.437 12.6865L139.405 12.3007C138.016 11.7895 136.666 10.8058 136.203 9.32045C135.894 8.32702 135.855 7.36253 136.212 6.35946C136.993 4.18936 138.855 3.12842 141.131 3.01268C143.407 2.89694 145.047 3.466 146.581 4.7777L145.018 7.4204C144.7 7.96052 144.478 6.99603 142.771 6.56201C142.163 6.40769 141.575 6.2823 140.958 6.39804C140.302 6.52343 139.752 7.09247 139.945 7.79655C140.138 8.50063 140.533 8.54885 140.919 8.70317L142.993 9.51334C143.716 9.80269 144.449 10.121 145.076 10.5936C146.773 11.886 147.159 13.5546 146.687 15.5896C146.465 16.5252 145.934 17.2678 145.201 17.914V17.9044Z" fill="white"/>
<path d="M59.4385 17.1133L61.0299 14.4609C61.4735 13.7183 61.9751 15.7244 65.0325 15.7726C65.6401 15.7823 66.2478 15.6955 66.6529 15.2132C67.0001 14.7888 67.0194 14.1716 66.6143 13.7761C66.2092 13.3807 65.9777 13.3035 65.6209 13.1685L64.502 12.7441L63.1614 12.2233C62.3223 11.8954 61.5314 11.4131 60.9334 10.7573C59.7568 9.46485 59.5928 7.23688 60.403 5.72263C61.6086 3.45608 64.097 2.77129 66.5371 3.06064C68.0031 3.26318 69.3149 3.75508 70.4915 4.76779L68.7651 7.64197C67.6366 6.74499 66.3635 6.28204 64.9939 6.3592C64.3574 6.49423 63.7497 6.94753 63.8366 7.64197C63.9234 8.3364 65.7752 9.05977 66.6143 9.3877C67.4437 9.71562 68.2539 10.0628 68.9869 10.574C70.1732 11.3938 70.8098 12.7152 70.7809 14.133C70.7519 15.5508 70.7423 15.1457 70.588 15.6762C69.8839 18.0585 67.7427 19.1194 65.3508 19.1676C63.1614 19.2062 61.1842 18.7143 59.4481 17.1133H59.4385Z" fill="white"/>
<path d="M78.8152 6.58127V18.9171H74.938V6.58127L71.543 6.55234V3.24414C71.5333 3.24414 82.2006 3.24414 82.2006 3.24414V6.2437C82.2102 6.34015 82.0752 6.56198 81.9691 6.57163H78.8152V6.58127Z" fill="white"/>
<path d="M3.98948 11.4319L1.12495 14.3061L0.912761 14.5183C0.633059 14.798 0.285843 12.6375 0.266553 12.3481C0.247264 12.0588 0.121879 11.9816 0.0832995 11.8273C-0.051729 11.2872 0.0350753 10.6892 0.0157855 10.1009L0.237618 9.85013C0.324422 7.3521 1.73258 4.90229 3.52653 3.19515C5.32048 1.488 6.91189 0.822502 8.98554 0.513865C10.1815 0.340257 11.3003 0.320967 12.477 0.50422C13.6537 0.687473 14.3288 0.726054 14.377 1.0154L12.6217 2.37533C12.0719 2.79971 11.6379 3.33982 11.1364 3.83171C10.548 4.40076 9.4292 3.61952 6.87331 5.3556C4.31741 7.09168 3.81587 8.72167 3.98948 11.4222V11.4319Z" fill="white"/>
<path d="M10.0568 21.5784C9.71923 21.2505 9.2177 21.4531 8.14712 21.1734C7.07653 20.8937 7.51055 20.9901 7.10547 20.8261C7.19227 20.6332 7.25014 20.5947 7.38517 20.4693L10.2208 17.6723C11.7929 17.7784 13.3168 17.4987 14.5899 16.592C15.863 15.6854 16.7118 14.4123 17.2423 13.0041C17.3291 12.7727 17.4352 12.464 17.4737 12.2615L17.7438 10.6315C18.8337 9.74416 19.7692 8.58677 20.5119 7.50654C21.2545 6.42631 20.6855 7.37151 20.7434 7.36187C20.8687 7.34258 21.0616 8.21062 21.0809 8.34565C21.3703 10.0817 21.4474 11.2391 21.1388 12.9656C20.7434 15.1935 19.6053 17.1707 17.927 18.6753C16.2488 20.1799 14.4452 21.0962 12.333 21.347C11.1081 21.4916 11.4167 21.7328 10.0761 21.5688L10.0568 21.5784Z" fill="white"/>
<path d="M15.0233 13.4286C14.8786 13.2357 15.0522 12.9946 15.0715 12.7631C15.1294 12.0783 15.1873 11.355 15.004 10.6702C14.5121 8.87622 13.1522 7.497 11.4354 6.8315C10.3552 6.41677 9.34245 6.52287 8.14648 6.80257C8.86021 5.92488 9.74754 5.23045 10.7217 4.88324L12.4578 4.26596C12.6989 4.17916 14.8786 1.50752 18.0518 0.533387C21.225 -0.440748 21.1189 -0.0260184 21.3503 1.33391C21.7747 3.80301 19.9518 6.41677 18.3701 8.18179C17.4152 9.23308 17.502 8.70261 17.2513 9.70568C17.0005 10.7088 16.0746 12.3291 15.0329 13.419L15.0233 13.4286ZM18.3315 4.93146C18.4665 4.32383 18.1193 3.67762 17.5599 3.42686C17.0005 3.17609 16.3639 3.34005 15.9588 3.73549C15.5538 4.13093 15.3609 4.7482 15.5923 5.3269C15.8238 5.90559 16.499 6.25281 17.1066 6.14671C17.7142 6.04062 18.1772 5.62589 18.3315 4.93146Z" fill="white"/>
<path d="M8.78342 13.9697L2.18632 20.5282C1.81016 20.9044 1.48224 21.2516 1.09644 21.6759L0.189822 20.7597L0.00656973 20.5668C-0.0416547 20.5089 0.189822 20.4028 0.238047 20.3546L11.918 8.71321C12.2556 8.69392 13.249 9.54267 12.8343 9.94776L8.77378 13.9793L8.78342 13.9697Z" fill="white"/>
<path d="M5.56221 21.0678C5.33073 21.2993 5.09926 21.2125 4.88707 21.0775C4.67488 20.9424 4.40482 20.7785 4.13477 20.4891C7.17291 17.4606 10.6354 14.0174 13.4228 11.23C13.5578 11.095 13.7314 11.0082 13.7604 11.0564C13.8858 11.2493 14.2233 12.2427 14.0787 12.5803L5.56221 21.0678Z" fill="white"/>
<path d="M1.16417 17.5087C0.759084 17.1615 0.566186 16.795 0.392578 16.332L5.59118 11.1238L6.36277 10.3522L7.01862 9.69635L7.75163 8.96334L8.48465 8.22068C8.6679 8.03743 8.91867 7.7963 9.11156 7.65163C9.44913 7.39122 9.91209 7.7095 10.24 7.77702C10.5679 7.84453 10.5969 7.84453 10.6355 8.06636L1.15452 17.5184L1.16417 17.5087Z" fill="white"/>
<path d="M151.142 7.07195C149.714 6.80189 148.875 5.27799 149.377 3.93735C149.791 2.81855 151.19 2.20127 152.27 2.61601C153.37 3.04038 153.948 4.15919 153.669 5.31658C153.389 6.44503 152.347 7.29378 151.151 7.07195H151.142ZM151.73 6.76331C152.453 6.64757 152.897 6.24248 153.177 5.68308C153.707 4.59321 153.292 3.34901 152.135 2.91499C151.209 2.56778 150.081 3.06931 149.676 4.07238C149.27 5.07545 149.569 5.44196 150.003 5.99172C150.37 6.46432 151.045 6.8694 151.73 6.76331Z" fill="white"/>
<path d="M152.136 6.0497L151.547 5.12379C151.48 5.00806 151.084 4.88267 151.075 5.03699L150.997 5.88574C150.997 5.94361 150.891 6.07864 150.834 6.08828C150.776 6.09793 150.641 5.95325 150.641 5.8568V3.52274C150.65 3.52274 151.586 3.46487 151.586 3.46487C152.058 3.43594 152.599 3.72528 152.57 4.25575C152.541 4.78622 152.271 4.84409 151.952 5.07557L152.415 5.79894C152.435 5.83752 152.425 6.01112 152.415 6.0497C152.406 6.08828 152.28 6.08828 152.145 6.06899L152.136 6.0497ZM152.01 4.55474C152.145 4.48723 152.222 4.19788 152.174 4.09179C151.962 3.65777 151.499 3.81209 151.055 3.78315L150.997 4.58368C151.335 4.64155 151.692 4.70906 152.01 4.5451V4.55474Z" fill="white"/>
</svg>
