<svg width="105" height="34" viewBox="0 0 105 34" fill="none" xmlns="http://www.w3.org/2000/svg">
<path d="M50.5155 33.1997C48.424 32.8796 46.6029 31.8366 44.9971 30.4018C46.3987 28.8511 47.4307 27.0852 48.0819 25.1317C48.1867 24.8172 48.2198 24.5413 48.3964 24.1936C49.8312 25.9926 51.5805 26.9914 53.9424 26.7265C56.3043 26.4617 56.4478 25.9429 57.3749 24.9717C58.1806 24.1274 58.771 23.1009 58.9531 21.931C59.2842 19.812 58.6551 18.0571 57.121 16.5947C56.2326 15.7449 55.1289 15.1379 53.8872 14.9999C52.0772 14.7957 50.5431 15.32 49.2407 16.5726C48.5454 17.2404 47.977 17.9854 47.6569 18.8959C47.4307 19.5471 47.2817 20.7335 47.2486 21.4344C47.2375 21.6827 47.2375 21.9586 47.2044 22.2014L47.0113 23.5535C46.9782 23.8018 46.9119 24.0556 46.8347 24.315C46.1614 26.6438 44.8591 28.7684 43.0159 30.3632C41.5149 31.66 39.7656 32.5816 37.8617 33.0893C37.6189 33.1555 37.3706 33.2162 37.1333 33.2493L35.6764 33.448L34.6942 33.4811C34.352 33.4921 34.0375 33.5142 33.6953 33.4811C33.0221 33.4259 32.084 33.3045 31.4273 33.1279C29.5234 32.6037 27.763 31.6655 26.2731 30.3411C23.8063 28.1558 22.068 24.7675 22.0625 21.4289V11.5288C22.0625 11.3522 22.0901 11.137 22.1177 10.9715C22.4874 9.00138 24.5789 7.70455 26.4662 8.38331C27.7961 8.86342 28.7784 10.1051 28.7839 11.584L28.8005 21.3737C28.8005 21.7379 28.9109 22.1131 29.0047 22.4498C29.5565 24.3591 31.041 25.8712 32.9117 26.5058C33.3422 26.6493 33.7284 26.71 34.1644 26.7541C35.853 26.9197 37.4589 26.3789 38.7171 25.2531C39.5062 24.5468 40.0857 23.6804 40.3616 22.6595C40.6651 21.5392 40.5658 20.4355 40.781 19.1718C40.9962 17.9081 41.0348 17.6929 41.3715 16.6665C42.2158 14.1114 43.8547 11.9648 46.0676 10.4362C47.8335 9.22211 49.5332 8.60405 51.6633 8.3502L52.3366 8.27295H54.3177C54.5053 8.26743 54.7371 8.33917 54.9247 8.35572C55.3386 8.38331 55.6973 8.46057 56.1056 8.5599C58.1309 9.03449 59.9575 9.98917 61.5192 11.3743C63.5224 13.1623 65.1448 15.9822 65.5587 18.631C65.6194 19.0173 65.7353 19.3981 65.7353 19.7954V30.7384C65.3214 32.4933 63.6935 33.7073 61.8834 33.4369C60.9232 33.2935 60.2389 32.7637 59.6761 32.0132C59.1132 31.2627 59.4001 31.82 59.2291 31.9249C58.4454 32.416 57.6011 32.7251 56.7127 32.9955C55.162 33.4645 53.7769 33.4976 52.171 33.459L50.51 33.2052L50.5155 33.1997Z" fill="white"/>
<path d="M20.0815 27.7742C20.7713 28.4695 20.981 29.7498 20.8376 30.6438C20.6003 32.1172 19.4083 33.2982 17.9238 33.5023C17.5817 33.5465 17.212 33.5299 16.8753 33.5023C15.5068 33.3699 14.6735 32.2772 13.7795 31.3612L11.3017 28.8282L9.03917 26.516L7.40572 24.8384C7.36709 24.7998 7.31743 24.7336 7.29535 24.7005C7.27328 24.6673 7.07461 24.7115 7.07461 24.7943V30.2906C6.87043 31.6702 6.0206 32.7849 4.72929 33.2816C2.91373 33.9769 0.800171 32.8015 0.231774 30.9142C0.187626 30.7597 0.137961 30.6879 0 30.5776V3.00754C0.165553 2.93028 0.193145 2.86406 0.237292 2.72058C0.590471 1.53412 1.52308 0.573915 2.72058 0.248328C2.85854 0.209699 2.9358 0.154516 3.01306 0.0110367L4.18848 0L4.33196 0.193144C4.83965 0.353178 5.35839 0.507695 5.75019 0.866392C6.142 1.22509 6.64418 1.72175 6.82629 2.33429C7.00839 2.94684 7.06358 2.95235 7.06358 3.2669V16.5277C7.06358 16.5773 7.09669 16.6491 7.11324 16.6767C7.1298 16.7043 7.2512 16.6987 7.27328 16.6767L7.62646 16.2793L10.0049 13.8623L12.433 11.379L14.8832 8.92329C15.5785 8.22245 16.4394 7.85823 17.4327 7.87479C18.3101 7.88582 19.1213 8.16174 19.7504 8.77429C20.3078 9.31509 20.7713 9.96075 20.8376 10.7664C20.9038 11.5721 20.8927 11.6494 20.832 12.0633C20.6941 13.0014 20.1146 13.7353 19.3807 14.3093L13.2884 20.385C13.2111 20.4623 13.0787 20.5285 13.0787 20.6003C13.0787 20.672 13.1338 20.7989 13.2166 20.8762L20.0981 27.7797L20.0815 27.7742Z" fill="white"/>
<path d="M89.7297 33.7782C89.8456 33.8555 85.4087 33.4968 82.1474 29.9098C80.5856 28.188 79.4599 25.8869 79.0957 23.6133C78.9191 22.4986 78.8805 21.7591 78.9301 20.6223C78.9632 19.8276 79.1784 18.5639 79.4102 17.7969C80.0504 15.6778 81.2147 13.7519 82.8206 12.2343C83.1683 11.9087 83.4883 11.6604 83.8636 11.3845C85.486 10.1814 87.3402 9.36471 89.3268 8.9729C89.7352 8.89013 90.0994 8.83494 90.5022 8.80735L91.2748 8.75217C92.0419 8.69698 93.4712 8.84046 94.2658 9.0336C96.6222 9.61304 98.7964 10.8105 100.485 12.5709C102.279 14.4361 103.746 17.1953 103.94 19.8L104.122 19.9656V22.8462C103.984 22.918 103.929 23.0062 103.918 23.1277C103.879 23.6188 103.813 24.0492 103.68 24.5348C103.024 26.9243 101.716 29.1317 99.8504 30.7872C98.1342 32.3103 96.0758 33.4361 93.8188 33.7341L93.0573 33.8334L92.9083 34.01L90.0608 33.9934L89.7297 33.7782ZM95.684 25.5061C96.2745 24.8604 96.7877 24.1541 97.0692 23.3153C97.4168 22.2889 97.4775 21.4942 97.2954 20.4402C97.0636 19.0882 96.3683 17.9459 95.3695 17.0077C94.2327 15.9482 93.0793 15.595 91.5452 15.446C90.0111 15.297 90.6236 15.5177 90.1711 15.606C88.2121 16.0034 86.2034 17.9017 85.8171 19.7117L85.6019 20.7216C85.6019 21.737 85.5467 21.8695 85.7895 22.8572C86.2531 24.7666 88.0797 26.6318 89.978 27.1395C91.8763 27.6472 94.2217 27.1009 95.684 25.5061Z" fill="white"/>
<path d="M77.9695 33.1937C77.7046 33.3151 77.3624 33.4641 77.0975 33.4861C75.889 33.58 74.8184 33.5082 73.6706 33.133C72.0758 32.6087 70.7017 31.6871 69.5759 30.4289C68.5771 29.3197 67.9149 27.9677 67.5396 26.5219C67.4845 26.3012 67.2803 25.1423 67.2803 24.9436V3.33349C67.5396 2.03114 68.3288 0.944011 69.5539 0.497019C70.6851 0.0831374 71.9268 0.276284 72.8152 1.07094C73.3561 1.55656 73.7534 2.14703 73.9134 2.85339C73.9686 3.09068 74.0734 3.32245 74.0734 3.58733V24.618C74.0734 25.214 74.388 25.6886 74.7301 26.1135C75.0723 26.5384 75.3592 26.6709 75.7786 26.8254C76.198 26.9799 76.6119 26.8916 77.0203 26.9578C78.2454 27.151 79.2718 27.9401 79.7078 29.0714C80.3369 30.7104 79.5256 32.4652 77.9695 33.1881V33.1937Z" fill="white"/>
<path d="M45.9243 9.03286C43.6673 10.4732 41.7745 12.5205 40.6984 14.9541C40.4776 14.8934 40.577 14.7334 40.577 14.5899L40.588 11.4554C40.588 10.6277 40.9302 9.87717 41.493 9.27015C42.0559 8.66312 42.9113 8.28235 43.8053 8.21613C44.3571 8.1775 45.6208 8.48653 45.9298 9.02734L45.9243 9.03286Z" fill="white"/>
</svg>
