<svg width="148" height="23" viewBox="0 0 148 23" fill="none" xmlns="http://www.w3.org/2000/svg">
<path d="M38.9873 19.1016L41.6388 21.9004H140.58L140.874 19.1016H38.9873Z" fill="white"/>
<path d="M98.3516 19.1016L101.003 21.9004H140.874L143.526 19.1016H98.3516Z" fill="white"/>
<g opacity="0.4">
<g opacity="0.4">
<path opacity="0.4" d="M95.7002 21.9492L98.3517 19.1504H140.874L140.58 21.9492H95.7002Z" fill="white"/>
</g>
</g>
<path d="M140.187 14.7792H143.477V5.30249H147.258V2.70007H136.357L136.259 5.25338L140.138 5.30249V14.7792H140.187ZM131.889 14.9756C133.018 14.9756 134 14.8283 134.835 14.4846C135.67 14.1409 136.308 13.699 136.701 13.1097C137.143 12.5205 137.339 11.8331 137.339 11.0965C137.339 10.2618 137.143 9.62348 136.701 9.13246C136.259 8.64144 135.719 8.29772 135.13 8.10131C134.54 7.9049 133.755 7.65939 132.822 7.46298C131.987 7.31568 131.349 7.11927 130.956 6.97196C130.563 6.82465 130.367 6.53004 130.367 6.18632C130.367 5.84261 130.514 5.5971 130.858 5.40069C131.202 5.20428 131.791 5.25338 132.478 5.25338C133.755 5.25338 135.081 5.25338 136.603 5.30249L137.732 2.74917C136.701 2.74917 136.259 2.74917 134.982 2.70007C133.853 2.70007 133.362 2.65097 132.576 2.65097C131.496 2.65097 130.514 2.65097 129.679 2.99469C128.845 3.3384 128.255 3.78032 127.813 4.36955C127.372 4.95877 127.175 5.6462 127.175 6.38273C127.175 7.21747 127.372 7.9049 127.813 8.39592C128.255 8.88695 128.796 9.23066 129.385 9.47617C129.974 9.67258 130.76 9.91809 131.693 10.1145C132.527 10.2618 133.166 10.4582 133.558 10.6055C133.951 10.8019 134.148 11.0474 134.148 11.3912C134.148 11.7349 134 11.9804 133.657 12.1768C133.362 12.3732 132.822 12.4714 132.134 12.4714C131.398 12.4714 130.661 12.3732 129.925 12.1768C129.188 11.9804 128.55 11.6858 128.01 11.3421L126.881 13.7972C127.421 14.19 128.206 14.4846 129.09 14.7301C129.925 14.8774 130.907 14.9756 131.889 14.9756ZM120.006 12.275C119.368 12.275 118.779 12.1277 118.239 11.8331C117.698 11.5385 117.306 11.0965 117.011 10.5564C116.716 10.0163 116.569 9.42707 116.569 8.73964C116.569 8.05221 116.716 7.46298 117.011 6.92286C117.306 6.38273 117.698 5.94081 118.239 5.6462C118.779 5.35159 119.368 5.20428 120.006 5.20428C120.645 5.20428 121.234 5.35159 121.774 5.6462C122.314 5.94081 122.707 6.38273 123.001 6.92286C123.296 7.46298 123.443 8.05221 123.443 8.73964C123.443 9.42707 123.296 10.0163 123.001 10.5564C122.707 11.0965 122.314 11.5385 121.774 11.8331C121.234 12.1277 120.645 12.275 120.006 12.275ZM120.006 14.9756C121.283 14.9756 122.461 14.7301 123.492 14.19C124.524 13.6499 125.309 12.9133 125.898 11.9804C126.488 11.0474 126.782 9.9672 126.782 8.78874C126.782 7.61029 126.488 6.53004 125.898 5.5971C125.309 4.66416 124.524 3.87853 123.492 3.3384C122.461 2.79828 121.332 2.55277 120.006 2.55277C118.73 2.55277 117.551 2.79828 116.52 3.3384C115.489 3.87853 114.703 4.61506 114.114 5.5971C113.525 6.53004 113.23 7.61029 113.23 8.78874C113.23 9.9672 113.525 11.0474 114.114 11.9804C114.703 12.9133 115.489 13.6499 116.52 14.19C117.551 14.7301 118.73 14.9756 120.006 14.9756ZM108.615 0.0976562V4.41865H101.937V0.0976562H98.5486V14.7792H101.937V7.26657H108.615V14.7792H112.003V0.0976562H108.615ZM80.6263 14.9756C82.3939 14.9756 83.8179 14.4846 84.7999 13.5517C85.782 12.5696 86.3221 11.2439 86.3221 9.57438V2.70007H83.0323V9.42707C83.0323 10.36 82.8359 11.0474 82.443 11.5385C82.0502 12.0295 81.461 12.275 80.6754 12.275C79.8897 12.275 79.2514 12.0295 78.8586 11.5385C78.4658 11.0474 78.2203 10.36 78.2203 9.42707V2.70007H74.9304V9.57438C74.9304 11.2439 75.4214 12.5696 76.4526 13.5517C77.4346 14.5337 78.8586 14.9756 80.6263 14.9756ZM69.0381 14.9756C70.1675 14.9756 71.1986 14.7792 72.0334 14.4355C72.8681 14.0918 73.6046 13.5026 74.243 12.766L72.0825 10.8019C71.2968 11.784 70.3148 12.2259 69.1363 12.2259C68.4489 12.2259 67.8597 12.0786 67.3196 11.784C66.7794 11.4894 66.3866 11.0965 66.0429 10.5564C65.7483 10.0163 65.601 9.37797 65.601 8.69054C65.601 7.61029 65.9447 6.77555 66.583 6.13722C67.2705 5.49889 68.1052 5.15518 69.0872 5.15518C70.2657 5.15518 71.2477 5.6462 72.0334 6.57914L74.1939 4.61506C73.5555 3.82942 72.8681 3.2893 71.9843 2.94558C71.1495 2.60187 70.1184 2.40546 68.989 2.40546C67.7124 2.40546 66.583 2.65097 65.5519 3.19109C64.5207 3.73122 63.7351 4.46775 63.1459 5.44979C62.5566 6.38273 62.262 7.46298 62.262 8.64144C62.262 9.81989 62.5566 10.9001 63.1459 11.8331C63.7351 12.766 64.5207 13.5026 65.5519 14.0427C66.6321 14.7301 67.7615 14.9756 69.0381 14.9756ZM55.6823 14.9756C57.45 14.9756 58.874 14.4846 59.856 13.5517C60.8381 12.5696 61.3782 11.2439 61.3782 9.57438V2.70007H58.0883V9.42707C58.0883 10.36 57.8919 11.0474 57.4991 11.5385C57.1063 12.0295 56.5171 12.275 55.7314 12.275C54.9458 12.275 54.3075 12.0295 53.9147 11.5385C53.5218 11.0474 53.2763 10.36 53.2763 9.42707V2.70007H49.9865V9.57438C49.9865 11.2439 50.4775 12.5696 51.5086 13.5517C52.4907 14.5337 53.8655 14.9756 55.6823 14.9756ZM38.9385 14.7792H49.6919V12.0295H42.3265V0.0976562H38.9385V14.7792Z" fill="white"/>
<path d="M96.6826 5.20565V2.70145C95.6024 2.70145 93.5892 2.65234 92.7544 2.65234C91.6742 2.65234 90.6922 2.65234 89.8574 2.99606C89.0227 3.33977 88.4335 3.78169 87.9915 4.37092C87.5496 4.96014 87.3532 5.64757 87.3532 6.3841C87.3532 7.21884 87.5496 7.90627 87.9915 8.39729C88.4335 8.88832 88.9736 9.23203 89.5628 9.47754C90.152 9.67395 90.9377 9.91946 91.8706 10.1159C92.7054 10.2632 93.3437 10.4596 93.7365 10.6069C94.1293 10.8033 94.3257 11.0488 94.3257 11.3925C94.3257 11.7362 94.1784 11.9818 93.8347 12.1782C93.5401 12.3746 93 12.4728 92.3125 12.4728C91.576 12.4728 90.8395 12.3746 90.1029 12.1782C89.3664 11.9818 88.7281 11.6871 88.1879 11.3434L87.0586 13.7985C87.5987 14.1914 88.3844 14.486 89.2682 14.7315C90.2011 14.977 91.1341 15.0752 92.1161 15.0752C93.2455 15.0752 94.2275 14.9279 95.0623 14.5842C95.897 14.2405 96.5353 13.7985 96.9281 13.2093C97.3701 12.6201 97.5665 11.9327 97.5665 11.1961C97.5665 10.3614 97.3701 9.72305 96.9281 9.23203C96.4862 8.74101 95.9461 8.39729 95.3569 8.20089C94.7676 8.00448 93.982 7.75896 93.0491 7.56256C92.2143 7.41525 91.576 7.21884 91.1832 7.07153C90.7904 6.92423 90.594 6.62961 90.594 6.2859C90.594 5.94218 90.7413 5.69667 91.085 5.50026C91.3796 5.30385 91.9688 5.35296 92.6071 5.35296H96.6826V5.20565Z" fill="white"/>
<path d="M92.2139 2.65234L91.3301 5.20565H96.7313V2.65234H92.2139Z" fill="white"/>
<path d="M0 0V22.0469H27.9883V0H0ZM14.7798 18.3642H3.14254V3.68267H6.53059V15.5654H14.7798V18.3642ZM24.8457 18.3642H21.4577V10.8516H14.7798V13.3067H11.3917V3.68267H14.7798V8.00366H21.4577V3.68267H24.8457V18.3642Z" fill="white"/>
</svg>
