<svg width="157" height="29" viewBox="0 0 157 29" fill="none" xmlns="http://www.w3.org/2000/svg">
<path d="M93.0067 27.8914C91.912 27.5265 90.127 27.2997 90.1171 26.7474C90.3735 26.3628 90.837 26.6586 91.1723 26.7671C91.7542 26.9545 92.4248 26.994 93.0461 27.1222C95.2946 27.6054 98.9534 28.0492 100.778 26.3825C102.602 24.7158 101.577 25.0216 100.995 24.3707C99.5156 22.6941 95.0185 23.0097 92.9672 23.3549C92.1289 23.4929 91.2512 23.8874 90.4228 23.8677C89.693 23.848 89.4169 21.915 89.4366 21.8263C89.4761 21.6685 89.7226 21.4712 89.8903 21.3529L90.7384 20.7316C91.3301 20.2977 91.8429 19.9328 92.4741 19.5383C92.6319 19.4397 92.8291 19.0846 92.8094 18.8874C92.7305 18.2069 91.1723 18.4535 89.8705 15.7809C89.4859 14.9919 89.1999 12.6743 89.3577 11.6388C89.6043 9.95243 89.4761 9.55795 90.3636 8.00962C91.8035 5.49481 94.6339 4.6171 97.4347 4.90309C100.344 5.19895 100.028 2.12201 100.738 2.03326C101.449 1.9445 103.391 1.75712 103.391 2.28967C103.391 2.82222 103.273 2.67429 103.174 2.8518C102.208 4.6171 101.113 4.48889 100.955 5.19895C100.798 5.90902 101.143 5.65261 101.291 5.71178C102.356 6.14571 102.977 6.94453 103.608 7.85183C104.752 9.48892 104.851 11.8657 104.634 13.8676C104.417 15.8696 104.289 15.1004 104.052 15.7118C103.421 17.3095 102.05 18.5028 100.413 19.0255C96.6753 20.2188 97.415 18.8085 94.2493 20.633L93.0856 21.3036C92.6911 21.5304 92.2078 21.8953 92.5727 22.3884C94.0816 22.2898 95.2059 21.5994 96.626 21.5403C98.0363 21.4811 99.3972 21.491 100.807 21.5403C101.508 21.56 102.178 21.846 102.809 22.0531C104.535 22.6251 105.975 24.0847 105.147 25.988C104.693 27.0235 102.859 27.921 101.705 28.1084C99.1605 28.5028 96.7049 28.4535 94.1605 28.1084C91.6161 27.7632 93.3518 28.0492 92.9968 27.9308L93.0067 27.8914ZM98.6872 17.8322C99.3578 17.5067 99.9594 16.9249 100.393 16.3233C100.827 15.7217 100.65 15.7217 100.768 15.485C101.508 14.0846 101.488 10.4061 100.847 9.00568C100.206 7.60528 99.8509 7.26011 98.9732 6.76701C97.7306 6.06681 96.4781 6.03722 95.2157 6.67825C93.9534 7.31928 93.2927 8.53231 92.9869 9.76506C92.3656 12.3094 92.6023 16.3627 95.2256 17.7631C96.1921 18.276 97.6122 18.3351 98.6773 17.8223L98.6872 17.8322Z" fill="white"/>
<path d="M148.904 22.9106L148.293 24.4293L147.671 25.9875L147.089 27.3682C146.902 27.8218 145.847 27.8317 145.561 27.5358C145.304 27.1019 145.797 26.6778 145.936 26.3425L146.675 24.6463C146.853 24.2321 147.02 23.7686 147.237 23.4234C147.77 22.5555 147.257 21.7863 146.971 20.9973L146.33 19.2123L145.719 17.5161L145.078 15.731L144.535 14.2123L143.894 12.4174L143.529 11.4016L143.007 9.9815L142.336 8.09786C142.158 7.60476 142.001 7.17084 141.863 6.64815C141.724 6.12546 141.705 6.21422 141.586 6.14519C141.182 5.9085 140.561 6.6087 140.038 6.55939C139.446 6.50022 138.855 6.39174 138.362 6.74677C138.026 6.98346 138.194 7.44697 138.204 7.802L138.223 19.8139C138.223 20.5831 139.19 21.2044 139.831 21.0762C140.472 20.948 140.561 20.9184 140.896 20.9086C141.231 20.8987 141.202 21.5496 141.152 21.7863C140.886 22.9007 137.454 22.8711 136.498 22.4964C135.482 21.5398 135.166 21.5397 135.166 20.1591V6.99332C134.121 5.92822 133.44 6.98346 132.79 6.35229C132.139 5.72112 132.573 5.75071 132.691 5.4943C133.066 4.69548 134.762 5.72112 135.087 4.69547C135.413 3.66983 134.87 2.52584 135.176 2.05246C135.294 1.86509 135.719 1.70729 135.985 1.68757L138.194 1.48047L138.233 4.89271C138.717 5.26747 139.446 5.24775 140.028 5.22802L141.281 5.17871C142.385 5.13927 143.46 5.1294 144.594 5.15899C145.117 5.80988 145.324 6.66787 145.561 7.41738L146.133 9.17282L146.498 10.0703C146.754 10.7014 146.872 11.2833 147.089 11.9046L147.701 13.6107L148.312 15.3168L148.835 17.1413C148.884 17.309 149.18 17.5358 149.338 17.5358C149.496 17.5358 149.772 17.3188 149.831 17.1512L150.314 15.8001L150.867 14.4293L151.508 12.8711L152.139 11.3326L152.701 9.95192L153.332 8.40358L153.973 6.85525C154.2 6.31284 154.269 5.68167 154.772 5.30692C155.166 5.01106 155.936 5.14913 156.182 5.47457L155.59 6.73691L154.989 8.21621L154.387 9.67578L153.786 11.1354L153.155 12.6738L152.553 14.163L151.951 15.6226L151.35 17.0723L150.748 18.5318L150.117 20.0802L149.515 21.5595L148.924 22.9599L148.904 22.9106Z" fill="white"/>
<path d="M33.6666 7.64457C32.3451 8.51242 32.2564 9.36055 31.8027 10.7215V21.2344C31.8027 21.55 32.1873 22.3389 31.5956 22.4178C30.7869 22.5263 29.85 22.4967 29.0019 22.4573C28.1538 22.4178 28.5384 21.8853 28.7455 21.5796V6.12582C28.7455 5.93844 28.6074 5.62286 28.6666 5.49465C28.7258 5.36644 29.0512 5.1199 29.2287 5.1199H31.2603C32.4339 5.1199 31.1222 6.99367 32.0591 7.1416C32.996 7.28953 33.213 5.64258 34.9585 5.15934C36.6844 4.68597 38.43 4.76486 40.0572 5.30727C41.3688 5.95816 42.2959 6.97395 42.6213 8.40394V21.3429C42.6213 21.6289 42.9665 22.3488 42.4142 22.4178C41.6055 22.5164 40.6785 22.4869 39.8205 22.4474C38.9625 22.408 39.357 21.8656 39.5542 21.5796L39.5246 9.74517C39.5246 8.79842 38.7653 7.8418 38.0355 7.4276C36.6943 6.67809 34.8994 6.82602 33.6666 7.6347V7.64457Z" fill="white"/>
<path d="M21.8124 19.302C20.3824 21.5012 18.1536 23.1284 15.6881 23.9273C14.554 24.2922 13.5086 24.7754 12.2266 24.6965C13.0352 23.5821 13.5086 22.5466 13.8637 21.3434L14.2187 20.1205L14.9978 18.089C16.6053 13.9075 18.4988 9.9331 20.7868 6.07707C23.0747 2.22103 21.053 5.40645 21.3095 5.43604C22.5915 6.73782 22.9367 8.41436 23.5284 10.0021C24.2089 11.8069 24.0215 13.3947 23.489 15.298L23.0254 16.9746L22.4337 18.2566C22.2858 18.5722 22.0195 18.9864 21.8124 19.302Z" fill="white"/>
<path d="M60.1853 21.1857C59.9881 21.7379 57.7297 22.4086 57.4437 22.4677C54.7119 22.9904 51.3983 22.9017 49.0018 21.304C48.3904 20.8997 47.9071 20.2882 47.4239 19.7261C46.4673 18.6018 45.846 16.3533 45.8657 14.8247L45.8953 12.0239C45.8953 11.7083 46.0235 11.2546 46.1221 10.9489L46.5955 9.41045C46.99 8.1284 48.3904 6.5702 49.6428 5.82069C51.6054 4.63725 54.8401 4.64711 56.921 5.32759C58.4496 6.03765 59.9092 7.51695 60.3431 9.05542C60.777 10.5939 60.7376 9.84438 60.777 10.1402L61.0729 12.1619C61.0926 12.3099 61.0827 12.6255 61.0532 12.7537C61.0236 12.8819 60.6981 13.0101 60.4812 13.0101H49.7908C49.2582 13.0101 48.9821 13.4933 49.0413 13.9667C49.2484 15.7714 49.2385 17.0634 50.1063 18.6511C50.6192 19.588 51.4673 20.4263 52.4141 20.8799C53.3608 21.3336 54.3766 21.5111 55.1064 21.4519C58.9032 21.1364 59.4752 19.0358 59.9881 19.8346C60.5009 20.6334 60.353 20.7419 60.1952 21.1758L60.1853 21.1857ZM57.1971 11.7971C57.3746 11.7971 57.6705 11.659 57.7395 11.5308C58.0452 10.9785 57.3253 8.72998 56.7336 7.86212C55.7869 6.46172 54.1695 5.75166 52.4634 6.2842C49.6823 7.15206 48.6961 11.7773 49.5344 11.7773H57.1971V11.7971Z" fill="white"/>
<path d="M0.579786 15.4942C-0.169725 13.2457 -0.199311 12.2792 0.530476 9.98135L1.1222 8.14702C1.78295 6.076 4.10052 3.5612 6.01374 2.44679C7.24649 1.72687 7.40428 1.73673 8.568 1.34225C9.73171 0.947769 11.8126 0.316602 13.568 0.859012C12.6903 1.88466 12.0197 2.81169 11.2998 3.8472C8.03545 8.55136 5.1163 13.4133 2.66066 18.581C2.53246 18.8571 2.4437 19.0445 2.25632 19.2319C1.33916 18.0978 1.03344 16.8157 0.589647 15.4843L0.579786 15.4942Z" fill="white"/>
<path d="M79.9294 21.2838C80.028 23.2562 76.0438 22.7631 75.3534 22.4574C74.2785 21.984 73.8544 20.8006 73.8544 19.6763V6.87546C72.9668 5.89912 71.9214 7.04311 71.4875 6.35277C71.0536 5.66243 71.2706 5.66243 71.4185 5.41588C71.9017 4.63679 72.9076 5.78078 73.8248 4.85375L73.8544 2.46715C73.8544 1.98391 74.1404 1.77681 74.594 1.7275L76.527 1.47109C76.6651 1.45136 76.9905 1.55985 77.0595 1.66833C77.2469 1.96419 76.813 3.61114 77.1483 4.82416C77.4047 5.77091 79.2982 4.71568 79.7519 5.39616C79.9097 5.64271 79.8603 6.13581 79.673 6.38236C79.1503 7.06283 77.9767 5.83009 77.0497 7.03325V19.7848C77.0497 20.3173 77.4639 20.8104 77.7795 20.9682C78.7755 21.4811 79.2193 20.7118 79.7321 20.9387C80.245 21.1655 79.9294 21.1951 79.9294 21.3035V21.2838Z" fill="white"/>
<path d="M70.4714 20.9288C70.9447 21.2838 70.6883 22.1813 70.215 22.3391C68.9625 22.7631 67.572 22.9012 66.2899 22.4968C65.0078 22.0925 64.6429 21.0866 64.6429 20.0018V7.94055C64.6429 7.50663 64.9191 7.05297 64.4457 6.7078C63.5384 6.04705 62.1676 7.13187 62.0492 5.89912C61.9309 4.66637 62.3845 5.04113 62.9072 5.12989C63.4299 5.21864 63.9822 5.27782 64.4753 4.93265C65.2445 4.40996 63.8145 1.86557 65.3136 1.69791L67.71 1.43164C68.0552 2.51646 67.2662 4.62692 67.9763 4.99182C69.0217 5.52436 69.929 4.69596 70.5996 5.56381C71.2702 6.43167 70.6489 6.12595 70.5207 6.23443C69.9388 6.76697 68.9921 6.14567 67.9467 6.74725C66.9013 7.34883 67.7593 7.62497 67.7593 8.06876L67.7396 18.3252C67.7396 19.1931 67.5029 19.9722 68.2623 20.6822C69.2682 21.629 70.0769 20.6329 70.4615 20.9288H70.4714Z" fill="white"/>
<path d="M127.257 22.5063L126.3 21.7173C125.896 20.8791 125.866 20.0507 125.866 19.1532L125.896 7.42732C125.896 5.79023 123.559 6.9638 123.154 6.21429C122.75 5.46478 123.075 5.45492 123.292 5.33657C124.239 4.83361 125.393 5.61271 125.768 4.75472C126.3 3.52197 125.186 1.92433 126.32 1.76654L128.45 1.46081C129.604 1.29316 128.618 2.9697 129.071 4.80403C129.279 5.66202 130.847 4.80403 131.468 5.34644C132.089 5.88885 131.685 5.95788 131.567 6.20443C131.142 7.09201 129.801 5.90857 128.983 6.87504V19.7844C128.983 20.5438 129.821 21.1848 130.492 21.0862C130.955 21.0171 131.399 20.7607 131.823 20.9481C132.247 21.1355 132.02 21.6089 131.912 21.7962C131.31 22.9205 128.519 22.8317 127.267 22.4964L127.257 22.5063Z" fill="white"/>
<path d="M10.0576 24.4309C9.50529 24.3915 9.05164 24.1745 8.54868 23.9576C8.04572 23.7406 7.74986 23.8096 7.51317 23.6716C5.55063 22.5868 5.51118 22.7445 3.66699 21.0088C5.03781 17.0936 6.92145 13.6617 9.00233 10.1804L11.0438 6.75826C11.2706 6.37364 11.6355 5.81151 12.0201 5.71289C12.5625 6.11723 12.0004 6.59061 11.9018 6.97522C11.6453 8.02059 11.3791 9.06597 11.2114 10.1311L10.7085 13.3954C10.452 15.0423 10.2745 16.6597 10.1463 18.3362L10.0083 20.1508C9.89977 21.5808 9.88005 22.8136 10.0576 24.4112V24.4309Z" fill="white"/>
<path d="M108.302 22.5066C108.036 22.5066 107.779 22.2206 107.779 21.974V5.49466C107.779 5.33686 108.223 5.1199 108.391 5.1199L110.294 5.13962C111.32 5.13962 110.373 6.38224 110.915 6.68796C111.458 6.99368 112.109 5.58341 113.006 5.25797C113.519 5.07059 115.363 4.48873 115.294 5.50452L115.225 6.49072C115.205 6.81616 115.107 7.19092 114.683 7.19092C112.375 7.19092 110.876 9.00552 110.876 11.116L110.856 20.8991C110.856 21.4119 111.211 21.9839 110.748 22.4671L108.312 22.5263L108.302 22.5066Z" fill="white"/>
<path d="M13.0647 17.999C12.976 18.2456 12.69 20.1982 12.0391 19.9221C11.3882 19.646 11.7827 19.5473 11.8024 19.429L12.2659 15.3954C12.5223 13.0976 12.759 10.9773 13.3211 8.70901L14.0411 5.78986C14.189 5.17842 14.3369 4.57684 14.544 3.97526L15.402 1.49004C16.2699 1.14487 19.3961 3.19616 19.8498 3.79774C20.3034 4.39933 19.8498 4.31057 19.7413 4.48808C18.0845 7.45654 16.4375 10.356 14.9977 13.4329L14.2975 14.9221C14.0509 15.4448 13.8142 15.9872 13.617 16.5394L13.0746 17.999H13.0647Z" fill="white"/>
<path d="M121.054 22.4191C120.028 22.498 119.062 22.5079 118.155 22.4586C117.543 22.429 117.869 21.7978 117.869 21.4625V6.12711C117.869 5.93973 117.711 5.61429 117.8 5.49595C117.888 5.3776 118.233 5.14091 118.411 5.14091L120.551 5.11133C120.936 5.11133 121.064 5.3776 121.064 5.74249V22.429L121.054 22.4191Z" fill="white"/>
<path d="M85.5801 22.4468C84.653 22.4962 83.8641 22.4962 82.9864 22.4567C82.1086 22.4173 82.5426 21.8453 82.7398 21.579V5.99705C82.7398 5.83926 82.6017 5.58285 82.6609 5.48423C82.7201 5.38561 83.0159 5.13906 83.154 5.13906L85.1757 5.09961C85.373 5.09961 85.728 5.2574 85.8266 5.39547C85.9252 5.53354 85.797 5.89843 85.797 6.12526V21.5888C85.9745 21.8058 85.9154 22.4271 85.5702 22.4468H85.5801Z" fill="white"/>
<path d="M121.645 1.93482C121.172 3.56205 119.17 3.54233 118.105 2.98019C117.632 2.73365 117.494 2.13206 117.503 1.708C117.513 1.28393 118.075 0.968349 118.48 0.613318C118.835 0.297734 118.983 -0.0277096 119.594 0.00187641C120.206 0.0314624 120.196 0.149806 120.324 0.534423C120.916 0.711939 121.527 1.2149 121.636 1.92496L121.645 1.93482Z" fill="white"/>
<path d="M85.8468 2.84243C84.9099 3.65112 82.4247 3.45387 82.2669 2.03375C82.188 1.2941 82.7797 0.968656 83.3418 0.593901C83.904 0.219145 83.8349 0.00217906 84.2491 0.012041C84.6633 0.021903 84.9691 0.169835 85.1959 0.584038C85.6495 0.820726 86.1624 1.15603 86.3695 1.62941C86.5766 2.10278 86.1919 2.54657 85.8468 2.84243Z" fill="white"/>
</svg>
