<svg width="99" height="63" viewBox="0 0 99 63" fill="none" xmlns="http://www.w3.org/2000/svg">
<path d="M87.4 25.1095C82.519 30.3599 70.5694 34.1617 63.6077 35.834C59.5921 42.7277 52.3679 47.3461 44.3755 47.6281L42.4601 47.6961C33.0287 47.7739 24.9295 42.154 21.3222 33.5102C20.2916 31.0406 19.5623 28.5417 19.3582 25.8193C17.0732 26.7138 14.9633 27.6861 12.834 28.7362C13.3979 28.1723 13.9716 27.7931 14.5841 27.3361C16.1009 26.3152 17.6761 25.4304 19.2901 24.6039C18.8234 11.7209 28.702 0.899121 41.5656 0.0532163C42.5379 -0.014845 43.4616 -0.00512135 44.4339 0.0143247C44.745 0.072663 45.0075 0.10183 45.3381 0.131C53.8166 0.918566 61.2256 6.27597 64.7064 14.0058L70.2097 14.0252L71.9987 14.1127C76.1407 14.3558 81.4398 15.0267 85.2123 16.7769C87.4875 17.8367 89.9183 19.7813 88.946 22.6107C88.6251 23.5538 88.0709 24.3608 87.3806 25.0998L87.4 25.1095ZM45.7562 3.93271C45.3673 3.82576 44.6089 3.54379 44.3658 3.8452C45.0853 3.82576 45.5034 4.34108 45.7562 3.93271ZM44.7645 4.34108L42.781 3.9716C42.3337 3.8841 41.867 3.86465 41.4197 4.098C42.4407 4.69111 43.7047 4.65222 44.7645 4.34108ZM47.3119 4.52582C47.4091 4.56471 47.5744 4.54526 47.6133 4.48693C47.3022 4.1369 46.8258 3.94243 46.4174 4.18551L47.3216 4.51609L47.3119 4.52582ZM36.1304 5.07031L37.8028 4.1369C36.4804 4.1369 35.3234 4.71056 34.4191 5.69258C35.022 5.65369 35.5665 5.38145 36.1304 5.07031ZM42.0517 4.67166C40.2821 3.64102 37.7736 4.12717 36.2374 5.37172C37.793 5.30366 41.0114 5.78009 42.0517 4.67166ZM53.1943 6.57738L50.5302 5.20643C49.8691 4.86612 49.1593 4.66194 48.4203 4.69111C49.2662 4.97308 50.0441 5.28421 50.8705 5.66341C51.6192 6.00372 52.2901 6.47043 53.1943 6.56766V6.57738ZM44.1908 5.55646L44.6575 4.87585L43.5491 4.84668C43.5102 4.84668 43.4032 5.02169 43.4324 5.05086L43.5588 5.12864L44.2005 5.55646H44.1908ZM48.5856 7.23855C48.4398 6.38292 48.2161 5.73148 47.9731 5.02169L46.4368 4.8564C45.7659 4.78834 44.4922 4.97308 44.5214 5.97455C45.8632 6.48015 47.1563 6.91769 48.5856 7.24827V7.23855ZM34.3705 5.08975C33.5149 5.20643 32.7079 5.6148 32.1148 6.27597C32.9899 6.1204 33.7871 5.78009 34.3705 5.08975ZM43.8991 5.78009C43.2185 5.15781 42.1879 4.88557 41.4878 5.50785C42.4115 5.50785 43.3546 6.1204 43.8991 5.78009ZM52.0956 7.92888L52.7665 7.24827L50.6275 6.15929C49.9566 5.81898 49.3051 5.60507 48.5565 5.43006L48.9745 7.45246C49.8982 7.50107 50.6275 7.87055 51.3761 8.36642C51.6192 8.32753 51.9012 8.13307 52.0956 7.93861V7.92888ZM38.7265 6.86907C39.0084 6.18846 39.7571 6.18846 39.9904 5.62452L37.7444 5.60508C36.9958 5.60508 34.847 5.55646 34.8372 6.66489C35.4498 6.50932 36.0429 6.48015 36.6652 6.57738L38.7167 6.87879L38.7265 6.86907ZM42.7907 7.80248L43.7338 6.16901C42.5962 5.88704 39.7863 5.34255 39.339 6.88852L42.7907 7.79276V7.80248ZM34.5844 5.96483C33.9719 5.85787 33.5927 6.23707 33.4177 6.70378C33.9816 6.81073 34.4483 6.45098 34.5844 5.96483ZM44.6964 7.73442L45.4937 7.13159C45.2214 6.97602 45.0562 6.85935 44.8909 6.63572C44.7256 6.41209 44.395 6.16901 44.1616 6.3732C43.6658 6.81073 43.3352 7.42328 43.0435 8.00667C43.6269 8.25947 44.2102 8.12335 44.7061 7.74415L44.6964 7.73442ZM32.3287 6.91769C32.6495 6.85935 32.9607 6.70378 33.1163 6.38292C32.6787 6.42181 31.1911 6.72323 30.9383 7.15104L32.3287 6.91769ZM46.5535 6.9663C46.1062 6.8399 45.9312 6.78156 45.6298 6.74267C45.6687 7.07325 45.9507 7.14132 46.1549 7.15104C46.359 7.16076 46.466 7.07326 46.5535 6.9663ZM37.7639 8.32753C37.9486 7.50107 38.3375 7.70525 38.3473 7.08298L36.8305 6.95658C35.4984 6.84963 33.3593 6.75239 33.194 8.55116L35.6637 8.37614C36.354 8.32753 37.0735 8.32753 37.7639 8.32753ZM33.0774 8.12334L33.6219 7.08298C32.6204 6.98575 32.4356 7.98722 32.1051 8.71645C32.6009 8.80396 32.8732 8.51227 33.0774 8.12334ZM54.3028 7.61775C54.3222 7.40384 54.2833 7.27744 54.1764 7.17048C54.0694 7.06353 53.9722 7.08298 53.7583 7.16076L54.2931 7.62747L54.3028 7.61775ZM31.4342 8.94008C31.6092 8.45393 32.3579 7.64691 32.2606 7.37467C32.1342 7.01492 28.6825 8.21085 28.9062 9.78599C29.3534 9.55263 29.7424 9.35817 30.1702 9.25122L31.4244 8.94008H31.4342ZM42.6059 8.22058L40.9433 7.70525C40.3988 7.53996 39.8543 7.3455 39.3001 7.32605C38.6098 7.29688 38.1722 7.89971 38.2306 8.51227C38.8334 8.4831 39.3487 8.50254 39.8932 8.62894C40.9336 8.87202 42.3337 9.43596 42.6059 8.2303V8.22058ZM48.7606 9.65958V7.79276C48.0606 7.45246 47.3216 7.25799 46.5341 7.45246C47.1661 8.57061 47.9245 9.48457 48.7995 10.418L48.7509 9.65958H48.7606ZM46.6313 9.62069C47.1661 9.93183 47.6133 10.243 48.2648 10.3499L47.0105 8.80396C46.6118 8.30808 46.1549 7.84138 45.6493 7.48162C45.0853 8.00667 44.3464 7.84138 44.1227 8.52199C45.0367 8.7359 45.8048 9.13454 46.6313 9.62069ZM53.9236 10.0291L54.3028 8.71645C54.5264 7.93861 53.8263 8.08445 53.3305 7.4719C53.1068 7.52051 52.8249 7.67609 52.6207 7.84138L51.9304 8.39559C52.2026 9.26094 53.0193 9.7082 53.9138 10.0291H53.9236ZM58.0753 10.3402L56.2279 8.64839C55.7709 8.28864 55.3529 7.94833 54.7792 7.71498C55.0126 8.11362 55.2945 8.41503 55.6348 8.68728L57.2489 10.0096C57.4822 10.2041 57.7836 10.3596 58.0656 10.3402H58.0753ZM50.9678 8.79423C50.4233 8.55116 50.0732 8.39559 49.6357 8.16224L49.0815 7.87054C49.2565 8.79423 48.9259 10.1652 49.3149 10.7291L50.958 8.78451L50.9678 8.79423ZM43.0921 9.29011C43.2379 9.00814 43.3449 8.86229 43.5199 8.63866C43.5199 8.4831 43.0143 8.26919 42.8587 8.39559L42.4796 9.05676L43.0921 9.29011ZM27.1463 10.5444C27.8075 10.0971 28.9937 9.36789 28.8576 8.43448C27.8658 9.17343 25.8045 10.311 25.5906 11.6042L27.1463 10.5444ZM56.6946 10.7194C56.4807 10.3013 56.2571 9.99989 55.9946 9.66931L54.7014 8.57061L54.1569 10.3791L56.7044 10.7291L56.6946 10.7194ZM37.2097 10.5638C37.2097 9.61097 37.5208 9.5818 37.443 8.7359C35.7901 8.62894 34.6331 8.90119 33.0093 8.91091C32.562 9.76654 32.2315 10.6805 32.2606 11.6917L34.4191 11.1764L37.1999 10.5638H37.2097ZM41.8864 9.49429C41.3225 9.19288 40.6905 9.09565 40.0488 9.01786L37.8417 8.76507C37.6958 9.30956 37.5889 9.95128 37.6083 10.5444C38.7167 10.1068 41.5948 10.8847 41.8864 9.48457V9.49429ZM47.6133 10.6124C46.5146 10.068 45.8048 9.41651 44.7159 8.95953C44.1908 8.80396 43.6852 8.9498 43.4421 9.44568C45.095 9.48457 46.1646 10.6611 47.6133 10.6124ZM51.872 10.6124C52.3582 10.5541 52.7763 10.4763 53.1943 10.243C53.0388 10.0485 52.8735 9.86377 52.679 9.74709L51.3761 8.96925C50.7539 9.74709 50.1899 10.1068 49.5774 10.8652L51.872 10.6124ZM32.0662 11.8278C31.9203 10.8069 32.2509 9.98045 32.5815 9.12482C31.0939 9.15399 30.8897 11.3611 30.773 12.3723L32.0662 11.8278ZM30.1799 12.6057C30.3452 11.4097 31.0744 10.4472 31.123 9.37762L29.2951 9.97072C28.9742 10.0777 28.6728 10.2235 28.3714 10.3888C28.0408 11.507 27.7102 12.5376 27.613 13.7335C28.6242 13.5196 29.159 12.9071 30.1702 12.6154L30.1799 12.6057ZM42.9657 10.1944C43.0629 10.0291 42.9949 9.69848 42.8587 9.5818C42.7226 9.46512 42.3823 9.39706 42.2948 9.52346C42.1684 9.69848 42.042 9.94155 41.9156 10.1846H42.9657V10.1944ZM45.0756 10.2819L44.0547 9.93183L43.2379 9.66931C43.2088 10.0291 43.4324 10.311 43.7824 10.3791C44.2102 10.4666 44.677 10.3985 45.0756 10.2819ZM57.9781 11.0305L57.385 10.3791C57.3364 10.3305 57.21 10.2624 57.1516 10.2527C57.0933 10.243 57.0447 10.3499 57.035 10.3694L57.5794 10.9819C57.6767 11.0986 57.8614 11.1375 57.9781 11.0305ZM24.9489 15.5809L27.2046 14.1127C27.3019 12.8974 27.545 11.7987 27.8464 10.5444C27.1852 10.768 26.7185 11.1569 26.2032 11.5361C24.7544 12.6348 23.9183 14.2683 23.928 16.1157C24.278 15.9504 24.6086 15.7948 24.9489 15.5712V15.5809ZM37.8125 12.9946C38.6778 13.1891 39.4557 13.3543 40.3599 13.3835C40.6419 12.2751 41.1378 11.6723 41.3322 10.6222L39.5918 10.6902C38.882 10.7194 38.1528 10.7583 37.5111 11.0986C37.8028 11.9639 37.618 12.1584 37.8222 12.9849L37.8125 12.9946ZM42.4115 13.3349L43.5005 12.6543C42.956 11.9348 43.1504 11.4195 42.8393 10.6124C41.0114 10.3596 41.2933 12.3529 40.6419 13.5585C41.1767 13.7919 41.8573 13.6849 42.4115 13.3349ZM47.5841 11.1569C46.923 10.9916 46.3688 10.9041 45.7465 10.8458L43.2088 10.6319C43.306 11.3319 43.4713 11.9251 43.7435 12.6057L46.2424 11.8667C46.7285 11.7209 47.1563 11.507 47.5939 11.1569H47.5841ZM53.0193 12.2556L53.593 10.8264C52.4651 10.8264 50.9386 10.9236 49.9955 11.3125C50.5302 11.4292 51.0067 11.5264 51.4831 11.7014L53.0096 12.2556H53.0193ZM57.385 14.3558C57.5794 14.4628 58.0267 14.385 58.2309 14.3364C57.453 12.664 55.5279 11.5945 54.0014 10.8361C54.1667 11.7306 54.5361 11.7889 54.575 12.8293L57.385 14.3558ZM57.0641 11.1375C56.3932 11.2153 55.4598 10.7194 55.1292 10.9625L58.1823 13.4807C57.9975 12.5571 57.56 11.7792 57.0641 11.1375ZM32.2704 12.7807C34.0691 12.8682 35.7998 12.9265 37.5597 12.839C37.2874 12.1779 37.2291 11.6917 37.2194 10.9916C36.9666 10.9333 36.6749 10.9916 36.3832 11.0889C35.3234 11.4195 31.9981 11.5167 32.2606 12.7807H32.2704ZM54.2736 12.489C53.875 11.5847 54.2736 11.8084 53.8458 11.3222C53.5735 11.6917 53.418 11.9834 53.3888 12.3723L54.0402 12.6348C54.1083 12.664 54.3222 12.5571 54.2833 12.489H54.2736ZM45.6687 14.6378C46.5438 14.0544 48.0703 12.4987 48.1578 11.5556L44.1422 12.8293C44.1616 13.2377 44.4242 13.6363 44.7547 13.8988L45.6687 14.6281V14.6378ZM60.613 14.1322C60.0005 12.9265 59.106 12.0806 57.8906 11.575C58.1434 12.5765 58.5517 13.4127 59.0476 14.278C59.5824 14.278 60.0783 14.2586 60.6033 14.1322H60.613ZM52.4165 13.3835C52.611 13.0724 52.7276 12.8585 52.8735 12.5376C51.872 12.4112 50.8511 11.5847 50.1705 11.8667C51.2011 12.4209 51.4248 12.8196 52.4165 13.3835ZM47.6133 15.6879L48.7023 15.5129C48.8287 14.21 48.6245 13.2863 48.8481 11.9737C47.7883 12.6835 46.5341 14.0447 46.359 15.192L47.6133 15.6879ZM50.9483 15.1434C50.6469 14.3169 50.3747 13.8113 50.0052 13.1988L49.1885 12.0126L49.0523 14.1419L48.9356 15.474L50.9386 15.1337L50.9483 15.1434ZM30.8994 13.2279L32.0273 12.9654V12.314L31.0355 12.5959C30.7341 12.6835 30.5008 12.8585 30.3938 13.1891C30.5494 13.2474 30.7341 13.2571 30.8897 13.2182L30.8994 13.2279ZM51.7359 15.017L52.2707 13.9377C51.697 13.4905 50.6275 12.4112 49.9566 12.4598L50.4136 13.2766L51.2789 15.0267C51.3275 15.1239 51.697 15.1045 51.7456 15.0073L51.7359 15.017ZM54.2833 13.5974C54.507 12.9557 53.4374 12.8001 53.0874 12.7904L52.854 13.5002C53.0874 13.9572 53.5833 14.278 54.0402 14.2878L54.2833 13.5974ZM29.9854 13.1599L29.8785 13.0724C29.966 13.1502 28.8089 13.5099 28.8478 13.6849C28.8478 13.7724 30.2091 13.3543 29.9854 13.1696V13.1599ZM45.5131 15.1531C45.377 14.7836 45.1728 14.5406 44.9298 14.3072L43.5977 13.0821C42.9268 13.5877 42.3629 13.4418 41.9642 13.8988C43.2088 14.2002 44.2978 14.6378 45.5131 15.1531ZM38.5125 15.2212C38.4737 15.0267 38.425 14.7934 38.3667 14.6864L37.5986 13.1988H32.4356C32.6009 14.8128 32.9412 16.7477 34.2733 17.8269C35.829 17.0199 36.9082 16.1157 38.5125 15.2309V15.2212ZM33.5149 17.7783L32.6982 15.717C32.3967 14.9392 32.212 14.1905 32.0273 13.3543C31.7356 13.3349 31.3953 13.3543 31.123 13.4224L30.3744 13.6266C29.966 15.1531 29.7813 16.5824 29.8493 18.1964L32.1828 17.9242L33.5149 17.7686V17.7783ZM40.1946 13.7919L39.2515 13.5196C38.8626 13.403 38.4056 13.3154 38.0556 13.5391C38.3861 14.0447 38.5903 14.4725 38.7653 15.017C39.4168 14.9392 40.0293 14.5017 40.1946 13.8016V13.7919ZM55.2362 14.6475L56.8016 14.453C56.1113 13.9377 55.3723 13.6266 54.5847 13.3932C54.4486 13.8988 54.3417 14.2197 54.1667 14.7058C54.4972 14.7058 54.8764 14.6961 55.2362 14.6475ZM23.0723 16.8352C23.471 17.6519 24.2586 13.8016 24.0252 13.6558L23.4904 14.8809C23.2182 15.4934 23.0821 16.1546 23.0723 16.8352ZM28.7117 18.5464L29.4215 18.3131C29.3826 16.6505 29.7521 15.4351 29.8493 13.7433C28.8673 13.8308 28.6631 14.1905 27.6227 14.3558C27.7491 15.6198 27.7783 17.5741 28.7117 18.5562V18.5464ZM53.2624 14.8225C52.9318 14.453 52.7957 14.3655 52.4846 14.1614L52.0276 15.0267L53.2527 14.8322L53.2624 14.8225ZM44.8617 16.1449L45.3965 15.4059C44.0741 14.8128 42.606 14.1225 41.1864 14.3169C40.3113 14.4336 39.7474 15.1726 39.689 16.0379L40.0877 16.5921C40.6516 15.7754 41.4295 15.299 42.2948 15.2017C43.2768 15.0948 44.1325 15.4351 44.852 16.1643L44.8617 16.1449ZM26.5435 19.3437L28.0992 18.5659C27.9242 18.2061 27.7394 17.7978 27.6811 17.3991L27.4769 15.9309C27.4088 15.474 27.2144 15.0267 26.913 14.6961C25.8337 15.9601 23.3446 16.281 23.9572 18.4978C24.1322 19.1298 24.2294 19.7132 24.3266 20.4036C25.1239 20.073 25.824 19.7035 26.5532 19.3437H26.5435ZM21.7208 19.0423C22.4404 17.7589 22.8584 16.456 22.9362 15.0462C22.489 15.7657 22.1876 16.456 21.8764 17.1852C21.7306 17.7978 21.4583 18.4103 21.7208 19.0423ZM39.5821 15.0948L39.3584 15.1823C39.2418 15.2212 39.0668 15.4059 39.1251 15.5129C39.1834 15.6198 39.3585 15.7462 39.4654 15.7268C39.6307 15.7073 39.7765 15.0267 39.5821 15.0948ZM38.8917 17.545C39.3098 16.5241 39.5529 16.2226 38.7556 15.4642L36.743 16.6893C36.1498 17.0491 35.5956 17.4186 35.1095 17.9631C37.2486 18.1478 36.8596 18.0895 38.8917 17.5547V17.545ZM46.4368 15.8823C46.1646 15.7268 45.9118 15.6393 45.6493 15.649C45.3867 15.6587 45.3673 15.9407 45.3478 16.0962L46.4466 15.8823H46.4368ZM39.3584 17.37C39.6501 17.5061 39.8349 17.2436 39.9029 17.0102C39.9516 16.8644 39.7085 16.6505 39.5043 16.6213L39.3584 17.37ZM24.0252 20.423C23.7821 19.3048 23.821 18.5951 23.5293 17.4866C22.5084 18.1575 22.6834 20.598 23.1015 21.5703C23.7432 21.0064 24.2002 21.2106 24.0252 20.423ZM60.4088 20.9189L60.8853 19.509C61.0214 19.1007 61.2256 18.6631 61.1478 18.1964C61.0506 17.9825 60.7686 17.6908 60.5741 17.4769C59.9227 17.4575 59.2907 17.4769 58.6295 17.5353L58.2892 18.3812C59.2226 19.2368 59.5532 20.0827 60.4088 20.9091V20.9189ZM63.3549 20.5883C63.2966 19.4118 62.9174 18.4978 62.5771 17.4866H61.8479C62.0618 18.5853 62.6743 19.7229 63.3549 20.5883ZM81.9648 21.6287C79.2813 18.5659 71.4931 17.788 67.6039 17.5741L65.9607 17.4866C66.6608 19.9368 66.8552 22.3482 66.7774 24.8859C66.6705 28.4542 65.6982 31.8379 64.055 35.0659C69.1888 33.5588 77.6673 30.4961 81.2356 26.6749C82.5871 25.2359 83.4427 23.3399 81.9551 21.6384L81.9648 21.6287ZM58.2212 17.5255L57.5697 17.5741L58.0267 17.9825L58.2212 17.5255ZM57.6864 18.7215C57.5405 18.2353 57.385 17.9436 57.1225 17.5936L56.3835 17.6422C56.646 18.0408 57.0447 18.9354 57.6864 18.7117V18.7215ZM56.1501 20.2285C56.6169 19.9952 56.9766 19.5674 57.0836 19.1298L55.9362 17.72C55.5182 17.7005 55.0223 17.72 54.5653 17.7589L52.4748 17.9436C52.9027 19.2368 53.3499 20.4522 54.6528 20.9675L56.1501 20.2188V20.2285ZM52.5818 19.1007L52.154 18.0117C51.8234 17.9825 51.3859 18.0408 50.9775 18.1089L52.1443 19.0423C52.2318 19.1201 52.5429 19.1493 52.5818 19.1007ZM32.4843 19.3826L33.8358 18.245C32.4648 18.1089 31.1716 18.4006 29.8688 18.5853L29.8299 20.2577L32.4843 19.3826ZM35.8873 18.3228L34.5067 18.2061L34.74 18.702L35.8873 18.3228ZM48.5662 20.7147C49.1496 19.4896 49.4218 19.4118 49.9371 18.2256L48.6829 18.3325L48.3814 20.6272L48.2064 21.1619C48.3814 21.0258 48.4884 20.8897 48.5759 20.7244L48.5662 20.7147ZM53.2041 21.337C52.9999 19.5479 51.7164 18.8673 50.2774 18.2256C49.7329 19.4799 49.0912 20.1508 48.5759 21.3564C49.9566 21.6092 51.9498 21.6773 53.2041 21.337ZM48.0022 21.1425L48.3328 18.3617L45.5618 18.7506C45.4062 19.3048 45.2117 19.684 44.8422 20.1313C45.834 20.6466 46.9133 21.0161 48.0022 21.1425ZM34.3316 18.8187C34.3608 18.8187 34.2636 18.5853 34.2344 18.6048C34.1177 18.6826 33.8941 18.8284 33.7385 18.9645L34.3316 18.8187ZM29.4409 18.7604H28.7117C28.7312 19.4215 28.9062 19.9952 29.4215 20.4522L29.4409 18.7604ZM60.0491 21.337L59.0962 19.8493C58.8045 19.3924 58.4059 19.0229 57.8809 18.7798C57.4822 20.0632 59.0768 20.9869 59.3879 22.3968C59.8546 22.4551 59.9908 21.6967 60.0588 21.3272L60.0491 21.337ZM60.8658 21.8815C61.4881 21.2981 62.0812 19.4701 61.4492 18.8479C61.3909 20.0341 60.263 21.0161 60.8658 21.8815ZM24.8808 22.0954L29.1201 20.4911C28.7798 19.9855 28.4006 19.5382 27.963 19.1298C26.5727 19.7132 25.4837 19.9952 24.4822 21.1328L24.8906 22.0954H24.8808ZM22.5959 21.5411C22.6056 20.7341 22.5473 19.898 22.1778 19.1882C21.2347 20.4619 21.1666 22.0662 21.7597 23.3885C22.3042 23.4858 22.5959 21.9884 22.6056 21.5411H22.5959ZM61.984 24.0011L62.8688 26.111C63.88 24.1275 63.6758 20.9092 61.984 19.3826C61.8867 20.8022 61.4687 21.23 61.2159 22.4648C61.4978 22.9996 61.7409 23.4469 61.9743 24.0011H61.984ZM40.7586 21.8523L41.4684 20.8897C40.885 20.5688 40.4669 20.2188 40.1071 19.7035L38.5028 20.0244L37.9972 22.2801C38.4834 22.7857 39.057 23.1746 39.6599 23.5441C40.0002 22.9218 40.3502 22.4259 40.7586 21.8523ZM59.281 22.8343C58.5615 21.8426 58.2503 20.2771 57.1613 19.7132C56.3349 20.6466 55.8293 20.6369 54.7306 21.3467C55.9362 22.3676 56.8502 23.5344 57.6767 24.8859C58.6004 24.6525 58.7754 23.5344 59.281 22.844V22.8343ZM37.6375 21.9009C37.9389 21.2883 38.1236 20.7439 38.1722 20.0924L36.0234 20.598C36.529 21.1231 36.9958 21.4925 37.6277 21.9009H37.6375ZM54.0402 20.9675C53.8944 20.8022 53.6416 20.6175 53.4666 20.5105C53.4083 20.8022 53.4374 21.0842 53.6513 21.2592C53.7388 21.3272 53.8944 21.3467 53.9722 21.3175C54.05 21.2883 54.0986 21.0355 54.0402 20.9772V20.9675ZM37.2388 23.7774C37.3361 23.5538 37.3944 23.3788 37.4333 23.1941L37.5889 22.2704C36.9082 21.7842 36.3054 21.2592 35.722 20.6466L30.2966 22.0954L30.9091 22.9899C31.0452 23.1941 31.2592 23.408 31.4731 23.5538C32.5134 23.2816 33.5344 23.3107 34.5747 23.4371L37.2194 23.7677L37.2388 23.7774ZM45.2215 26.1596L46.0382 24.7789L47.4578 22.4843C46.3882 21.7453 45.3187 21.1911 44.1908 20.6758C43.413 21.1425 42.5962 21.2592 41.7406 20.9675L39.864 23.758L41.9253 24.8859C42.9657 25.4498 44.0839 25.8971 45.2312 26.1596H45.2215ZM47.8078 22.0565C47.6814 21.5606 47.38 21.4925 47.098 21.2689C46.5049 21.0258 45.9312 20.8216 45.2312 20.7439L46.6021 21.6287C46.9619 21.862 47.3994 21.9981 47.8078 22.0565ZM24.628 22.1926C24.4336 21.7939 24.2683 21.5023 24.0544 21.1814C23.5002 21.6092 23.2474 22.1245 23.3252 22.7565L24.628 22.2023V22.1926ZM54.7111 26.7235C55.8974 26.5291 56.8308 26.1401 57.6572 25.4206C56.7724 23.8552 55.7126 22.2995 54.2153 21.405L53.6027 21.6384C54.293 23.3594 54.2347 24.8956 54.7111 26.7138V26.7235ZM54.3319 26.8694L53.3985 21.7551C51.415 22.1634 49.9274 21.58 48.08 21.9009C48.0411 22.037 47.9925 22.4357 48.0995 22.5232C49.6649 23.8066 50.5497 23.9233 51.8039 25.6346C53.0582 27.3458 53.3402 27.375 54.3319 26.8694ZM60.7394 22.601C60.7783 22.5426 60.8172 22.3676 60.7783 22.3384C60.7394 22.3093 60.6519 22.2509 60.6228 22.2218L60.3408 21.7356L59.7963 22.8149C59.6602 23.0774 59.7671 23.3788 60.0491 23.5441L60.7297 22.6107L60.7394 22.601ZM21.3125 23.6122C21.2541 22.9802 21.2347 22.3871 20.7388 21.9592L20.4082 24.0302C20.7777 23.9038 21.0402 23.7872 21.3125 23.6122ZM30.8897 23.4858C30.2869 22.8051 30.423 22.5037 29.9174 22.1731C29.8201 22.387 29.8007 22.5912 29.8493 22.7857L30.0632 23.7288C30.3257 23.6899 30.6758 23.6024 30.8994 23.4858H30.8897ZM27.9144 23.7191C28.352 23.3594 28.6923 23.0191 29.0423 22.494L25.5226 23.5927L26.3004 25.0414L27.9144 23.7191ZM22.8098 22.9899L22.5862 22.7079C22.4501 22.844 22.3431 22.9899 22.2556 23.1843L22.8001 22.9899H22.8098ZM29.6451 23.7969L29.616 22.6787C28.8381 23.0774 28.2547 23.583 27.8561 24.3122C28.1575 24.2053 28.4103 24.1178 28.6728 24.04L29.6451 23.7872V23.7969ZM38.7459 24.215C39.057 24.3025 39.4849 24.1178 39.4265 23.7774L38.1722 22.8343C38.1139 22.7954 37.9194 22.6885 37.9 22.7371L37.8028 23.0093C37.7055 23.2816 37.5889 23.6413 37.6277 23.8941L38.7459 24.215ZM52.6207 26.8888C51.1428 25.2359 49.7913 23.9038 47.8758 22.8635C47.8758 24.4581 47.1855 25.5179 47.2633 26.8888C48.8384 26.8402 51.4053 27.7931 52.6207 26.8888ZM61.7701 28.1625C62.3243 27.55 62.4021 26.8694 62.3437 26.1304C62.159 24.9248 61.5853 23.865 60.8269 22.8635C60.0394 23.8163 60.5547 25.3234 60.9728 26.3152L61.7603 28.1625H61.7701ZM46.8646 26.7235C46.991 25.5082 47.6522 24.0983 47.4675 22.9413C46.8258 24.3414 46.0674 25.0317 45.4354 26.3346L46.8549 26.7235H46.8646ZM58.2114 25.3234L59.3879 24.3706C59.5046 24.2733 59.6504 24.0205 59.6504 23.8747C59.6504 23.7288 59.4949 23.5441 59.3782 23.4663C59.0768 24.0886 58.1337 24.8373 58.2017 25.3234H58.2114ZM37.0833 23.9914L34.1955 23.6802C33.3496 23.5927 32.5232 23.5538 31.7161 23.9525C33.1454 25.5568 34.5747 26.9861 36.4707 27.9973C36.4707 26.5096 37.2388 25.2456 37.0833 23.9914ZM26.0962 25.4012L25.2892 23.6705L23.5391 24.2636C23.821 25.0609 24.1516 25.7901 24.6378 26.5096C25.0656 25.9749 25.5128 25.6637 26.0962 25.4012ZM36.3151 28.9209C35.7804 27.375 34.5067 27.4528 33.0968 25.9651C32.4454 25.2748 31.8814 24.5553 31.3078 23.7774C30.8508 23.6705 30.7536 23.9719 30.0243 24.0205L30.9383 29.0862C31.5411 29.0182 32.0856 28.9209 32.6398 28.9598L35.3526 29.1251C35.654 29.1446 36.0332 29.0473 36.3054 28.9209H36.3151ZM30.7147 29.1251C30.0827 27.3361 30.0827 25.8582 29.6354 24.1469C28.4881 24.3414 27.5547 24.7303 26.6893 25.4304C27.438 26.8208 28.3617 28.3473 29.6354 29.2418C30.0049 29.3876 30.4132 29.4557 30.7049 29.1154L30.7147 29.1251ZM38.8917 24.5747L38.2597 24.39L37.5014 24.1469C37.4041 25.5276 36.7235 26.7333 36.8694 27.9292C37.5208 26.6166 38.2598 25.8582 38.9015 24.5845L38.8917 24.5747ZM43.0727 25.7707L41.1183 24.7206C40.6224 24.4483 40.0974 24.2636 39.5335 24.1566C39.7182 24.4872 40.0196 24.7011 40.3696 24.8081C41.2933 25.0998 42.1101 25.4984 42.9463 25.9943C43.7824 26.4902 44.1227 26.6846 44.8325 26.7235C44.8325 26.0624 44.045 26.3054 43.0727 25.7707ZM63.4327 29.0376C63.9966 27.4819 64.2494 25.8873 63.8216 24.283C63.4035 25.5957 62.6938 27.7445 63.4327 29.0376ZM24.2488 26.9374C23.7335 26.1401 23.5391 25.2748 23.2765 24.3608L22.032 24.8178C22.2264 25.9943 22.7904 27.0055 23.4904 27.9486L24.2586 26.9374H24.2488ZM60.263 29.6793C60.895 29.2807 61.0019 28.7362 61.0895 28.1236C61.0311 26.6944 60.4575 25.5957 59.7477 24.3608C59.106 25.0706 58.6976 25.0414 58.2406 25.7415C59.349 27.0638 59.3199 28.3181 60.263 29.6793ZM43.0435 29.339C43.5685 28.6001 44.0158 27.9 44.4825 27.1027L42.6837 26.1013C41.6045 25.4984 40.5058 25.0706 39.3001 24.6817C38.6778 25.479 38.1917 26.2568 37.6958 27.093L36.918 28.3959C38.4834 29.4849 40.1557 30.2433 41.8864 30.9628L43.0435 29.3293V29.339ZM22.7126 29.7766L23.1501 28.4542C22.4112 27.268 22.1973 26.1304 21.468 24.9539C20.3499 26.8305 20.768 30.078 22.3528 31.4781C22.4404 30.8364 22.5279 30.3113 22.7029 29.7668L22.7126 29.7766ZM20.4763 26.4513L20.8944 25.2748C20.7583 25.2748 20.3888 25.3915 20.3791 25.5179C20.3596 25.8096 20.4277 26.2082 20.486 26.4513H20.4763ZM24.9683 27.3847C25.2892 26.7624 26.1837 26.1985 25.9893 25.7026L24.8614 26.5971C24.7544 26.6846 24.6378 26.9763 24.6864 27.093C24.735 27.2097 24.9392 27.4139 24.9683 27.375V27.3847ZM56.2377 31.8573L58.3184 30.9336C58.9115 30.6711 59.4463 30.2433 59.8352 29.7182L58.9115 27.4917C58.649 26.8499 58.2989 26.2374 57.7058 25.829C57.0252 27.2389 53.8652 28.464 55.2556 30.2919C55.6348 30.7878 55.946 31.2836 56.2377 31.8573ZM29.5868 29.5238C28.8673 28.9696 28.42 28.4251 27.9533 27.7639C27.4963 27.1222 26.9907 26.4805 26.349 26.0235L25.0267 28.007L26.8546 31.1767L29.5868 29.514V29.5238ZM55.0223 28.3181L55.9071 27.3264C56.1599 27.0736 56.3835 26.8013 56.5585 26.4999C56.1988 26.636 55.9265 26.743 55.5862 26.8305L54.7598 27.0541C54.6625 27.5014 54.682 28.0361 55.032 28.3181H55.0223ZM46.748 26.9958C46.0576 26.9472 45.3576 26.3054 45.0562 26.7721C44.6964 27.3069 46.1549 27.9389 46.5243 28.1625C46.6702 27.7639 46.7674 27.3458 46.7577 26.9958H46.748ZM52.5623 30.5447C53.2041 30.0391 53.7388 29.4849 54.1083 28.7945L52.8929 27.3069C51.7942 27.55 50.7344 27.5597 49.626 27.4236L47.1174 27.1027L46.7285 28.5515C48.4689 29.514 48.9162 31.0406 50.4038 32.2365L52.5623 30.5447ZM54.4681 28.6779C54.5167 28.1139 54.4194 27.6667 54.2444 27.2777L53.593 27.2972C53.5541 27.2972 53.4569 27.3264 53.418 27.3264C53.3791 27.3264 53.4374 27.4041 53.4471 27.4236C54.1764 28.0945 53.9139 28.4056 54.4583 28.6779H54.4681ZM24.0252 29.1251L24.5503 28.1042C24.6864 27.832 24.5794 27.4819 24.2975 27.3361C24.0252 27.6569 23.7141 28.0653 23.5391 28.4251L24.0252 29.1154V29.1251ZM45.4062 32.0615C45.8437 30.9044 46.2035 29.8252 46.359 28.6195C45.8437 28.1431 45.309 27.6958 44.7159 27.2972C43.9283 28.7556 42.8976 29.7571 42.2948 31.1767L45.4062 32.0615ZM62.1395 31.6823C63.0924 30.7975 63.3258 28.5223 62.4993 27.5014C61.3423 28.4153 61.7506 30.3697 62.1395 31.6823ZM26.4462 32.0809C26.8741 30.9433 25.2698 29.5335 24.8128 28.5126C24.5794 28.7459 24.2975 29.1154 24.2683 29.446L25.2309 30.9628C25.5323 31.4198 25.8629 31.8184 26.4365 32.0809H26.4462ZM41.5364 31.1864C39.6015 30.4863 38.4834 29.5432 36.5679 28.7945C36.4707 29.2321 36.811 29.5335 37.1999 29.6113L38.4056 29.8349C39.2418 29.9905 40.5836 31.4587 41.5461 31.1864H41.5364ZM23.014 31.7017L23.121 30.8267C23.5779 30.3988 23.7821 29.8057 23.6946 29.1835L23.2085 28.9307L22.8876 30.2627C22.7418 30.8655 22.6154 31.4392 22.6056 32.0712C22.839 32.0907 22.9946 31.9059 23.0237 31.7017H23.014ZM49.9857 32.4699L48.644 30.71C48.1189 30.0196 47.5453 29.4168 46.748 28.9793C46.5729 29.3293 46.4563 29.6696 46.3688 30.0294L45.8729 32.1004C47.1661 32.3435 48.8093 32.9074 49.9857 32.4796V32.4699ZM60.8561 33.3546C61.8576 32.606 61.6534 30.1849 61.1964 29.1737C59.8449 29.7571 60.6033 32.149 60.8561 33.3546ZM33.9622 32.6351C34.7303 31.5851 35.2651 30.603 35.7512 29.5043C34.1858 29.2612 32.6982 29.2126 31.1717 29.5043C31.1717 30.2627 31.5508 30.885 32.037 31.4295C32.6301 31.8962 33.2329 32.3143 33.9622 32.6449V32.6351ZM54.7014 32.1004C54.7209 31.3614 54.6917 30.0002 54.3417 29.3779C53.5638 30.146 52.8346 30.7683 52.0373 31.41L50.5302 32.6254C51.9206 32.7129 53.4958 32.5865 54.7014 32.0906V32.1004ZM30.8897 30.4475C30.9966 30.0683 30.8702 29.8057 30.6369 29.5529L30.248 29.8252L30.8897 30.4475ZM39.9613 33.6658L41.2933 31.7309C39.6501 30.7489 38.2111 29.9905 36.3443 29.7085L35.7804 33.9283L36.7721 34.4631C37.3555 34.7742 37.8903 35.0465 38.5417 35.2604C39.1057 34.7548 39.5432 34.2589 39.9516 33.6755L39.9613 33.6658ZM30.7827 35.6007C31.2689 34.9978 31.7648 34.7548 32.4065 34.677L31.4342 31.7017C31.0355 30.9725 30.491 30.0683 29.6257 29.9419C28.7312 30.1655 28.0408 30.8947 27.2533 31.3614C28.07 33.0338 29.4215 34.4825 30.7827 35.6007ZM35.5373 33.7533L35.8582 31.4587C35.9262 30.9822 35.9943 30.535 35.9457 30.0002L34.9345 31.6628C34.6817 32.0809 34.4969 32.499 34.3025 33.0046L35.5276 33.763L35.5373 33.7533ZM25.3475 34.8423C25.5226 33.9283 25.717 33.2282 26.0865 32.499C25.6781 32.1393 25.3378 31.7212 25.0364 31.2642C24.735 30.8169 24.4044 30.4183 23.9474 30.0877L23.5585 31.1767C23.3543 31.6531 23.2279 32.1295 23.1501 32.6546C23.8405 33.4713 24.5308 34.1908 25.3573 34.8423H25.3475ZM59.1546 34.9978C60.3213 34.1617 60.7394 33.3158 60.3213 31.9059L59.8546 30.3211C58.7268 31.235 57.5892 31.8281 56.2182 32.1295C56.6557 33.4519 57.0058 34.7256 57.1516 36.116L59.1643 34.9881L59.1546 34.9978ZM22.557 34.7645C22.6834 33.1213 22.0903 31.5753 20.9819 30.3891C21.1666 31.974 21.6333 33.4616 22.557 34.7645ZM55.6154 32.0129C55.8974 31.7601 55.1292 30.5739 54.925 30.4183L54.9056 32.0712C55.139 32.1004 55.4598 32.1587 55.6154 32.0226V32.0129ZM44.8228 34.2881L45.3867 32.3823C44.9881 32.3337 44.6089 32.2948 44.2686 32.1587L42.849 31.5851C42.499 31.4489 42.0712 31.4392 41.7892 31.7212C42.3629 32.0518 42.8393 32.3921 43.2866 32.8199L44.8325 34.2978L44.8228 34.2881ZM33.6899 32.8977C32.9121 32.5768 32.3579 31.6823 31.7259 31.7115L32.2412 33.0338L32.7954 34.5214C33.4468 34.3075 33.651 33.3547 33.6899 32.8977ZM43.8991 36.2813C44.4242 35.8826 44.6575 35.2895 44.6283 34.6575L43.8311 33.7727C43.1796 33.0435 42.4018 32.4212 41.5364 31.9351L38.9695 35.4354C40.2044 36.0965 42.6059 37.1272 43.8991 36.2716V36.2813ZM61.4589 35.7271C61.9743 34.8326 62.9466 33.0143 62.6646 31.9837C61.9256 32.6449 61.4881 34.7839 61.4589 35.7271ZM29.9563 35.5423C29.5479 35.1242 29.1784 34.8423 28.877 34.4047L27.9047 33.0046C27.613 32.5768 27.2338 32.2462 26.7088 32.1198C26.5726 32.8977 27.8269 33.9186 28.3617 34.3756L29.966 35.5423H29.9563ZM56.7141 36.5049C56.7335 35.7368 56.6363 34.9881 56.4516 34.2589L56.0043 32.4893C55.9849 32.431 55.9168 32.2559 55.8585 32.2754L55.6446 32.3435L54.9348 32.5574C54.9834 34.2881 54.6431 35.2993 54.5167 37.098C55.3529 37.0883 55.8098 36.6119 56.7044 36.5244L56.7141 36.5049ZM47.4091 34.3075C48.0314 33.938 48.5565 33.5977 49.0523 33.0532C48.1286 32.8296 47.2925 32.7421 46.3979 32.6157L45.659 32.5185L45.1631 34.2686C45.0464 34.677 45.2214 35.2798 45.6298 35.377L47.4189 34.3075H47.4091ZM54.0986 37.1175L54.3903 34.8909L54.507 33.938C54.5556 33.5297 54.5653 33.0824 54.4583 32.7129L52.4457 32.9268C51.872 32.9852 51.2984 33.063 50.7052 33.2088C51.7748 34.57 51.8817 35.7951 52.2998 37.4092C52.8735 37.5647 53.5735 37.448 54.0986 37.098V37.1175ZM30.1605 36.2035C28.4881 35.202 27.7686 34.0936 26.3198 32.8685C25.9893 33.5977 25.8045 34.2589 25.7462 35.0562C26.8935 36.1646 28.2645 37.0105 29.7715 37.4481C29.8785 36.9911 29.9952 36.6313 30.1507 36.1938L30.1605 36.2035ZM46.7966 37.6522L48.7606 37.6814C49.801 37.7008 50.7928 37.6911 51.8817 37.6522C51.7942 36.0577 51.347 34.0644 50.0538 33.0532C49.451 33.3935 48.9259 33.7241 48.362 34.0839L45.8243 35.6687C46.0382 36.3591 46.4271 37.0397 46.8063 37.6425L46.7966 37.6522ZM35.547 34.4922C35.4303 33.763 34.5844 33.4616 33.9913 33.2574L33.7191 33.7922C33.6413 33.9478 33.5732 34.1422 33.5441 34.2881C34.6039 34.2686 34.6525 34.4728 35.547 34.4922ZM26.4365 39.1107C26.1157 37.9439 25.5712 37.0202 24.9683 36.0965C24.3655 35.2409 23.7432 34.4631 22.9946 33.6658C22.9848 35.659 24.2294 38.7412 26.4365 39.101V39.1107ZM61.1867 33.8894C60.6519 34.4631 60.6033 35.2506 60.438 36.0382C61.0992 36.3299 61.3325 34.3367 61.1867 33.8894ZM25.3573 35.9215C25.2211 35.0465 24.5891 34.5117 23.8405 34.1811L24.5794 35.202C24.7836 35.484 25.0461 35.7951 25.3573 35.9215ZM36.6263 34.6867C36.4513 34.5214 36.0623 34.3756 35.8679 34.3561C35.6734 34.3367 35.7123 34.5603 35.7609 34.5992C35.8095 34.6381 35.9068 34.7159 35.9554 34.7159L36.6166 34.6867H36.6263ZM35.4012 34.7256H33.1843C33.4468 36.398 34.2344 37.4772 35.1484 38.819C35.1484 37.273 35.4303 36.2618 35.4012 34.7256ZM60.2533 36.116L60.438 34.9978C60.4575 34.9103 60.3116 34.6867 60.2338 34.7062C60.156 34.7256 60.0394 34.7937 59.9908 34.8423C59.524 35.309 58.999 35.6687 58.4351 35.9896C57.9781 36.2521 57.5405 36.4271 57.1225 36.8549L60.2533 36.116ZM32.3092 35.8924C32.494 35.5715 32.5912 35.2604 32.6107 34.8909C32.0467 34.8423 31.2689 35.3673 30.948 35.7174C31.0939 36.1938 31.4633 36.4855 31.862 36.6605L32.2995 35.8924H32.3092ZM37.5305 36.8938C37.8319 36.5633 37.9875 36.1063 38.0167 35.6979L36.6263 35.1631C36.3443 35.0562 36.1012 34.9687 35.7804 34.8909C35.6248 36.2618 35.3623 37.7786 35.7415 39.0329C35.9457 38.7607 36.0721 38.4981 36.2568 38.294L37.5208 36.8938H37.5305ZM44.6672 35.766C45.0173 35.8535 45.1534 35.659 45.1826 35.484C45.2117 35.309 45.0853 35.1826 44.9589 35.1242L44.6672 35.7757V35.766ZM34.4094 38.4009C33.7483 37.3508 33.4274 36.4952 32.844 35.5423L32.0953 37.0494C32.7954 37.3897 33.7677 38.4884 34.4094 38.4009ZM42.4018 36.9619C41.1183 36.6702 40.0293 36.2229 38.7848 35.6882C39.0765 36.2229 39.446 36.6313 39.8738 37.0202L40.7391 37.7884C41.3808 37.3508 42.0809 37.4092 42.392 36.9619H42.4018ZM25.8337 35.7757C26.4074 37.8953 28.5561 39.1301 30.3646 40.0441C30.248 37.4967 27.545 37.1272 25.8337 35.7757ZM45.4159 37.4189C45.6882 37.4967 46.0382 37.4578 46.2521 37.3508C45.8534 36.8161 45.8243 35.9507 45.309 35.8729L44.6381 36.3591C44.395 36.5341 44.22 36.7285 44.113 37.0397L45.4159 37.4189ZM40.1946 38.0314C40.1266 37.6328 39.9321 37.2925 39.6696 37.0591L38.7167 36.2035C38.0458 36.6119 37.5013 37.1272 37.0735 37.7592L36.0234 39.3052L40.1946 38.0314ZM31.2105 38.2453L31.6578 37.3508L31.0841 36.8841C30.8508 36.6994 30.5299 36.5633 30.2674 36.5633C30.2868 37.0494 29.9465 37.555 30.0827 37.662C30.1896 37.7495 31.0161 38.1967 31.2105 38.2453ZM60.5839 36.6216C60.6033 36.573 60.3408 36.5827 60.3505 36.6021L60.3894 37.1272L60.5839 36.6216ZM56.4516 40.1997C58.2114 39.6357 59.5338 38.3815 60.0783 36.6508L57.1225 37.2536C57.0447 38.3134 56.7724 39.2176 56.4516 40.1997ZM42.6254 40.2288C42.9851 39.0524 43.4713 38.4106 43.7241 37.3314C42.6935 36.9813 41.6725 37.7203 40.8655 38.2064C41.3711 38.9454 41.2058 39.3927 41.4878 40.2386H42.6157L42.6254 40.2288ZM53.2138 41.4928L54.4097 41.1039C54.9542 40.9289 55.4695 40.7247 55.9751 40.4525C56.3057 39.3927 56.5877 38.4398 56.7141 37.3605C55.7029 37.3022 55.1973 37.9828 54.1861 38.2745C53.9722 39.558 53.4569 40.1608 53.2138 41.4928ZM29.1881 39.8788L26.1837 37.3994C26.174 38.7898 27.6908 40.4233 29.1881 39.8788ZM34.2052 39.0135C33.2329 38.5176 32.8732 37.9731 31.9203 37.4967C31.7161 37.8078 31.58 38.0703 31.4925 38.3523C32.6107 38.5273 33.2621 39.1982 34.2052 39.0135ZM46.8549 39.8594L46.5146 37.8856C45.7173 37.6911 44.852 37.5161 43.9963 37.4967C43.763 38.6634 43.2866 39.1301 43.024 40.2191C44.3561 40.258 45.6201 40.1316 46.8646 39.8594H46.8549ZM53.2235 38.3134C53.4763 38.2551 53.7097 38.08 53.8555 37.8272L52.3484 38.0217L52.3193 38.537L53.2138 38.3134H53.2235ZM51.1914 39.0426C51.7067 38.926 52.1054 38.5662 52.0859 38.08L50.2677 38.3037L51.0844 38.0703C49.7135 37.9731 48.187 37.9342 46.8452 38.0703C47.0785 38.7023 47.1174 39.1593 47.1563 39.8594C47.5939 39.8205 48.0314 39.7621 48.4495 39.6649L51.2011 39.0426H51.1914ZM30.9091 38.7898C30.9383 38.7218 30.9577 38.5079 30.9091 38.4787L30.6563 38.3523C30.4716 38.2648 30.2091 38.2162 30.0827 38.2842C30.3938 38.9551 30.1605 39.5288 30.6661 39.4996L30.9188 38.7801L30.9091 38.7898ZM41.128 40.2386C41.0405 39.4413 40.9628 38.3426 40.253 38.2648C39.0668 39.0232 37.5208 38.9648 36.6068 39.7135C38.182 40.0149 39.5918 40.1705 41.128 40.2386ZM51.9401 41.7262C53.2332 41.5706 53.4666 39.4607 53.5541 38.5856L52.3582 38.994C52.3387 39.2176 52.3776 39.5774 52.329 39.8205L51.9401 41.7262ZM34.3025 39.5774C33.7094 39.4218 33.2038 39.3149 32.6884 39.1204L31.3467 38.6148L30.7633 40.0635C31.8425 40.0635 33.3788 40.0149 34.3122 39.5774H34.3025ZM48.9843 42.0859L51.0942 41.9304C51.8428 41.872 51.9984 39.7719 52.047 39.1982L50.7344 39.5093C49.5482 39.7913 48.3814 40.0635 47.1661 40.3066C47.205 41.0845 46.8063 41.697 46.9619 42.1248C47.6814 42.1248 48.3037 42.1346 48.9843 42.0859ZM55.489 42.3971C56.3738 41.7942 58.5323 40.6372 58.542 39.4704L57.21 40.3261C56.5682 40.7344 55.3431 41.4928 55.489 42.3971ZM27.3505 40.5205C27.0491 40.1997 26.8741 39.9177 26.3976 39.8108C26.2421 39.7816 27.2824 40.7831 27.3505 40.5205ZM32.1051 41.4053L33.126 41.8915C33.7385 41.1136 33.933 41.065 34.5747 40.2483C34.6233 40.1802 34.5455 39.9274 34.458 39.9566C34.0302 40.1316 33.5441 40.2094 33.0871 40.2483L32.0662 40.3164C31.7259 40.3358 31.4244 40.4622 31.1425 40.6664C31.4439 41.0067 31.7259 41.2206 32.1148 41.4053H32.1051ZM30.1702 40.4816C29.2076 40.4136 28.5075 40.3164 27.6519 40.1413C28.1186 41.0164 28.7214 41.7456 29.616 42.261C29.859 41.6679 30.1216 41.065 30.1702 40.4816ZM35.2845 42.9513L35.2262 41.5609C35.2553 41.065 35.2456 40.6178 35.0511 40.1122L33.3788 42.1346L35.2845 42.9416V42.9513ZM40.8752 41.5901L38.7167 40.7831C38.1042 40.5303 37.4916 40.3164 36.811 40.2872C37.3361 40.5789 37.8125 40.8511 38.3084 41.172C38.989 41.6095 40.2335 42.4165 40.8655 41.5803L40.8752 41.5901ZM44.5506 41.8526L46.4854 42.0665L46.7285 41.0456C46.7771 40.8414 46.7674 40.2969 46.4368 40.3455C46.0479 40.4039 45.6104 40.5497 45.1826 40.5497C44.4144 40.54 42.4601 40.3941 42.499 41.3859C43.1115 41.7359 43.8408 41.7748 44.5506 41.8526ZM40.5447 41.0553C40.778 41.1428 41.06 41.0845 41.128 40.8317C40.5447 40.4719 39.796 40.3261 39.1154 40.54L40.5447 41.0553ZM39.4071 43.0583C39.689 42.9221 39.9613 42.7374 40.1946 42.5235C39.4071 42.154 38.7362 41.8137 38.007 41.4053C37.3944 41.0553 36.8305 40.7053 36.0915 40.5108L37.3166 42.0276C37.7347 42.5429 38.1917 42.9999 38.707 43.3986L39.4071 43.0583ZM37.8125 43.5541C37.618 42.9318 37.2972 42.504 36.9374 42.0859L35.6345 40.5983L35.6151 43.0096C36.2082 43.4666 37.0541 43.7778 37.8125 43.5541ZM42.3434 40.6761H41.3906C41.2739 40.9483 41.3906 41.3956 41.7406 41.4053C42.1003 41.4053 42.3823 40.9775 42.3434 40.6761ZM29.4118 43.0388C28.5756 42.1151 27.7394 41.3567 26.6504 40.8414C27.2533 41.4345 28.7506 42.893 29.4118 43.0388ZM31.2883 43.3597C31.9787 42.786 32.4454 42.6499 32.4259 42.1734L31.5508 41.4539C31.2203 41.1817 30.8216 40.9483 30.4424 40.8511C30.3744 41.6387 29.859 42.1832 30.0438 42.786C30.6272 42.9318 31.0452 43.5736 31.2883 43.3694V43.3597ZM54.4486 42.8249L55.3237 41.6873C55.4112 41.5706 55.4695 41.3178 55.3431 41.2303C54.118 41.4831 52.2415 42.1151 51.9692 43.5736C52.8249 43.4083 53.6611 43.136 54.4486 42.8152V42.8249ZM41.4781 42.4068C41.6628 42.2318 41.7795 42.0568 41.8864 41.8137L41.235 41.5706C41.2253 41.872 40.9141 42.0179 40.8461 42.2123C40.7586 42.4651 41.3031 42.5818 41.4781 42.4068ZM46.0187 42.9805C46.116 42.8541 46.1549 42.5332 46.1257 42.3776C44.4631 42.4263 43.7727 41.9207 42.149 41.9401L41.8767 42.6596L43.6463 43.2624C44.2686 43.4666 44.9006 43.5541 45.552 43.6125L46.009 42.9999L46.0187 42.9805ZM52.2512 42.1443C51.7553 42.0859 51.4442 42.3874 51.2497 42.786L50.7636 43.768C51.7748 43.7291 51.9109 42.9318 52.2415 42.1443H52.2512ZM47.4578 43.8361C48.3134 43.9042 49.1496 43.9819 50.0149 43.9625L50.5691 43.3888C50.8608 43.0874 51.0456 42.7957 51.1428 42.3485L49.9371 42.4263C48.7995 42.4943 47.6717 42.5429 46.5535 42.5332C46.4757 43.3013 46.2229 42.9902 45.9701 43.7389L47.448 43.8458L47.4578 43.8361ZM35.8679 45.4598L35.5276 44.1278C35.479 43.9625 35.4206 43.7583 35.3623 43.6027C34.458 43.2819 33.651 42.9513 32.7954 42.5235L31.5508 43.593L33.8552 44.789C34.4775 45.1098 35.1581 45.3529 35.8582 45.4696L35.8679 45.4598ZM40.3696 44.4584L41.3225 42.9027C40.8947 42.6304 40.3599 42.7374 39.9516 43.0096L38.9015 43.7291C39.0959 43.8555 39.3001 43.9917 39.446 44.1861C39.5918 44.3903 40.1655 44.7792 40.3696 44.4486V44.4584ZM45.202 44.0111L43.413 43.5638L41.5461 43.0583L40.6613 44.7014C41.7698 45.0904 44.288 45.4501 45.2117 44.0111H45.202ZM30.5688 43.6902L30.0341 43.243C30.0049 43.4569 30.0341 43.5638 30.1507 43.6708C30.2674 43.7778 30.3744 43.8069 30.5688 43.6902ZM39.2515 46.0043C39.4751 45.4987 39.8932 45.2751 39.8349 44.9056C38.4931 44.3903 37.2097 43.9722 35.7804 43.6222C35.7512 43.9528 36.3151 45.7613 36.3929 45.8001C36.5096 45.8488 38.9112 46.1307 39.2612 46.0141L39.2515 46.0043ZM38.6584 43.943C38.4639 43.8069 37.9292 43.6805 37.7153 43.8847L38.3861 44.1278C38.6778 44.2347 38.707 43.9819 38.6584 43.943ZM51.415 44.4778C52.1054 44.3222 52.7179 44.2153 53.2721 43.8166C52.8638 43.8166 51.3859 43.8361 51.415 44.4778ZM32.3676 44.6626C31.93 44.3903 31.4342 44.0986 30.8897 44.1861C32.6593 45.1195 34.3608 45.946 36.2179 46.5002C35.3234 45.3821 34.5261 45.9849 32.3676 44.6626ZM49.6163 44.4L48.2745 44.3125C46.9424 44.225 45.0173 43.7778 44.3561 45.2459L45.941 45.2751C46.8355 45.2945 49.0621 45.3821 49.6065 44.4098L49.6163 44.4ZM50.8803 44.2153C50.3358 44.05 49.8982 44.4778 49.801 44.8667C50.258 45.0223 50.7636 44.6237 50.8803 44.2153ZM50.1608 45.7515C50.958 45.5182 51.6289 45.1876 52.2609 44.6528C51.6581 44.7014 50.2969 45.1001 50.1608 45.7515ZM42.8976 45.3626C42.149 45.3626 40.8655 44.8181 40.4669 45.0904C41.0405 45.6251 42.217 46.1016 42.8976 45.3626ZM49.7816 45.1584C48.6731 45.596 47.6522 46.0335 46.6702 46.7141C47.4286 46.8113 49.6746 45.9557 49.7816 45.1584ZM40.953 45.8877C40.6419 45.6251 40.3599 45.4307 40.146 45.3237C39.9905 45.6057 39.8932 45.7126 39.6793 45.9557C40.1169 45.9946 40.5641 46.1307 40.953 45.8877ZM48.0703 45.5085H46.9133C45.4937 45.5085 43.481 45.1779 42.3045 46.2085C44.1325 47.2294 46.5438 46.7433 48.0703 45.5085ZM37.0638 46.3544C36.9763 46.3252 36.8013 46.3349 36.7527 46.3738C37.1027 46.753 37.6083 46.8697 38.0361 46.6947L37.0638 46.3544ZM42.9171 46.7627C41.8864 46.2766 40.7683 46.1696 39.7377 46.5488C40.6127 46.7336 42.2268 47.2003 42.9171 46.7627ZM39.7668 47.0253L38.9695 46.9086C38.9306 46.9086 38.8042 46.8308 38.7653 46.8113C38.7265 46.7919 38.6681 46.86 38.5903 46.9377C38.9501 47.1419 39.4265 47.2489 39.7668 47.0253Z" fill="white"/>
<path d="M42.4699 60.7828C42.8491 60.8023 43.3256 60.9481 43.6561 60.7148C43.9576 60.5008 44.327 59.7911 44.2006 59.4021L42.3144 54.3753C41.3615 54.1711 40.5448 54.7351 40.3211 55.6588C40.2531 55.9505 40.1753 56.3491 40.1753 56.6602V59.5285C40.1656 59.5285 38.7266 59.5285 38.7266 59.5285V53.1308H40.0878L40.1267 54.1128C40.5448 53.578 40.9434 53.1113 41.624 52.9947C42.645 52.8099 42.3922 53.2572 43.4422 53.1211L45.1049 57.8173L46.6897 53.1308L48.226 53.1502L45.7077 60.005C45.4257 60.7731 44.8715 62.0468 43.8992 62.0468H42.4797L42.4699 60.7925V60.7828Z" fill="white"/>
<path d="M1.44874 58.8492V61.9022C1.43901 61.9022 0 61.9022 0 61.9022V53.1515L1.34178 53.132L1.40012 53.8321C1.92517 53.1709 2.57661 52.9668 3.35445 52.957C5.36712 52.957 6.37832 54.4738 6.35887 56.3601C6.33943 58.2464 6.2033 58.0325 5.68798 58.6936C4.84208 60.0062 2.56688 60.0646 1.45846 58.8492H1.44874ZM4.49205 57.838C5.02682 56.9532 5.01709 55.8642 4.56011 54.9891C4.26842 54.4155 3.7142 54.1043 3.14055 54.1043C2.55716 54.1043 2.00295 54.3474 1.71126 54.8919C1.28344 55.7086 1.25427 56.6615 1.61403 57.5074C1.8571 58.0908 2.38215 58.4797 2.91691 58.5283C3.53919 58.5867 4.14202 58.4117 4.49205 57.8283V57.838Z" fill="white"/>
<path d="M34.2735 59.7037C33.0775 59.7037 32.1247 59.1593 32.0566 57.8661C32.0177 57.098 32.3678 56.4271 33.1164 56.1257C34.6916 55.4937 36.5681 56.0576 36.432 54.8033C36.3542 54.0741 35.1388 54.0255 34.5263 54.2005C34.0693 54.3269 33.8165 54.6575 33.729 55.1145H32.3289C32.2608 54.3852 32.6886 53.7046 33.3206 53.3546C34.2929 52.8198 36.2764 52.7518 37.2682 53.5491C37.4918 53.7338 37.8029 54.1324 37.8029 54.4533L37.8224 58.1967C37.8224 58.2842 37.9099 58.5078 37.9877 58.5175L38.4836 58.5661V59.5968C37.6765 59.7329 36.8501 59.9274 36.4709 59.0329C35.8097 59.519 35.0805 59.7232 34.2735 59.7232V59.7037ZM36.3542 57.5549V56.4465C35.4597 56.7868 33.7484 56.5243 33.5443 57.5355C33.5054 57.7397 33.5637 58.1189 33.7484 58.2453C34.9055 59.0037 36.3542 58.2258 36.3542 57.5549Z" fill="white"/>
<path d="M10.1996 59.48C9.3731 59.1495 9.10085 58.4105 9.13002 57.6132C9.2467 55.0074 13.4082 56.3492 13.5248 55.0366C13.6415 53.724 13.3595 54.3171 12.9415 54.2004C12.1831 53.9963 11.0066 54.0254 10.8024 55.095H9.39254C9.32448 54.2491 9.88842 53.5198 10.676 53.2087C11.6483 52.8295 13.379 52.7906 14.293 53.5101C14.5458 53.7046 14.8569 54.0838 14.8569 54.4338L14.8763 58.0897C14.8763 58.1966 14.9347 58.4494 15.0222 58.4786C15.1097 58.5077 15.3528 58.5369 15.5569 58.5564V59.5481C14.9347 59.7523 13.8749 59.9176 13.5346 59.0328C12.572 59.6842 11.308 59.9273 10.1898 59.48H10.1996ZM10.851 58.2452C11.8622 58.9647 13.4179 58.2938 13.4276 57.5549V56.4367C12.572 56.7187 11.6191 56.6118 10.9871 56.991C10.569 57.2438 10.4135 57.9341 10.851 58.2452Z" fill="white"/>
<path d="M25.3387 58.5468C26.0485 58.508 26.5833 58.1774 26.7777 57.4773H28.1778C27.925 58.926 26.6319 59.7136 25.222 59.7136C23.8219 59.7136 22.6454 58.9552 22.2565 57.5843C21.9648 56.5536 22.0329 55.4841 22.5385 54.5215C23.0343 53.5978 23.9386 53.0144 24.9789 52.9561C26.0193 52.8978 26.8361 53.2089 27.4778 53.9576C28.1292 54.716 28.3917 55.7077 28.2459 56.7189H23.5886C23.5205 57.7496 24.24 58.6149 25.3484 58.5566L25.3387 58.5468ZM26.7583 55.7272C26.6999 54.7062 25.961 54.0645 25.0956 54.1131C24.2692 54.1617 23.5691 54.8521 23.5886 55.7369H26.7583V55.7272Z" fill="white"/>
<path d="M71.698 53.1405H72.8162L70.7938 59.5286L69.6367 59.5383L68.3436 54.5601L67.0601 59.5383H65.8934L63.8418 53.1405L65.0377 53.1308L66.4767 58.2549L67.7602 53.1211L68.9464 53.1308L70.2784 58.2451L71.698 53.1405Z" fill="white"/>
<path d="M18.814 54.1036C17.9098 54.123 17.2972 54.8037 17.2875 55.6787L17.2583 59.529H15.8193V53.1313H17.2195L17.2778 53.9188C17.8515 53.1507 18.5612 52.9368 19.3974 52.9563C20.6128 52.9757 21.4781 53.7925 21.4684 55.0176V59.5388C21.4587 59.5388 20.01 59.5388 20.01 59.5388L19.9808 55.1731C19.9808 54.5217 19.446 54.0939 18.8043 54.1133L18.814 54.1036Z" fill="white"/>
<path d="M59.2721 57.488H60.3416C60.1569 58.8784 59.0193 59.7049 57.6484 59.7146C56.4524 59.7243 55.3732 59.209 54.887 58.0714C54.4592 57.0602 54.3911 55.8934 54.7898 54.8628C55.2759 53.5988 56.4719 52.8404 57.8039 52.9668C59.7194 53.0932 60.5264 54.96 60.4194 56.6616H55.6746C55.626 57.2741 55.8302 57.8283 56.2191 58.2173C56.608 58.6062 57.2011 58.7715 57.7845 58.7326C58.5137 58.6742 59.1068 58.3048 59.2527 57.488H59.2721ZM59.3013 55.7087C59.2429 54.61 58.397 53.8905 57.415 53.9099C56.4621 53.9391 55.694 54.7364 55.7038 55.7184H59.3013V55.7087Z" fill="white"/>
<path d="M89.0927 59.5004L87.7315 59.5296L85.573 56.2335L84.5813 57.1377V59.5393L83.5117 59.5199V50.7108L84.5715 50.6816L84.591 55.8543L87.4787 53.1124L88.8886 53.1513L86.4092 55.4557L89.0927 59.5004Z" fill="white"/>
<path d="M79.1647 56.2714C79.1647 58.2743 78.1146 59.6939 76.0241 59.7036C74.6726 59.7133 73.535 58.9549 73.1461 57.652C72.8836 56.7867 72.8836 55.8436 73.1461 54.9879C73.535 53.7531 74.5754 52.9947 75.8588 52.9558C76.7339 52.9266 77.5895 53.1308 78.2215 53.7628C78.8827 54.4337 79.155 55.338 79.1647 56.2714ZM77.8035 57.5256C78.1146 56.7381 78.0951 55.8922 77.8035 55.1435C77.5118 54.3754 76.7923 53.8989 75.995 53.9184C75.2074 53.9378 74.5268 54.4629 74.2643 55.2505C74.0212 55.97 74.0309 56.8061 74.3032 57.5159C74.5754 58.2257 75.2949 58.7605 76.0727 58.7507C76.8214 58.7507 77.5118 58.3035 77.8132 57.5354L77.8035 57.5256Z" fill="white"/>
<path d="M93.1958 59.4227C92.2624 59.7921 91.1734 59.8116 90.2497 59.4713C89.326 59.131 88.9079 58.392 88.9468 57.5072H89.9872C90.0552 58.0712 90.3469 58.4698 90.872 58.6254C91.6498 58.849 93.2055 58.849 93.2347 57.8281C93.2638 56.4571 90.4539 57.0308 89.4038 55.7862C89.0343 55.3487 89.0052 54.7362 89.1996 54.1625C89.5983 52.9374 91.6012 52.7527 92.836 53.1708C93.6236 53.443 94.1 54.2111 94.0417 55.0084H93.0305C92.9333 54.5903 92.7291 54.2306 92.311 54.0653C91.5234 53.7639 90.2108 53.9194 90.2205 54.7362C90.24 56.1752 94.2459 55.232 94.3723 57.5461C94.4209 58.3823 94.0223 59.1018 93.1958 59.4324V59.4227Z" fill="white"/>
<path d="M51.6873 53.9294C50.5303 53.7933 49.6066 54.5906 49.6066 55.7282L49.5871 59.5299H48.5176C48.5176 59.5396 48.5176 53.1516 48.5176 53.1516L49.5191 53.1322L49.5774 54.0072C50.3552 52.753 52.4262 52.6752 53.2527 53.4822C53.593 53.8128 53.8458 54.3573 53.8458 54.8629V59.5396C53.8555 59.5396 52.8054 59.5396 52.8054 59.5396L52.786 55.1351C52.786 54.4934 52.3193 54.0072 51.6873 53.9392V53.9294Z" fill="white"/>
<path d="M31.9795 58.4506L31.9601 59.5979C31.3573 59.6174 30.8905 59.6368 30.3169 59.5882C29.821 59.5396 29.296 59.1118 29.2862 58.5576L29.2668 54.2114L28.1973 54.1919V53.1516L29.2668 53.1127V51.1875H30.7058V53.1224L31.9795 53.1418V54.1919L30.7155 54.2114V57.945C30.7155 58.2756 30.9781 58.4895 31.2795 58.4798L31.999 58.4603L31.9795 58.4506Z" fill="white"/>
<path d="M8.55607 59.5297H7.08789V50.7011L8.54635 50.6914L8.55607 59.5297Z" fill="white"/>
<path d="M63.7731 58.5965V59.5494L62.2757 59.5105C61.8868 59.5105 61.4396 59.1215 61.4396 58.684L61.4201 54.0656L60.3506 54.0461V53.103L61.4104 53.0933L61.4298 51.1973H62.4799L62.4994 53.103H63.7537C63.7537 53.1127 63.7537 54.0558 63.7537 54.0558L62.4799 54.0753V58.1979C62.4799 58.3923 62.6938 58.5868 62.8689 58.5965H63.7439H63.7731Z" fill="white"/>
<path d="M80.9055 59.5286H79.8457V53.1406L80.818 53.1211L80.8763 54.3365C81.4014 53.4128 82.1792 52.8489 83.2002 52.985V54.1129C82.4709 54.0837 81.8 54.2782 81.3722 54.8616C81.0805 55.2699 80.925 55.8241 80.9152 56.3395V59.5189L80.9055 59.5286Z" fill="white"/>
<path d="M95.762 53.044C95.2175 52.5773 95.0522 51.9064 95.2175 51.2647C95.3828 50.623 95.83 50.1563 96.4718 50.0202C97.308 49.8452 98.0858 50.2341 98.4164 50.9536C98.7567 51.6731 98.5914 52.5287 97.9983 53.0343C97.376 53.5594 96.4037 53.608 95.7523 53.044H95.762ZM98.3094 51.2258C98.0955 50.5355 97.483 50.1466 96.8315 50.1563C96.1995 50.166 95.6453 50.5841 95.4509 51.2064C95.2467 51.8675 95.4508 52.5482 95.9564 52.9371C96.462 53.326 97.201 53.3552 97.7455 52.976C98.2803 52.6065 98.5331 51.9162 98.3191 51.2258H98.3094Z" fill="white"/>
<path d="M97.7268 52.753C97.2698 52.8794 97.0754 51.2945 96.4239 51.946C96.3558 52.2085 96.6086 52.5683 96.2489 52.7919L96.2197 50.6917C96.6184 50.6723 96.9587 50.6625 97.3379 50.7112C97.6004 50.75 97.7171 51.1195 97.6879 51.3432C97.6587 51.5668 97.4351 51.7613 97.2212 51.8585L97.7365 52.753H97.7268ZM97.4934 51.2362C97.3865 50.7792 96.9003 50.8181 96.4433 50.8376V51.6737C96.8517 51.7126 97.581 51.6154 97.4934 51.2362Z" fill="white"/>
</svg>
