<svg width="54" height="53" viewBox="0 0 54 53" fill="none" xmlns="http://www.w3.org/2000/svg">
<path fill-rule="evenodd" clip-rule="evenodd" d="M21.0869 1.37227C26.8691 -1.21438 33.9037 -0.144237 38.6488 4.58249C44.7827 10.6926 44.7827 20.6138 38.6488 26.7239C38.6224 26.7502 38.596 26.7762 38.5699 26.8019C41.2611 20.126 39.8936 12.1975 34.4663 6.79131C30.7791 3.11837 25.9233 1.31202 21.0869 1.37227Z" fill="#032638"/>
<path fill-rule="evenodd" clip-rule="evenodd" d="M4.86523 12.6176C7.11755 6.71576 12.8515 2.51758 19.5621 2.51758C28.2366 2.51758 35.2793 9.53283 35.2793 18.1739C35.2793 18.2112 35.2793 18.2482 35.2789 18.2849C32.443 11.6686 25.8479 7.02548 18.1725 7.02548C12.9582 7.02548 8.24215 9.16846 4.86523 12.6176Z" fill="#032638"/>
<path fill-rule="evenodd" clip-rule="evenodd" d="M40.5397 4.8457C46.4644 7.08951 50.6792 12.8013 50.6792 19.4859C50.6792 28.127 43.6366 35.1422 34.962 35.1422C34.9248 35.1422 34.8874 35.1422 34.8506 35.1418C41.4928 32.3169 46.1537 25.7474 46.1537 18.1017C46.1537 12.9073 44.0022 8.20955 40.5397 4.8457Z" fill="#032638"/>
<path fill-rule="evenodd" clip-rule="evenodd" d="M1.37736 31.9947C-1.21893 26.2349 -0.144833 19.2273 4.60027 14.5006C10.7341 8.39044 20.6936 8.39044 26.8275 14.5006C26.8539 14.5268 26.8801 14.5531 26.9058 14.5792C20.204 11.8984 12.2447 13.2606 6.81746 18.6669C3.13024 22.3398 1.31688 27.1771 1.37736 31.9947Z" fill="#032638"/>
<path fill-rule="evenodd" clip-rule="evenodd" d="M12.6668 48.1538C6.74205 45.9102 2.52734 40.1984 2.52734 33.5137C2.52734 24.8727 9.56986 17.8574 18.2445 17.8574C18.2819 17.8574 18.3191 17.8574 18.3559 17.8578C11.7137 20.6828 7.05276 27.2523 7.05276 34.8977C7.05276 40.0924 9.20428 44.7899 12.6668 48.1538Z" fill="#032638"/>
<path fill-rule="evenodd" clip-rule="evenodd" d="M51.8285 21.0059C54.4252 26.7659 53.3509 33.7733 48.6058 38.5002C42.4719 44.6103 32.5122 44.6103 26.3786 38.5002C26.3522 38.4739 26.326 38.4474 26.2998 38.4215C33.0019 41.1024 40.9612 39.7401 46.3884 34.3339C50.0756 30.661 51.889 25.8235 51.8285 21.0059Z" fill="#032638"/>
<path fill-rule="evenodd" clip-rule="evenodd" d="M32.1196 51.6271C26.3374 54.2138 19.3027 53.1438 14.5574 48.4169C8.42357 42.3068 8.42357 32.3858 14.5574 26.2757C14.5838 26.2494 14.6104 26.2234 14.6364 26.1973C11.9451 32.8736 13.3127 40.8017 18.7399 46.2079C22.4271 49.8808 27.2832 51.6874 32.1193 51.6271H32.1196Z" fill="#032638"/>
<path fill-rule="evenodd" clip-rule="evenodd" d="M48.3408 40.3817C46.0883 46.2835 40.3543 50.4821 33.6437 50.4821C24.9693 50.4821 17.9268 43.4669 17.9268 34.8258C17.9268 34.7885 17.9268 34.7515 17.9272 34.7148C20.7631 41.3309 27.3581 45.9738 35.0333 45.9738C40.2479 45.9738 44.9639 43.8308 48.3408 40.3815V40.3817Z" fill="#032638"/>
</svg>
