<?xml version="1.0" encoding="UTF-8"?>
<svg id="uuid-b65eea60-3129-4c0d-8846-d27c65a8a804" xmlns="http://www.w3.org/2000/svg" version="1.1" viewBox="0 0 256 256">
  <!-- Generator: Adobe Illustrator 29.7.1, SVG Export Plug-In . SVG Version: 2.1.1 Build 8)  -->
  <defs>
    <style>
      .st0 {
        fill-rule: evenodd;
      }
    </style>
  </defs>
  <g id="uuid-0d272414-3e53-47ce-8d93-8094c90594f3">
    <g id="uuid-b41793e8-dfac-4064-96f9-78ae59a1da20">
      <path class="st0" d="M100.957501,5.788505c27.820992-12.494,61.668007-7.325,84.499001,15.505999,29.513,29.513,29.513,77.433994,0,106.946995-.126999.126999-.253998.253006-.380005.376999,12.949005-32.246002,6.369003-70.542-19.744003-96.654999C147.591496,14.222505,124.227498,5.497505,100.957501,5.788505Z"/>
      <path class="st0" d="M22.909501,60.105505C33.746503,31.598505,61.3355,11.320505,93.623502,11.320505c41.736992,0,75.623009,33.884998,75.623009,75.623005,0,.18,0,.359001-.001999.536003-13.645004-31.958-45.376999-54.384998-82.306999-54.384998-25.089001,0-47.779999,10.352001-64.028,27.011997l-.000011-.001007Z"/>
      <path class="st0" d="M194.554494,22.569506c28.507004,10.838001,48.785995,38.426998,48.785995,70.714993,0,41.738007-33.884995,75.623001-75.623001,75.623001-.179001,0-.358994,0-.535995-.001999,31.959-13.645004,54.384995-45.376999,54.384995-82.306999,0-25.09-10.352005-47.780998-27.011993-64.028996Z"/>
      <path class="st0" d="M6.126501,153.702513c-12.492-27.820999-7.324-61.668999,15.506999-84.5,29.513-29.513,77.433002-29.513,106.946003,0,.126999.126999.253006.253998.376999.379997-32.246002-12.949001-70.542-6.369003-96.654999,19.743996-17.740999,17.740997-26.466999,41.106003-26.176001,64.375992l.000998.000015Z"/>
      <path class="st0" d="M60.444501,231.751509c-28.507-10.837006-48.785999-38.425995-48.785999-70.713989,0-41.737999,33.884998-75.623001,75.622997-75.623001.18,0,.359001,0,.536003.001999-31.959,13.645004-54.384998,45.376999-54.384998,82.306,0,25.091003,10.352001,47.781998,27.011997,64.029999v-.001007Z"/>
      <path class="st0" d="M248.871495,100.618505c12.494003,27.821999,7.324997,61.668999-15.505997,84.500999-29.513,29.513-77.43399,29.513-106.945999,0-.126999-.126999-.252998-.255005-.378998-.380005,32.246994,12.949005,70.542999,6.369003,96.655991-19.744003,17.740997-17.740997,26.466003-41.106003,26.175003-64.375999v-.000992Z"/>
      <path class="st0" d="M154.041509,248.531507c-27.820999,12.493988-61.667999,7.325989-84.5-15.505997-29.513-29.513-29.513-77.432999,0-106.945999.126999-.126999.254997-.252998.379997-.378998-12.949001,32.248001-6.369003,70.541992,19.743996,96.654999,17.740997,17.740997,41.106003,26.466995,64.375,26.175995h.001007Z"/>
      <path class="st0" d="M232.090505,194.214506c-10.837997,28.507004-38.427002,48.787003-70.714996,48.787003-41.737,0-75.622002-33.884995-75.622002-75.623001,0-.179993,0-.358994.001999-.535995,13.644997,31.957001,45.376991,54.382996,82.306007,54.382996,25.089996,0,47.781006-10.350998,64.028992-27.011993v.000992Z"/>
    </g>
  </g>
</svg>