<?xml version="1.0" encoding="UTF-8"?><svg id="uuid-8300442a-d50c-41a9-b5a2-428e490d1165" xmlns="http://www.w3.org/2000/svg" width="1020.036" height="256" viewBox="0 0 1020.036 256"><g id="uuid-9d351654-8972-44a6-a5a5-7d4776f8ab6f"><g id="uuid-ae3f62c1-81b4-4b3f-957c-5b36633231df"><path d="M990.295,91.234h4.955v12.734h2.742v-12.734h4.953v-2.253h-12.65v2.253ZM1017.656,88.981l-5.177,11.652-5.176-11.652h-2.403v14.987h2.488v-9.381l4.251,9.381h1.637l4.273-9.427v9.427h2.488v-14.987h-2.381Z" fill="#fff" stroke-width="0"/><path d="M353.589,160.648c4.484,0,8.453-.536,11.911-1.611,3.455-1.072,6.677-2.172,9.668-3.293,1.307-.56,2.242-.676,2.803-.35.561.328,1.073,1.005,1.541,2.031l4.764,10.089c.653,1.31.887,2.29.701,2.942-.188.655-.701,1.216-1.541,1.682-5.044,3.083-10.347,5.163-15.904,6.235-5.559,1.073-11.048,1.611-16.464,1.611-7.661,0-14.271-1.145-19.827-3.433-5.559-2.288-10.137-5.581-13.732-9.879-3.598-4.295-6.26-9.55-7.987-15.764-1.729-6.211-2.592-13.193-2.592-20.948,0-7.658,1.097-14.618,3.293-20.878,2.194-6.257,5.254-11.63,9.178-16.114,3.923-4.484,8.663-7.939,14.222-10.369,5.557-2.428,11.7-3.643,18.426-3.643,4.764,0,9.435.398,14.012,1.191,4.576.795,9.06,2.406,13.452,4.834,1.027.561,1.633,1.121,1.822,1.682.186.561-.048,1.635-.701,3.223l-4.344,9.668c-.468,1.31-.959,2.102-1.471,2.382-.515.28-1.425.188-2.732-.28-3.363-1.213-6.494-2.124-9.388-2.732-2.896-.606-6.119-.911-9.668-.911-3.832,0-7.216.819-10.159,2.452-2.942,1.635-5.419,3.877-7.426,6.726-2.01,2.851-3.527,6.213-4.554,10.089-1.029,3.877-1.542,8.105-1.542,12.681s.396,8.736,1.191,12.471c.792,3.737,2.147,6.961,4.063,9.669,1.914,2.71,4.414,4.812,7.497,6.306,3.083,1.495,6.912,2.241,11.49,2.241Z" fill="#fff" stroke-width="0"/><path d="M426.871,174.661c.186,1.029.14,1.705-.14,2.031-.28.329-.935.726-1.961,1.191-1.962.747-4.368,1.283-7.216,1.611-2.851.326-5.342.49-7.477.49-2.785,0-5.265-.304-7.446-.91-2.181-.609-4.011-1.634-5.496-3.083-1.484-1.447-2.623-3.433-3.411-5.955s-1.182-5.697-1.182-9.528v-81.831c0-1.307.254-2.078.764-2.312.51-.232,1.276-.351,2.296-.351h14.196c1.02,0,1.784.165,2.294.491.51.328.766,1.005.766,2.032v77.767c0,2.337.326,3.994.981,4.975.652.981,2.054,1.472,4.204,1.472.747,0,1.633-.046,2.663-.141,1.027-.092,1.867-.186,2.522-.28.841-.092,1.423-.021,1.751.21.326.234.537.726.631,1.472l1.261,10.649Z" fill="#fff" stroke-width="0"/><path d="M498.892,141.312c0,12.33-2.942,21.858-8.828,28.584-5.885,6.727-14.853,10.089-26.903,10.089-12.145,0-21.018-3.362-26.623-10.089-5.605-6.726-8.407-16.159-8.407-28.304,0-5.978.816-11.372,2.452-16.185,1.633-4.81,3.969-8.85,7.006-12.121,3.035-3.269,6.726-5.791,11.07-7.566,4.344-1.773,9.27-2.663,14.783-2.663,11.77,0,20.62,3.387,26.553,10.159,5.931,6.774,8.897,16.138,8.897,28.095ZM477.734,141.732c0-3.175-.234-6.071-.701-8.688-.469-2.614-1.261-4.856-2.382-6.726-1.121-1.867-2.57-3.339-4.344-4.414-1.775-1.073-3.971-1.611-6.585-1.611-4.953,0-8.618,1.892-11,5.675-2.382,3.783-3.573,8.897-3.573,15.344,0,7.006,1.097,12.33,3.293,15.974,2.194,3.643,5.815,5.465,10.859,5.465,2.614,0,4.834-.537,6.656-1.611,1.822-1.073,3.315-2.568,4.484-4.484,1.167-1.913,2.008-4.134,2.522-6.655.513-2.522.771-5.276.771-8.268Z" fill="#fff" stroke-width="0"/><path d="M543.397,163.311c.937,0,2.274-.046,4.013-.141,1.738-.092,3.593-.28,5.567-.561v-55.208c0-1.026.162-1.727.49-2.102.327-.372,1.143-.561,2.452-.561h14.433c1.962,0,2.943.889,2.943,2.662v59.832c0,3.177-.631,5.699-1.892,7.566-1.261,1.87-3.527,3.177-6.796,3.924-1.121.187-2.522.372-4.204.561-1.681.186-3.481.351-5.395.49-1.916.141-3.807.232-5.675.28-1.87.046-3.503.07-4.904.07-6.726,0-12.449-.655-17.165-1.962-4.718-1.307-8.547-3.409-11.49-6.306-2.943-2.895-5.069-6.655-6.375-11.279-1.31-4.624-1.962-10.251-1.962-16.885v-36.292c0-1.026.162-1.727.486-2.102.324-.372,1.137-.561,2.437-.561h14.472c1.948,0,2.923.889,2.923,2.662v37.553c0,3.083.186,5.77.562,8.058.376,2.29,1.127,4.203,2.255,5.744,1.125,1.542,2.724,2.687,4.791,3.434,2.067.749,4.745,1.121,8.033,1.121Z" fill="#fff" stroke-width="0"/><path d="M581.841,142.293c0-5.23.652-10.229,1.961-14.993,1.307-4.764,3.315-8.944,6.025-12.541,2.708-3.595,6.211-6.445,10.509-8.547,4.295-2.102,9.388-3.153,15.273-3.153,2.428,0,4.786.094,7.076.28,2.287.188,4.88.609,7.776,1.261v-25.642c0-1.121.208-1.868.626-2.242.416-.372,1.229-.561,2.435-.561h14.196c1.021,0,1.784.165,2.295.491.51.328.766,1.099.766,2.312v89.468c0,1.075-.094,2.126-.28,3.152-.094,1.029-.792,1.962-2.097,2.803-1.306.841-2.961,1.565-4.966,2.172-2.006.608-4.243,1.145-6.713,1.611s-4.917.816-7.341,1.051c-2.424.232-4.707.421-6.851.561-2.146.141-3.917.21-5.314.21-6.712,0-12.33-.935-16.852-2.802-4.521-1.868-8.155-4.484-10.905-7.848-2.75-3.362-4.709-7.332-5.874-11.91-1.165-4.575-1.747-9.62-1.747-15.133ZM602.999,142.573c0,7.475,1.472,12.705,4.414,15.693,2.942,2.991,7.027,4.484,12.261,4.484,1.307,0,3.059-.141,5.254-.421,2.194-.28,4.04-.7,5.535-1.261v-39.094c-2.431-.561-4.578-.933-6.445-1.121-1.87-.187-3.552-.28-5.045-.28-4.764,0-8.617,1.729-11.56,5.185-2.942,3.457-4.414,9.062-4.414,16.814Z" fill="#fff" stroke-width="0"/><path d="M676.912,176.202c-3.316-1.493-5.955-3.455-7.917-5.885-1.961-2.428-3.316-5.185-4.063-8.268-.749-3.082-1.121-6.211-1.121-9.388v-69.5c0-1.121.257-1.892.771-2.312.512-.42,1.331-.631,2.452-.631h14.853c1.401,0,2.312.188,2.732.561.42.375.631,1.169.631,2.382v67.958c0,3.552.862,5.934,2.592,7.146,1.728,1.215,3.993,1.822,6.796,1.822h35.591c1.027,0,1.728.164,2.102.49.373.328.561,1.145.561,2.452v12.471c0,1.962-.889,2.942-2.662,2.942h-40.495c-5.232,0-9.507-.747-12.821-2.242Z" fill="#fff" stroke-width="0"/><path d="M761.333,85.683c0,3.271-1.145,6.003-3.433,8.197-2.29,2.196-5.068,3.293-8.337,3.293-3.177,0-5.909-1.097-8.197-3.293-2.29-2.194-3.434-4.926-3.434-8.197,0-1.681.303-3.223.911-4.624.606-1.401,1.447-2.614,2.522-3.643,1.072-1.027,2.312-1.843,3.713-2.452,1.401-.606,2.895-.911,4.484-.911s3.104.304,4.554.911c1.447.609,2.708,1.425,3.783,2.452,1.072,1.029,1.913,2.242,2.522,3.643.606,1.401.91,2.943.91,4.624ZM759.512,175.922c0,1.029-.188,1.706-.561,2.032-.374.328-1.215.49-2.522.49h-14.292c-1.029,0-1.775-.162-2.242-.49-.469-.326-.7-1.003-.7-2.032v-68.52c0-1.026.231-1.703.7-2.032.467-.326,1.213-.49,2.242-.49h14.292c1.308,0,2.148.164,2.522.49.372.329.561,1.005.561,2.032v68.52Z" fill="#fff" stroke-width="0"/><path d="M803.23,119.873c-.936,0-2.267.024-3.994.07-1.729.048-3.572.258-5.534.631v55.348c0,1.029-.164,1.706-.49,2.032-.329.328-1.146.49-2.452.49h-14.433c-1.029,0-1.776-.162-2.242-.49-.469-.326-.7-1.003-.7-2.032v-60.112c0-3.175.558-5.675,1.677-7.497,1.118-1.822,3.45-3.104,6.993-3.854.93-.186,2.257-.35,3.982-.49,1.725-.14,3.566-.28,5.523-.42s3.893-.256,5.805-.351c1.909-.092,3.563-.14,4.963-.14,6.524,0,12.164.655,16.92,1.962,4.753,1.309,8.691,3.387,11.813,6.235,3.122,2.851,5.454,6.586,6.993,11.21,1.537,4.624,2.308,10.253,2.308,16.885v36.571c0,1.029-.164,1.706-.488,2.032-.324.328-1.136.49-2.435.49h-14.472c-1.021,0-1.763-.162-2.227-.49-.464-.326-.696-1.003-.696-2.032v-37.833c0-3.082-.259-5.744-.771-7.986-.515-2.242-1.401-4.134-2.662-5.675-1.262-1.541-2.991-2.684-5.185-3.433-2.196-.747-4.929-1.121-8.197-1.121Z" fill="#fff" stroke-width="0"/><path d="M887.81,163.311c.938,0,2.275-.046,4.014-.141,1.738-.092,3.593-.28,5.567-.561v-55.208c0-1.026.162-1.727.49-2.102.326-.372,1.144-.561,2.452-.561h14.433c1.962,0,2.942.889,2.942,2.662v59.832c0,3.177-.63,5.699-1.892,7.566-1.261,1.87-3.526,3.177-6.796,3.924-1.121.187-2.521.372-4.203.561-1.682.186-3.481.351-5.395.49-1.916.141-3.808.232-5.676.28-1.869.046-3.503.07-4.904.07-6.726,0-12.448-.655-17.164-1.962-4.719-1.307-8.548-3.409-11.49-6.306-2.942-2.895-5.068-6.655-6.376-11.279-1.309-4.624-1.961-10.251-1.961-16.885v-36.292c0-1.026.161-1.727.485-2.102.324-.372,1.137-.561,2.438-.561h14.472c1.948,0,2.923.889,2.923,2.662v37.553c0,3.083.186,5.77.562,8.058.377,2.29,1.128,4.203,2.255,5.744,1.126,1.542,2.724,2.687,4.791,3.434,2.066.749,4.744,1.121,8.032,1.121Z" fill="#fff" stroke-width="0"/><path d="M956.521,153.783l-12.472,21.578c-.561,1.029-1.19,1.8-1.892,2.312-.7.515-1.751.771-3.152.771h-15.974c-1.029,0-1.682-.28-1.962-.841s-.141-1.307.42-2.242l23.681-35.73-21.158-32.229c-.374-.466-.49-1.002-.351-1.611.141-.606.677-.911,1.611-.911h16.815c1.307,0,2.312.188,3.013.561.7.375,1.282,1.075,1.751,2.102l9.809,18.076,9.948-18.076c.561-1.026,1.167-1.727,1.822-2.102.652-.372,1.633-.561,2.942-.561h16.534c1.027,0,1.588.28,1.682.841.092.561.046,1.075-.141,1.542l-21.578,32.088,23.82,36.151c.467.749.606,1.425.421,2.031-.188.609-.841.911-1.962.911h-16.395c-1.59,0-2.687-.256-3.293-.771-.608-.513-1.19-1.283-1.751-2.312l-12.19-21.578Z" fill="#fff" stroke-width="0"/><path d="M101.458,6.628c27.821-12.494,61.668-7.325,84.499,15.506,29.513,29.513,29.513,77.434,0,106.947-.127.127-.254.253-.38.377,12.949-32.246,6.369-70.542-19.744-96.655C148.092,15.062,124.728,6.337,101.458,6.628Z" fill="#fff" fill-rule="evenodd" stroke-width="0"/><path d="M23.41,60.945C34.247,32.438,61.836,12.16,94.124,12.16c41.737,0,75.623,33.885,75.623,75.623,0,.18,0,.359-.002.536-13.645-31.958-45.377-54.385-82.307-54.385-25.089,0-47.78,10.352-64.028,27.012Z" fill="#fff" fill-rule="evenodd" stroke-width="0"/><path d="M195.055,23.409c28.507,10.838,48.786,38.427,48.786,70.715,0,41.738-33.885,75.623-75.623,75.623-.179,0-.359,0-.536-.002,31.959-13.645,54.385-45.377,54.385-82.307,0-25.09-10.352-47.781-27.012-64.029Z" fill="#fff" fill-rule="evenodd" stroke-width="0"/><path d="M6.627,154.542c-12.492-27.821-7.324-61.669,15.507-84.5,29.513-29.513,77.433-29.513,106.946,0,.127.127.253.254.377.38-32.246-12.949-70.542-6.369-96.655,19.744-17.741,17.741-26.467,41.106-26.176,64.376Z" fill="#fff" fill-rule="evenodd" stroke-width="0"/><path d="M60.945,232.591c-28.507-10.837-48.786-38.426-48.786-70.714,0-41.738,33.885-75.623,75.623-75.623.18,0,.359,0,.536.002-31.959,13.645-54.385,45.377-54.385,82.306,0,25.091,10.352,47.782,27.012,64.03Z" fill="#fff" fill-rule="evenodd" stroke-width="0"/><path d="M249.372,101.458c12.494,27.822,7.325,61.669-15.506,84.501-29.513,29.513-77.434,29.513-106.946,0-.127-.127-.253-.255-.379-.38,32.247,12.949,70.543,6.369,96.656-19.744,17.741-17.741,26.466-41.106,26.175-64.376Z" fill="#fff" fill-rule="evenodd" stroke-width="0"/><path d="M154.542,249.371c-27.821,12.494-61.668,7.326-84.5-15.506-29.513-29.513-29.513-77.433,0-106.946.127-.127.255-.253.38-.379-12.949,32.248-6.369,70.542,19.744,96.655,17.741,17.741,41.106,26.467,64.375,26.176Z" fill="#fff" fill-rule="evenodd" stroke-width="0"/><path d="M232.591,195.054c-10.838,28.507-38.427,48.787-70.715,48.787-41.737,0-75.622-33.885-75.622-75.623,0-.18,0-.359.002-.536,13.645,31.957,45.377,54.383,82.306,54.383,25.09,0,47.781-10.351,64.029-27.012Z" fill="#fff" fill-rule="evenodd" stroke-width="0"/></g></g></svg>