<?xml version="1.0" encoding="UTF-8"?><svg id="uuid-ec63d281-c146-4d2f-b759-3a5068e7c672" xmlns="http://www.w3.org/2000/svg" width="256" height="256" viewBox="0 0 256 256"><g id="uuid-e14fb1d1-68b0-4c95-90e0-c8c1e509a59b"><g id="uuid-b00fc14d-25c8-415b-9eef-ffd49979280d"><path d="M101.458,6.628c27.821-12.494,61.668-7.325,84.499,15.506,29.513,29.513,29.513,77.434,0,106.947-.127.127-.254.253-.38.377,12.949-32.246,6.369-70.542-19.744-96.655C148.092,15.062,124.728,6.337,101.458,6.628Z" fill="#fff" fill-rule="evenodd" stroke-width="0"/><path d="M23.41,60.945C34.247,32.438,61.836,12.16,94.124,12.16c41.737,0,75.623,33.885,75.623,75.623,0,.18,0,.359-.002.536-13.645-31.958-45.377-54.385-82.307-54.385-25.089,0-47.78,10.352-64.028,27.012Z" fill="#fff" fill-rule="evenodd" stroke-width="0"/><path d="M195.055,23.409c28.507,10.838,48.786,38.427,48.786,70.715,0,41.738-33.885,75.623-75.623,75.623-.179,0-.359,0-.536-.002,31.959-13.645,54.385-45.377,54.385-82.307,0-25.09-10.352-47.781-27.012-64.029Z" fill="#fff" fill-rule="evenodd" stroke-width="0"/><path d="M6.627,154.542c-12.492-27.821-7.324-61.669,15.507-84.5,29.513-29.513,77.433-29.513,106.946,0,.127.127.253.254.377.38-32.246-12.949-70.542-6.369-96.655,19.744-17.741,17.741-26.467,41.106-26.176,64.376Z" fill="#fff" fill-rule="evenodd" stroke-width="0"/><path d="M60.945,232.591c-28.507-10.837-48.786-38.426-48.786-70.714,0-41.738,33.885-75.623,75.623-75.623.18,0,.359,0,.536.002-31.959,13.645-54.385,45.377-54.385,82.306,0,25.091,10.352,47.782,27.012,64.03Z" fill="#fff" fill-rule="evenodd" stroke-width="0"/><path d="M249.372,101.458c12.494,27.822,7.325,61.669-15.506,84.501-29.513,29.513-77.434,29.513-106.946,0-.127-.127-.253-.255-.379-.38,32.247,12.949,70.543,6.369,96.656-19.744,17.741-17.741,26.466-41.106,26.175-64.376Z" fill="#fff" fill-rule="evenodd" stroke-width="0"/><path d="M154.542,249.371c-27.821,12.494-61.668,7.326-84.5-15.506-29.513-29.513-29.513-77.433,0-106.946.127-.127.255-.253.38-.379-12.949,32.248-6.369,70.542,19.744,96.655,17.741,17.741,41.106,26.467,64.375,26.176Z" fill="#fff" fill-rule="evenodd" stroke-width="0"/><path d="M232.591,195.054c-10.838,28.507-38.427,48.787-70.715,48.787-41.737,0-75.622-33.885-75.622-75.623,0-.18,0-.359.002-.536,13.645,31.957,45.377,54.383,82.306,54.383,25.09,0,47.781-10.351,64.029-27.012Z" fill="#fff" fill-rule="evenodd" stroke-width="0"/></g></g></svg>